<svg width="26" height="26" viewBox="0 0 26 26" fill="none" xmlns="http://www.w3.org/2000/svg">
<path d="M13 9.5C15.4853 9.5 17.5 7.48528 17.5 5C17.5 2.51472 15.4853 0.5 13 0.5C10.5147 0.5 8.5 2.51472 8.5 5C8.5 7.48528 10.5147 9.5 13 9.5ZM13 9.5V14.5M12.8123 14.1096L17.8123 18.1096M8.18765 18.1096L13.1877 14.1096M25.5 21C25.5 23.4853 23.4853 25.5 21 25.5C18.5147 25.5 16.5 23.4853 16.5 21C16.5 18.5147 18.5147 16.5 21 16.5C23.4853 16.5 25.5 18.5147 25.5 21ZM9.5 21C9.5 23.4853 7.48528 25.5 5 25.5C2.51472 25.5 0.5 23.4853 0.5 21C0.5 18.5147 2.51472 16.5 5 16.5C7.48528 16.5 9.5 18.5147 9.5 21Z" stroke="#FF2E91"/>
</svg>
