<svg width="16" height="16" viewBox="0 0 16 16" fill="none" xmlns="http://www.w3.org/2000/svg">
<path d="M7.33333 12.6667H11C11.6188 12.6667 12.2123 12.4208 12.6499 11.9832C13.0875 11.5457 13.3333 10.9522 13.3333 10.3333C13.3333 9.7145 13.0875 9.121 12.6499 8.68342C12.2123 8.24583 11.6188 8 11 8H5.66667C5.04783 8 4.45434 7.75417 4.01675 7.31658C3.57917 6.879 3.33333 6.28551 3.33333 5.66667C3.33333 5.04783 3.57917 4.45434 4.01675 4.01675C4.45434 3.57917 5.04783 3.33333 5.66667 3.33333H8.66667M2 12.6667C2 13.0203 2.14048 13.3594 2.39052 13.6095C2.64057 13.8595 2.97971 14 3.33333 14C3.68696 14 4.02609 13.8595 4.27614 13.6095C4.52619 13.3594 4.66667 13.0203 4.66667 12.6667C4.66667 12.313 4.52619 11.9739 4.27614 11.7239C4.02609 11.4738 3.68696 11.3333 3.33333 11.3333C2.97971 11.3333 2.64057 11.4738 2.39052 11.7239C2.14048 11.9739 2 12.313 2 12.6667ZM12.6667 4.66667C13.0203 4.66667 13.3594 4.52619 13.6095 4.27614C13.8595 4.02609 14 3.68696 14 3.33333C14 2.97971 13.8595 2.64057 13.6095 2.39052C13.3594 2.14048 13.0203 2 12.6667 2C12.313 2 11.9739 2.14048 11.7239 2.39052C11.4738 2.64057 11.3333 2.97971 11.3333 3.33333C11.3333 3.68696 11.4738 4.02609 11.7239 4.27614C11.9739 4.52619 12.313 4.66667 12.6667 4.66667Z" stroke="#222222" stroke-width="1.5" stroke-linecap="round" stroke-linejoin="round"/>
</svg>
