<svg width="25" height="24" viewBox="0 0 25 24" fill="none" xmlns="http://www.w3.org/2000/svg">
<path d="M21.42 15.62C21.3694 15.4988 21.2983 15.3872 21.21 15.29L18.21 12.29C18.0217 12.1017 17.7663 11.9959 17.5 11.9959C17.2337 11.9959 16.9783 12.1017 16.79 12.29C16.6017 12.4783 16.4959 12.7337 16.4959 13C16.4959 13.2663 16.6017 13.5217 16.79 13.71L18.09 15H12.5C12.2348 15 11.9804 15.1054 11.7929 15.2929C11.6054 15.4804 11.5 15.7348 11.5 16C11.5 16.2652 11.6054 16.5196 11.7929 16.7071C11.9804 16.8946 12.2348 17 12.5 17H18.09L16.79 18.29C16.6963 18.383 16.6219 18.4936 16.5711 18.6154C16.5203 18.7373 16.4942 18.868 16.4942 19C16.4942 19.132 16.5203 19.2627 16.5711 19.3846C16.6219 19.5064 16.6963 19.617 16.79 19.71C16.883 19.8037 16.9936 19.8781 17.1154 19.9289C17.2373 19.9797 17.368 20.0058 17.5 20.0058C17.632 20.0058 17.7627 19.9797 17.8846 19.9289C18.0064 19.8781 18.117 19.8037 18.21 19.71L21.21 16.71C21.3026 16.6161 21.3742 16.5036 21.42 16.38C21.52 16.1365 21.52 15.8635 21.42 15.62ZM14.5 20H6.5C6.23478 20 5.98043 19.8946 5.79289 19.7071C5.60536 19.5196 5.5 19.2652 5.5 19V5C5.5 4.73478 5.60536 4.48043 5.79289 4.29289C5.98043 4.10536 6.23478 4 6.5 4H11.5V7C11.5 7.79565 11.8161 8.55871 12.3787 9.12132C12.9413 9.68393 13.7044 10 14.5 10H18.5C18.6974 9.99901 18.8901 9.93961 19.0539 9.82928C19.2176 9.71895 19.345 9.56262 19.42 9.38C19.4966 9.19789 19.5175 8.99718 19.4801 8.80319C19.4428 8.6092 19.3488 8.43062 19.21 8.29L13.21 2.29C13.1273 2.21222 13.0328 2.14808 12.93 2.1H12.84L12.56 2H6.5C5.70435 2 4.94129 2.31607 4.37868 2.87868C3.81607 3.44129 3.5 4.20435 3.5 5V19C3.5 19.7956 3.81607 20.5587 4.37868 21.1213C4.94129 21.6839 5.70435 22 6.5 22H14.5C14.7652 22 15.0196 21.8946 15.2071 21.7071C15.3946 21.5196 15.5 21.2652 15.5 21C15.5 20.7348 15.3946 20.4804 15.2071 20.2929C15.0196 20.1054 14.7652 20 14.5 20ZM13.5 5.41L16.09 8H14.5C14.2348 8 13.9804 7.89464 13.7929 7.70711C13.6054 7.51957 13.5 7.26522 13.5 7V5.41Z" fill="#222222"/>
</svg>
