<svg xmlns="http://www.w3.org/2000/svg" width="19" height="16" viewBox="0 0 19 16" fill="none">
  <path d="M6.25 12.7727C6.25 12.4034 6.11806 12.0838 5.85417 11.8139C5.59028 11.544 5.27778 11.4091 4.91667 11.4091C4.55556 11.4091 4.24306 11.544 3.97917 11.8139C3.71528 12.0838 3.58333 12.4034 3.58333 12.7727C3.58333 13.142 3.71528 13.4616 3.97917 13.7315C4.24306 14.0014 4.55556 14.1364 4.91667 14.1364C5.27778 14.1364 5.59028 14.0014 5.85417 13.7315C6.11806 13.4616 6.25 13.142 6.25 12.7727ZM2.25 7.31818H6.25V4.59091H4.60417C4.51389 4.59091 4.4375 4.62287 4.375 4.68679L2.34375 6.7642C2.28125 6.82813 2.25 6.90625 2.25 6.99858V7.31818ZM15.5833 12.7727C15.5833 12.4034 15.4514 12.0838 15.1875 11.8139C14.9236 11.544 14.6111 11.4091 14.25 11.4091C13.8889 11.4091 13.5764 11.544 13.3125 11.8139C13.0486 12.0838 12.9167 12.4034 12.9167 12.7727C12.9167 13.142 13.0486 13.4616 13.3125 13.7315C13.5764 14.0014 13.8889 14.1364 14.25 14.1364C14.6111 14.1364 14.9236 14.0014 15.1875 13.7315C15.4514 13.4616 15.5833 13.142 15.5833 12.7727ZM18.25 1.18182V12.0909C18.25 12.1974 18.2361 12.2915 18.2083 12.3732C18.1806 12.4549 18.1337 12.5206 18.0677 12.5703C18.0017 12.62 17.9444 12.6609 17.8958 12.6928C17.8472 12.7248 17.7656 12.7461 17.651 12.7567C17.5365 12.7674 17.4583 12.7745 17.4167 12.7781C17.375 12.7816 17.2865 12.7816 17.151 12.7781C17.0156 12.7745 16.9375 12.7727 16.9167 12.7727C16.9167 13.5256 16.6562 14.1683 16.1354 14.701C15.6146 15.2337 14.9861 15.5 14.25 15.5C13.5139 15.5 12.8854 15.2337 12.3646 14.701C11.8438 14.1683 11.5833 13.5256 11.5833 12.7727H7.58333C7.58333 13.5256 7.32292 14.1683 6.80208 14.701C6.28125 15.2337 5.65278 15.5 4.91667 15.5C4.18056 15.5 3.55208 15.2337 3.03125 14.701C2.51042 14.1683 2.25 13.5256 2.25 12.7727H1.58333C1.5625 12.7727 1.48438 12.7745 1.34896 12.7781C1.21354 12.7816 1.125 12.7816 1.08333 12.7781C1.04167 12.7745 0.963542 12.7674 0.848958 12.7567C0.734375 12.7461 0.652778 12.7248 0.604167 12.6928C0.555556 12.6609 0.498264 12.62 0.432292 12.5703C0.366319 12.5206 0.319444 12.4549 0.291667 12.3732C0.263889 12.2915 0.25 12.1974 0.25 12.0909C0.25 11.9063 0.315972 11.7464 0.447917 11.6115C0.579861 11.4766 0.736111 11.4091 0.916667 11.4091V8C0.916667 7.94318 0.914931 7.81889 0.911458 7.62713C0.907986 7.43537 0.907986 7.30043 0.911458 7.2223C0.914931 7.14418 0.923611 7.02166 0.9375 6.85476C0.951389 6.68786 0.973958 6.55646 1.00521 6.46058C1.03646 6.3647 1.08507 6.25639 1.15104 6.13565C1.21701 6.01491 1.29514 5.90838 1.38542 5.81605L3.44792 3.70668C3.57986 3.57173 3.75521 3.4581 3.97396 3.36577C4.19271 3.27344 4.39583 3.22727 4.58333 3.22727H6.25V1.18182C6.25 0.997159 6.31597 0.837358 6.44792 0.702415C6.57986 0.567472 6.73611 0.5 6.91667 0.5H17.5833C17.7639 0.5 17.9201 0.567472 18.0521 0.702415C18.184 0.837358 18.25 0.997159 18.25 1.18182Z" fill="#57BA00"/>
</svg>