<svg width="25" height="25" viewBox="0 0 25 25" fill="none" xmlns="http://www.w3.org/2000/svg">
<path d="M14.8217 10.6831L10.8878 6.74923C10.7272 6.5896 10.5099 6.5 10.2835 6.5C10.0571 6.5 9.83988 6.5896 9.6793 6.74923C9.59897 6.8289 9.53521 6.92369 9.4917 7.02813C9.44818 7.13257 9.42578 7.2446 9.42578 7.35774C9.42578 7.47088 9.44818 7.5829 9.4917 7.68734C9.53521 7.79179 9.59897 7.88658 9.6793 7.96625L13.6218 11.8916C13.7021 11.9713 13.7659 12.0661 13.8094 12.1705C13.8529 12.2749 13.8753 12.387 13.8753 12.5001C13.8753 12.6132 13.8529 12.7253 13.8094 12.8297C13.7659 12.9341 13.7021 13.0289 13.6218 13.1086L9.6793 17.0339C9.51791 17.1942 9.42679 17.412 9.42599 17.6394C9.42519 17.8669 9.51476 18.0853 9.67501 18.2467C9.83526 18.4081 10.0531 18.4992 10.2805 18.5C10.5079 18.5008 10.7264 18.4112 10.8878 18.251L14.8217 14.3171C15.3032 13.835 15.5736 13.1815 15.5736 12.5001C15.5736 11.8187 15.3032 11.1652 14.8217 10.6831Z" fill="#7A7C7F"/>
</svg>
