<svg width="25" height="25" viewBox="0 0 25 25" fill="none" xmlns="http://www.w3.org/2000/svg">
<path d="M11.7661 10.6831L7.92682 6.74923C7.7701 6.5896 7.5581 6.5 7.33712 6.5C7.11614 6.5 6.90414 6.5896 6.74742 6.74923C6.66902 6.8289 6.60679 6.92369 6.56433 7.02813C6.52186 7.13257 6.5 7.2446 6.5 7.35774C6.5 7.47088 6.52186 7.5829 6.56433 7.68734C6.60679 7.79179 6.66902 7.88658 6.74742 7.96625L10.5951 11.8916C10.6735 11.9713 10.7357 12.0661 10.7782 12.1705C10.8207 12.2749 10.8425 12.387 10.8425 12.5001C10.8425 12.6132 10.8207 12.7253 10.7782 12.8297C10.7357 12.9341 10.6735 13.0289 10.5951 13.1086L6.74742 17.0339C6.58991 17.1942 6.50099 17.412 6.5002 17.6394C6.49942 17.8669 6.58684 18.0853 6.74324 18.2467C6.89964 18.4081 7.1122 18.4992 7.33416 18.5C7.55613 18.5008 7.76931 18.4112 7.92682 18.251L11.7661 14.3171C12.236 13.835 12.5 13.1815 12.5 12.5001C12.5 11.8187 12.236 11.1652 11.7661 10.6831Z" fill="#7A7C7F"/>
<path d="M17.7661 10.6831L13.9268 6.74923C13.7701 6.5896 13.5581 6.5 13.3371 6.5C13.1161 6.5 12.9041 6.5896 12.7474 6.74923C12.669 6.8289 12.6068 6.92369 12.5643 7.02813C12.5219 7.13257 12.5 7.2446 12.5 7.35774C12.5 7.47088 12.5219 7.5829 12.5643 7.68734C12.6068 7.79179 12.669 7.88658 12.7474 7.96625L16.5951 11.8916C16.6735 11.9713 16.7357 12.0661 16.7782 12.1705C16.8207 12.2749 16.8425 12.387 16.8425 12.5001C16.8425 12.6132 16.8207 12.7253 16.7782 12.8297C16.7357 12.9341 16.6735 13.0289 16.5951 13.1086L12.7474 17.0339C12.5899 17.1942 12.501 17.412 12.5002 17.6394C12.4994 17.8669 12.5868 18.0853 12.7432 18.2467C12.8996 18.4081 13.1122 18.4992 13.3342 18.5C13.5561 18.5008 13.7693 18.4112 13.9268 18.251L17.7661 14.3171C18.236 13.835 18.5 13.1815 18.5 12.5001C18.5 11.8187 18.236 11.1652 17.7661 10.6831Z" fill="#7A7C7F"/>
</svg>
