<svg width="25" height="13" viewBox="0 0 25 13" fill="none" xmlns="http://www.w3.org/2000/svg">
<path d="M11.3863 7.10887C11.3059 7.02919 11.2422 6.9344 11.1987 6.82995C11.1551 6.72551 11.1327 6.61348 11.1327 6.50033C11.1327 6.38719 11.1551 6.27516 11.1987 6.17071C11.2422 6.06627 11.3059 5.97147 11.3863 5.8918L15.3203 1.96631C15.4007 1.88663 15.4644 1.79184 15.5079 1.68739C15.5514 1.58295 15.5738 1.47092 15.5738 1.35777C15.5738 1.24463 15.5514 1.1326 15.5079 1.02815C15.4644 0.92371 15.4007 0.828914 15.3203 0.749236C15.1597 0.589602 14.9425 0.5 14.7161 0.5C14.4896 0.5 14.2724 0.589602 14.1118 0.749236L10.1778 4.68329C9.69624 5.16541 9.42578 5.81894 9.42578 6.50033C9.42578 7.18172 9.69624 7.83525 10.1778 8.31737L14.1118 12.2514C14.2715 12.4098 14.4869 12.499 14.7118 12.5C14.8246 12.5006 14.9364 12.479 15.0408 12.4364C15.1453 12.3937 15.2402 12.3309 15.3203 12.2514C15.4007 12.1717 15.4644 12.077 15.5079 11.9725C15.5514 11.8681 15.5738 11.756 15.5738 11.6429C15.5738 11.5297 15.5514 11.4177 15.5079 11.3133C15.4644 11.2088 15.4007 11.114 15.3203 11.0344L11.3863 7.10887Z" fill="#7A7C7F"/>
</svg>
