<svg width="25" height="13" viewBox="0 0 25 13" fill="none" xmlns="http://www.w3.org/2000/svg">
<path d="M8.41327 7.10887C8.33487 7.02919 8.27264 6.9344 8.23017 6.82995C8.18771 6.72551 8.16585 6.61348 8.16585 6.50033C8.16585 6.38719 8.18771 6.27516 8.23017 6.17071C8.27264 6.06627 8.33487 5.97147 8.41327 5.8918L12.2526 1.96631C12.331 1.88663 12.3932 1.79184 12.4357 1.68739C12.4781 1.58295 12.5 1.47092 12.5 1.35777C12.5 1.24463 12.4781 1.1326 12.4357 1.02815C12.3932 0.92371 12.331 0.828914 12.2526 0.749236C12.0959 0.589602 11.8839 0.5 11.6629 0.5C11.4419 0.5 11.2299 0.589602 11.0732 0.749236L7.23387 4.68329C6.76395 5.16541 6.5 5.81894 6.5 6.50033C6.5 7.18172 6.76395 7.83525 7.23387 8.31737L11.0732 12.2514C11.229 12.4098 11.4393 12.499 11.6587 12.5C11.7688 12.5006 11.8779 12.479 11.9798 12.4364C12.0817 12.3937 12.1744 12.3309 12.2526 12.2514C12.331 12.1717 12.3932 12.077 12.4357 11.9725C12.4781 11.8681 12.5 11.756 12.5 11.6429C12.5 11.5297 12.4781 11.4177 12.4357 11.3133C12.3932 11.2088 12.331 11.114 12.2526 11.0344L8.41327 7.10887Z" fill="#7A7C7F"/>
<path d="M14.4133 7.10887C14.3349 7.02919 14.2726 6.9344 14.2302 6.82995C14.1877 6.72551 14.1658 6.61348 14.1658 6.50033C14.1658 6.38719 14.1877 6.27516 14.2302 6.17071C14.2726 6.06627 14.3349 5.97147 14.4133 5.8918L18.2526 1.96631C18.331 1.88663 18.3932 1.79184 18.4357 1.68739C18.4781 1.58295 18.5 1.47092 18.5 1.35777C18.5 1.24463 18.4781 1.1326 18.4357 1.02815C18.3932 0.92371 18.331 0.828914 18.2526 0.749236C18.0959 0.589602 17.8839 0.5 17.6629 0.5C17.4419 0.5 17.2299 0.589602 17.0732 0.749236L13.2339 4.68329C12.7639 5.16541 12.5 5.81894 12.5 6.50033C12.5 7.18172 12.7639 7.83525 13.2339 8.31737L17.0732 12.2514C17.229 12.4098 17.4393 12.499 17.6587 12.5C17.7688 12.5006 17.8779 12.479 17.9798 12.4364C18.0817 12.3937 18.1744 12.3309 18.2526 12.2514C18.331 12.1717 18.3932 12.077 18.4357 11.9725C18.4781 11.8681 18.5 11.756 18.5 11.6429C18.5 11.5297 18.4781 11.4177 18.4357 11.3133C18.3932 11.2088 18.331 11.114 18.2526 11.0344L14.4133 7.10887Z" fill="#7A7C7F"/>
</svg>
