<svg xmlns="http://www.w3.org/2000/svg" width="13" height="13" viewBox="0 0 13 13" fill="none">
<path d="M2.64959 12.5H11.0938C11.8692 12.5 12.5 11.8692 12.5 11.0938V1.90625C12.5 1.13084 11.8692 0.5 11.0938 0.5H1.90625C1.13084 0.5 0.5 1.13084 0.5 1.90625V10.3504L2.64959 12.5ZM8.82031 11.5625H6.03125V9.78125H5.09375V11.5625H4.15625V9.3125C4.15625 9.05403 4.36653 8.84375 4.625 8.84375H8.35156C8.61003 8.84375 8.82031 9.05403 8.82031 9.3125V11.5625ZM3.21875 1.4375H9.75781V5.5625C9.75781 5.82097 9.54753 6.03125 9.28906 6.03125H3.6875C3.42903 6.03125 3.21875 5.82097 3.21875 5.5625V1.4375Z" fill="#57BA00"/>
</svg>