<svg width="16" height="16" viewBox="0 0 16 16" fill="none" xmlns="http://www.w3.org/2000/svg">
<path d="M2.61209 13.0194C2.61209 13.0194 2.67163 13.0194 2.69395 13.0194L4.87442 12.8151C5.17953 12.7849 5.46233 12.6487 5.67814 12.4293L13.9088 4.06241C14.2958 3.66903 14.5116 3.14705 14.5116 2.5948C14.5116 2.04255 14.2958 1.52057 13.9088 1.12719L13.3805 0.590071C12.6065 -0.19669 11.2595 -0.19669 10.4856 0.590071L9.43628 1.65674L2.26233 8.94941C2.04651 9.16879 1.91256 9.45626 1.89023 9.76643L1.6893 11.983C1.66698 12.2629 1.76372 12.5352 1.95721 12.7395C2.13581 12.921 2.36651 13.0194 2.61209 13.0194ZM11.9367 1.11206C12.1749 1.11206 12.413 1.20284 12.5916 1.39196L13.12 1.92908C13.2986 2.11064 13.3953 2.34515 13.3953 2.5948C13.3953 2.84444 13.2986 3.08652 13.12 3.26052L12.4651 3.92624L10.627 2.05768L11.2819 1.39196C11.4605 1.2104 11.6986 1.11206 11.9367 1.11206ZM2.99907 9.87234C2.99907 9.82695 3.0214 9.78913 3.05116 9.75887L9.8307 2.85957L11.6688 4.72813L4.8893 11.6199C4.8893 11.6199 4.81488 11.6728 4.77767 11.6728L2.82047 11.8544L2.99907 9.86478V9.87234ZM16 15.4326C16 15.7428 15.747 16 15.4419 16H0.55814C0.253023 16 0 15.7428 0 15.4326C0 15.1225 0.253023 14.8652 0.55814 14.8652H15.4419C15.747 14.8652 16 15.1225 16 15.4326Z" fill="#7A7C7F"/>
</svg>
