<svg xmlns="http://www.w3.org/2000/svg" width="19" height="20" viewBox="0 0 19 20" fill="none">
  <path fill-rule="evenodd" clip-rule="evenodd" d="M9.75 10C12.5114 10 14.75 7.76142 14.75 5C14.75 2.23858 12.5114 0 9.75 0C6.98858 0 4.75 2.23858 4.75 5C4.75 7.76142 6.98858 10 9.75 10Z" fill="#57BA00"/>
  <path fill-rule="evenodd" clip-rule="evenodd" d="M6.75 14C4.54086 14 2.75 15.7909 2.75 18V19C2.75 19.5523 2.30228 20 1.75 20C1.19772 20 0.75 19.5523 0.75 19V18C0.75 14.6863 3.43629 12 6.75 12H12.75C16.0637 12 18.75 14.6863 18.75 18V19C18.75 19.5523 18.3023 20 17.75 20C17.1977 20 16.75 19.5523 16.75 19V18C16.75 15.7909 14.9591 14 12.75 14H6.75Z" fill="#57BA00"/>
</svg>