<svg xmlns="http://www.w3.org/2000/svg" width="19" height="20" viewBox="0 0 19 20" fill="none">
  <path fill-rule="evenodd" clip-rule="evenodd" d="M9.25 10C12.0114 10 14.25 7.76142 14.25 5C14.25 2.23858 12.0114 0 9.25 0C6.48858 0 4.25 2.23858 4.25 5C4.25 7.76142 6.48858 10 9.25 10Z" fill="#57BA00"/>
  <path fill-rule="evenodd" clip-rule="evenodd" d="M6.25 14C4.04086 14 2.25 15.7909 2.25 18V19C2.25 19.5523 1.80228 20 1.25 20C0.69772 20 0.25 19.5523 0.25 19V18C0.25 14.6863 2.93629 12 6.25 12H12.25C15.5637 12 18.25 14.6863 18.25 18V19C18.25 19.5523 17.8023 20 17.25 20C16.6977 20 16.25 19.5523 16.25 19V18C16.25 15.7909 14.4591 14 12.25 14H6.25Z" fill="#57BA00"/>
</svg>