<svg width="36" height="36" viewBox="0 0 36 36" fill="none" xmlns="http://www.w3.org/2000/svg">
<path d="M18.555 3.22525L32.055 8.62522C32.58 8.83522 33 9.46521 33 10.0202V15.0002C33 15.8252 32.325 16.5002 31.5 16.5002H4.5C3.675 16.5002 3 15.8252 3 15.0002V10.0202C3 9.46521 3.42001 8.83522 3.94501 8.62522L17.445 3.22525C17.745 3.10525 18.255 3.10525 18.555 3.22525Z" stroke="#57BA00" stroke-width="1.5" stroke-miterlimit="10" stroke-linecap="round" stroke-linejoin="round"/>
<path d="M33 33H3V28.5C3 27.675 3.675 27 4.5 27H31.5C32.325 27 33 27.675 33 28.5V33Z" stroke="#57BA00" stroke-width="1.5" stroke-miterlimit="10" stroke-linecap="round" stroke-linejoin="round"/>
<path d="M6 27V16.5" stroke="#57BA00" stroke-width="1.5" stroke-miterlimit="10" stroke-linecap="round" stroke-linejoin="round"/>
<path d="M12 27V16.5" stroke="#57BA00" stroke-width="1.5" stroke-miterlimit="10" stroke-linecap="round" stroke-linejoin="round"/>
<path d="M18 27V16.5" stroke="#57BA00" stroke-width="1.5" stroke-miterlimit="10" stroke-linecap="round" stroke-linejoin="round"/>
<path d="M24 27V16.5" stroke="#57BA00" stroke-width="1.5" stroke-miterlimit="10" stroke-linecap="round" stroke-linejoin="round"/>
<path d="M30 27V16.5" stroke="#57BA00" stroke-width="1.5" stroke-miterlimit="10" stroke-linecap="round" stroke-linejoin="round"/>
<path d="M1.5 33H34.5" stroke="#57BA00" stroke-width="1.5" stroke-miterlimit="10" stroke-linecap="round" stroke-linejoin="round"/>
<path d="M18 12.75C19.2426 12.75 20.25 11.7426 20.25 10.5C20.25 9.25736 19.2426 8.25 18 8.25C16.7574 8.25 15.75 9.25736 15.75 10.5C15.75 11.7426 16.7574 12.75 18 12.75Z" stroke="#57BA00" stroke-width="1.5" stroke-miterlimit="10" stroke-linecap="round" stroke-linejoin="round"/>
</svg>
