<svg width="36" height="36" viewBox="0 0 36 36" fill="none" xmlns="http://www.w3.org/2000/svg">
<path d="M8.38504 16.68C3.57004 3.28497 23.88 -2.07003 26.205 12C32.7 12.825 35.325 21.48 30.405 25.785C28.905 27.15 26.97 27.9 24.945 27.885H24.81" stroke="#57BA00" stroke-width="1.5" stroke-miterlimit="10" stroke-linecap="round" stroke-linejoin="round"/>
<path d="M25.5 24.7949C25.5 25.9049 25.26 26.9549 24.81 27.8849C24.69 28.1549 24.555 28.4099 24.405 28.6499C23.115 30.8249 20.73 32.2949 18 32.2949C15.27 32.2949 12.885 30.8249 11.595 28.6499C11.445 28.4099 11.31 28.1549 11.19 27.8849C10.74 26.9549 10.5 25.9049 10.5 24.7949C10.5 20.6549 13.86 17.2949 18 17.2949C22.14 17.2949 25.5 20.6549 25.5 24.7949Z" stroke="#57BA00" stroke-width="1.5" stroke-miterlimit="10" stroke-linecap="round" stroke-linejoin="round"/>
<path d="M15.6602 24.7952L17.1451 26.2802L20.3401 23.3252" stroke="#57BA00" stroke-width="1.5" stroke-linecap="round" stroke-linejoin="round"/>
</svg>
