<svg width="36" height="36" viewBox="0 0 36 36" fill="none" xmlns="http://www.w3.org/2000/svg">
<path d="M14.4 30H21.6C27.6 30 30 27.6 30 21.6V14.4C30 8.4 27.6 6 21.6 6H14.4C8.4 6 6 8.4 6 14.4V21.6C6 27.6 8.4 30 14.4 30Z" stroke="#57BA00" stroke-width="1.5" stroke-linecap="round" stroke-linejoin="round"/>
<path d="M15.75 25.5H20.25C24 25.5 25.5 24 25.5 20.25V15.75C25.5 12 24 10.5 20.25 10.5H15.75C12 10.5 10.5 12 10.5 15.75V20.25C10.5 24 12 25.5 15.75 25.5Z" stroke="#57BA00" stroke-width="1.5" stroke-linecap="round" stroke-linejoin="round"/>
<path d="M12.0146 6V3" stroke="#57BA00" stroke-width="1.5" stroke-linecap="round" stroke-linejoin="round"/>
<path d="M18 6V3" stroke="#57BA00" stroke-width="1.5" stroke-linecap="round" stroke-linejoin="round"/>
<path d="M24 6V3" stroke="#57BA00" stroke-width="1.5" stroke-linecap="round" stroke-linejoin="round"/>
<path d="M30 12H33" stroke="#57BA00" stroke-width="1.5" stroke-linecap="round" stroke-linejoin="round"/>
<path d="M30 18H33" stroke="#57BA00" stroke-width="1.5" stroke-linecap="round" stroke-linejoin="round"/>
<path d="M30 24H33" stroke="#57BA00" stroke-width="1.5" stroke-linecap="round" stroke-linejoin="round"/>
<path d="M24 30V33" stroke="#57BA00" stroke-width="1.5" stroke-linecap="round" stroke-linejoin="round"/>
<path d="M18.0146 30V33" stroke="#57BA00" stroke-width="1.5" stroke-linecap="round" stroke-linejoin="round"/>
<path d="M12.0146 30V33" stroke="#57BA00" stroke-width="1.5" stroke-linecap="round" stroke-linejoin="round"/>
<path d="M3 12H6" stroke="#57BA00" stroke-width="1.5" stroke-linecap="round" stroke-linejoin="round"/>
<path d="M3 18H6" stroke="#57BA00" stroke-width="1.5" stroke-linecap="round" stroke-linejoin="round"/>
<path d="M3 24H6" stroke="#57BA00" stroke-width="1.5" stroke-linecap="round" stroke-linejoin="round"/>
</svg>
