<svg width="36" height="36" viewBox="0 0 36 36" fill="none" xmlns="http://www.w3.org/2000/svg">
<path d="M15.1049 4.22977L4.70993 12.5548C3.53993 13.4848 2.78991 15.4499 3.04491 16.9199L5.03989 28.8598C5.39989 30.9898 7.4399 32.7149 9.5999 32.7149H26.3999C28.5449 32.7149 30.5999 30.9748 30.9599 28.8598L32.9549 16.9199C33.1949 15.4499 32.4449 13.4848 31.2899 12.5548L20.8949 4.24478C19.2899 2.95478 16.6949 2.95477 15.1049 4.22977Z" stroke="#57BA00" stroke-width="1.5" stroke-linecap="round" stroke-linejoin="round"/>
<path d="M14.8203 21.5702C16.7253 19.7552 19.2753 19.7552 21.1803 21.5702" stroke="#57BA00" stroke-width="1.5" stroke-linecap="round" stroke-linejoin="round"/>
<path d="M24.36 18.3903C23.55 17.5953 22.65 16.9803 21.72 16.5303C19.335 15.3903 16.665 15.3903 14.265 16.5303C13.335 16.9803 12.45 17.5953 11.625 18.3903" stroke="#57BA00" stroke-width="1.5" stroke-linecap="round" stroke-linejoin="round"/>
<path d="M17.9932 25.5H18.0067" stroke="#57BA00" stroke-width="2" stroke-linecap="round" stroke-linejoin="round"/>
</svg>
