<svg width="36" height="36" viewBox="0 0 36 36" fill="none" xmlns="http://www.w3.org/2000/svg">
<path d="M33 13.4998V22.4998C33 26.2498 32.25 28.8748 30.57 30.5698L21 20.9998L32.595 9.40479C32.865 10.5898 33 11.9398 33 13.4998Z" stroke="#57BA00" stroke-width="1.5" stroke-linecap="round" stroke-linejoin="round"/>
<path d="M32.595 9.40501L9.40498 32.595C4.88998 31.56 3 28.44 3 22.5V13.5C3 6 6 3 13.5 3H22.5C28.44 3 31.56 4.89001 32.595 9.40501Z" stroke="#57BA00" stroke-width="1.5" stroke-linecap="round" stroke-linejoin="round"/>
<path d="M30.5703 30.57C28.8753 32.25 26.2503 33 22.5003 33H13.5003C11.9403 33 10.5903 32.865 9.40527 32.595L21.0003 21L30.5703 30.57Z" stroke="#57BA00" stroke-width="1.5" stroke-linecap="round" stroke-linejoin="round"/>
<path d="M9.35991 11.9701C10.3799 7.57508 16.9799 7.57508 17.9999 11.9701C18.5849 14.5501 16.9649 16.7401 15.5399 18.0901C14.5049 19.0801 12.8699 19.0801 11.8199 18.0901C10.3949 16.7401 8.75991 14.5501 9.35991 11.9701Z" stroke="#57BA00" stroke-width="1.5"/>
<path d="M13.6422 13.0498H13.6556" stroke="#57BA00" stroke-width="2" stroke-linecap="round" stroke-linejoin="round"/>
</svg>
