<svg width="16" height="16" viewBox="0 0 16 16" fill="none" xmlns="http://www.w3.org/2000/svg">
<rect width="16" height="16" rx="4" fill="#FCACEE"/>
<path d="M6.22443 12V5.45455H7.98438V6.59659H8.05256C8.17188 6.19034 8.37216 5.88352 8.65341 5.67614C8.93466 5.46591 9.25852 5.3608 9.625 5.3608C9.71591 5.3608 9.81392 5.36648 9.91903 5.37784C10.0241 5.3892 10.1165 5.40483 10.196 5.42472V7.03551C10.1108 7.00994 9.9929 6.98722 9.84233 6.96733C9.69176 6.94744 9.55398 6.9375 9.42898 6.9375C9.16193 6.9375 8.9233 6.99574 8.71307 7.11222C8.50568 7.22585 8.34091 7.38494 8.21875 7.58949C8.09943 7.79403 8.03977 8.02983 8.03977 8.29688V12H6.22443Z" fill="white"/>
</svg>
