<svg width="16" height="16" viewBox="0 0 16 16" fill="none" xmlns="http://www.w3.org/2000/svg">
<rect width="16" height="16" rx="4" fill="#7F7F7F"/>
<path d="M7.09091 12.1236C6.6733 12.1236 6.30114 12.0511 5.97443 11.9062C5.64773 11.7585 5.3892 11.5412 5.19886 11.2543C5.01136 10.9645 4.91761 10.6037 4.91761 10.1719C4.91761 9.80824 4.98438 9.50284 5.1179 9.25568C5.25142 9.00852 5.43324 8.80966 5.66335 8.65909C5.89347 8.50852 6.15483 8.39489 6.44744 8.31818C6.7429 8.24148 7.05256 8.1875 7.37642 8.15625C7.7571 8.11648 8.06392 8.07955 8.29688 8.04545C8.52983 8.00852 8.69886 7.95455 8.80398 7.88352C8.90909 7.8125 8.96165 7.70739 8.96165 7.56818V7.54261C8.96165 7.27273 8.87642 7.06392 8.70597 6.91619C8.53835 6.76847 8.29972 6.6946 7.99006 6.6946C7.66335 6.6946 7.40341 6.76705 7.21023 6.91193C7.01705 7.05398 6.8892 7.23295 6.8267 7.44886L5.14773 7.3125C5.23295 6.91477 5.40057 6.57102 5.65057 6.28125C5.90057 5.98864 6.22301 5.7642 6.6179 5.60795C7.01563 5.44886 7.47585 5.36932 7.99858 5.36932C8.36222 5.36932 8.71023 5.41193 9.04261 5.49716C9.37784 5.58239 9.67472 5.71449 9.93324 5.89347C10.1946 6.07244 10.4006 6.30256 10.5511 6.58381C10.7017 6.86222 10.777 7.19602 10.777 7.58523V12H9.0554V11.0923H9.00426C8.89915 11.2969 8.75852 11.4773 8.58239 11.6335C8.40625 11.7869 8.1946 11.9077 7.94744 11.9957C7.70028 12.081 7.41477 12.1236 7.09091 12.1236ZM7.6108 10.8707C7.87784 10.8707 8.11364 10.8182 8.31818 10.7131C8.52273 10.6051 8.68324 10.4602 8.79972 10.2784C8.91619 10.0966 8.97443 9.89062 8.97443 9.66051V8.96591C8.91761 9.00284 8.83949 9.03693 8.74006 9.06818C8.64347 9.09659 8.53409 9.12358 8.41193 9.14915C8.28977 9.17187 8.16761 9.19318 8.04545 9.21307C7.9233 9.23011 7.8125 9.24574 7.71307 9.25994C7.5 9.29119 7.31392 9.34091 7.15483 9.40909C6.99574 9.47727 6.87216 9.5696 6.78409 9.68608C6.69602 9.79972 6.65199 9.94176 6.65199 10.1122C6.65199 10.3594 6.74148 10.5483 6.92045 10.679C7.10227 10.8068 7.33239 10.8707 7.6108 10.8707Z" fill="white"/>
</svg>
