<svg width="24" height="24" viewBox="0 0 24 24" fill="none" xmlns="http://www.w3.org/2000/svg">
<rect x="0.5" y="0.5" width="23" height="23" rx="3.5" stroke="#D9D9D9"/>
<path d="M12.8626 4C13.0978 4 13.3082 4.1464 13.3874 4.3656L13.9522 5.93118C14.1543 5.98131 14.3287 6.03251 14.4754 6.08478C14.6354 6.14185 14.8434 6.22985 15.0994 6.34878L16.4146 5.65278C16.5219 5.59565 16.6448 5.57497 16.7649 5.59388C16.885 5.61279 16.9956 5.67025 17.0802 5.75758L18.237 6.95357C18.3906 7.11277 18.4338 7.34557 18.3474 7.54877L17.7306 8.99435C17.8324 9.18208 17.9146 9.34315 17.977 9.47755C18.0442 9.62315 18.1274 9.82581 18.2266 10.0855L19.6641 10.7015C19.8801 10.7935 20.0137 11.0095 19.9993 11.2407L19.8937 12.9007C19.8865 13.0086 19.8478 13.1119 19.7824 13.1979C19.717 13.284 19.6277 13.3489 19.5257 13.3847L18.1642 13.8687C18.1252 14.0564 18.0842 14.218 18.041 14.3535C17.9711 14.5635 17.8915 14.7701 17.8026 14.9727L18.4866 16.4847C18.5352 16.5908 18.5484 16.7098 18.5242 16.8241C18.5 16.9383 18.4397 17.0418 18.3522 17.1191L17.0514 18.2807C16.9659 18.3571 16.8589 18.4055 16.7451 18.4193C16.6312 18.433 16.5158 18.4114 16.4146 18.3575L15.0738 17.6471C14.8642 17.7586 14.6478 17.8566 14.4258 17.9407L13.8402 18.1599L13.3202 19.5999C13.2813 19.7051 13.2117 19.7962 13.1204 19.8613C13.0291 19.9265 12.9204 19.9628 12.8082 19.9655L11.2882 19.9998C11.1731 20.0025 11.0599 19.9696 10.9641 19.9056C10.8683 19.8416 10.7946 19.7497 10.753 19.6423L10.1402 18.0207C9.93121 17.9491 9.7242 17.8717 9.51944 17.7887C9.35202 17.7162 9.18712 17.638 9.02505 17.5543L7.50506 18.2039C7.40495 18.2468 7.29448 18.2596 7.1872 18.2407C7.07992 18.2218 6.98048 18.172 6.90107 18.0975L5.77628 17.0423C5.69222 16.9643 5.63497 16.8617 5.6127 16.7492C5.59043 16.6367 5.60428 16.52 5.65228 16.4159L6.30587 14.9919C6.21926 14.8231 6.13867 14.6512 6.06427 14.4767C5.97761 14.263 5.89758 14.0466 5.82428 13.8279L4.39229 13.3919C4.27589 13.3567 4.17437 13.2841 4.10348 13.1853C4.0326 13.0865 3.99633 12.9671 4.00029 12.8455L4.05629 11.3087C4.06045 11.2085 4.09185 11.1113 4.1471 11.0276C4.20235 10.9439 4.27937 10.8768 4.36989 10.8335L5.87228 10.1119C5.94161 9.85701 6.00294 9.65755 6.05627 9.51355C6.13176 9.32015 6.21557 9.13011 6.30747 8.94395L5.65628 7.56797C5.60648 7.46355 5.59127 7.34598 5.61285 7.23233C5.63443 7.11868 5.69168 7.01487 5.77628 6.93597L6.89947 5.87518C6.9781 5.80075 7.07662 5.7507 7.18311 5.73111C7.2896 5.71151 7.39948 5.72321 7.49946 5.76478L9.01785 6.39198C9.18531 6.28051 9.33784 6.18878 9.47544 6.11678C9.63917 6.03038 9.85891 5.93812 10.1346 5.83998L10.6626 4.3672C10.7021 4.25967 10.7735 4.16682 10.8673 4.10116C10.9612 4.0355 11.0729 4.0002 11.1874 4H12.8626ZM12.4706 5.10159H11.5802L11.0962 6.45678C11.0674 6.53559 11.0212 6.60692 10.9611 6.6655C10.9011 6.72407 10.8286 6.76839 10.749 6.79517C10.4002 6.91117 10.1482 7.01117 10.001 7.08877C9.84424 7.17144 9.64691 7.29677 9.40904 7.46477C9.33163 7.51937 9.24164 7.55344 9.14748 7.56379C9.05332 7.57414 8.95807 7.56044 8.87065 7.52397L7.40666 6.91997L6.83627 7.45917L7.43066 8.71516C7.46625 8.78988 7.48431 8.87175 7.48348 8.95451C7.48265 9.03727 7.46294 9.11875 7.42586 9.19275C7.26586 9.51355 7.15786 9.75035 7.10346 9.89594C7.01969 10.1382 6.94761 10.3844 6.88747 10.6335C6.86737 10.7115 6.83046 10.7841 6.77932 10.8463C6.72819 10.9085 6.66408 10.9587 6.59147 10.9935L5.15948 11.6807L5.13068 12.4647L6.42667 12.8583C6.59867 12.9103 6.73467 13.0423 6.79147 13.2119C6.92 13.597 7.02133 13.8786 7.09546 14.0567C7.19299 14.2821 7.30083 14.5028 7.41866 14.7183C7.45852 14.7924 7.48065 14.8748 7.48328 14.9589C7.48592 15.043 7.469 15.1266 7.43386 15.2031L6.83307 16.5135L7.40186 17.0479L8.82745 16.4383C8.9042 16.4053 8.98735 16.3899 9.07082 16.3932C9.15429 16.3966 9.23596 16.4185 9.30984 16.4575C9.60317 16.6111 9.81891 16.7172 9.95704 16.7759C10.097 16.8343 10.365 16.9319 10.7538 17.0647C10.8308 17.0914 10.9011 17.1346 10.9597 17.1912C11.0182 17.2479 11.0638 17.3166 11.093 17.3927L11.6594 18.8895L12.4002 18.8735L12.8778 17.5503C12.9055 17.475 12.949 17.4065 13.0055 17.3495C13.0619 17.2925 13.13 17.2483 13.205 17.2199L14.0346 16.9095C14.2447 16.8321 14.4983 16.7095 14.7954 16.5415C14.8775 16.4951 14.9699 16.4702 15.0642 16.4691C15.1584 16.468 15.2514 16.4907 15.3346 16.5351L16.5962 17.2031L17.3058 16.5703L16.685 15.1999C16.653 15.1296 16.6365 15.0532 16.6363 14.976C16.6362 14.8987 16.6525 14.8223 16.6842 14.7519C16.8298 14.4263 16.9282 14.1807 16.9778 14.0239C17.0274 13.8692 17.0767 13.6492 17.1258 13.3639C17.1426 13.2672 17.1848 13.1767 17.2483 13.1017C17.3117 13.0268 17.3939 12.9701 17.4866 12.9375L18.805 12.4695L18.8626 11.5575L17.5666 11.0023C17.4978 10.9726 17.4356 10.9295 17.3838 10.8753C17.332 10.8212 17.2916 10.7572 17.265 10.6871C17.1727 10.4321 17.0719 10.1802 16.9626 9.93194C16.8593 9.71573 16.7472 9.50382 16.6266 9.29675C16.5847 9.22363 16.5603 9.14178 16.5555 9.05765C16.5506 8.97352 16.5654 8.88941 16.5986 8.81195L17.1786 7.45197L16.5674 6.81997L15.377 7.45037C15.2993 7.49177 15.213 7.51428 15.125 7.51609C15.037 7.5179 14.9499 7.49894 14.8706 7.46077C14.6181 7.33482 14.3596 7.22109 14.0962 7.11997C13.8718 7.0442 13.6428 6.98274 13.4106 6.93597C13.3187 6.91603 13.2333 6.87325 13.1622 6.81159C13.0912 6.74993 13.0369 6.67138 13.0042 6.58318L12.4706 5.10159ZM12.0194 8.51276C13.9674 8.51276 15.5474 10.0751 15.5474 12.0015C15.5474 13.9279 13.9674 15.4895 12.0194 15.4895C10.0714 15.4895 8.49145 13.9279 8.49145 12.0015C8.49145 10.0751 10.0706 8.51356 12.0194 8.51356M12.0194 9.61595C10.6858 9.61595 9.60504 10.6839 9.60504 12.0023C9.60504 13.3207 10.6858 14.3895 12.0194 14.3895C13.353 14.3895 14.433 13.3207 14.433 12.0023C14.433 10.6839 13.353 9.61595 12.0194 9.61595Z" fill="#959291"/>
</svg>
