<svg width="20" height="20" viewBox="0 0 20 20" fill="none" xmlns="http://www.w3.org/2000/svg">
<path d="M18.1594 2.51074H6.86126C5.84642 2.51074 5.02075 3.33641 5.02075 4.3525C5.02075 5.36734 5.84642 6.19301 6.86126 6.19301H18.1594C19.1742 6.19301 19.9999 5.36734 19.9999 4.3525C19.9999 3.33637 19.1743 2.51074 18.1594 2.51074Z" fill="#57BA00"/>
<path d="M1.84117 2.51074C0.825977 2.51074 0 3.33668 0 4.35188C0 5.36707 0.825977 6.19301 1.84117 6.19301C2.85637 6.19301 3.6823 5.36707 3.6823 4.35188C3.6823 3.33668 2.85637 2.51074 1.84117 2.51074Z" fill="#57BA00"/>
<path d="M1.84117 8.15918C0.825977 8.15918 0 8.98512 0 10.0003C0 11.0155 0.825977 11.8414 1.84117 11.8414C2.85637 11.8414 3.6823 11.0155 3.6823 10.0003C3.6823 8.98512 2.85637 8.15918 1.84117 8.15918Z" fill="#57BA00"/>
<path d="M1.84117 13.8076C0.825977 13.8076 0 14.6336 0 15.6487C0 16.6639 0.825977 17.4899 1.84117 17.4899C2.85637 17.4899 3.6823 16.6639 3.6823 15.6487C3.6823 14.6336 2.85637 13.8076 1.84117 13.8076Z" fill="#57BA00"/>
<path d="M18.1594 8.15918H6.86126C5.84642 8.15918 5.02075 8.98484 5.02075 10.0009C5.02075 11.0158 5.84642 11.8414 6.86126 11.8414H18.1594C19.1742 11.8414 19.9999 11.0158 19.9999 10.0009C19.9999 8.9848 19.1743 8.15918 18.1594 8.15918Z" fill="#57BA00"/>
<path d="M18.1594 13.8076H6.86126C5.84642 13.8076 5.02075 14.6333 5.02075 15.6494C5.02075 16.6642 5.84642 17.4899 6.86126 17.4899H18.1594C19.1742 17.4899 19.9999 16.6642 19.9999 15.6494C19.9999 14.6333 19.1743 13.8076 18.1594 13.8076Z" fill="#57BA00"/>
</svg>
