<svg width="12" height="12" viewBox="0 0 12 12" fill="none" xmlns="http://www.w3.org/2000/svg">
<path d="M10.7734 6.79629H7.5C6.9727 6.79629 6.54524 7.22546 6.54524 7.75487V11.0414C6.54524 11.5708 6.9727 12 7.5 12H10.7734C11.3007 12 11.7282 11.5708 11.7282 11.0414V7.75487C11.7282 7.22546 11.3007 6.79629 10.7734 6.79629Z" fill="black"/>
<path d="M11.7207 2.19505L9.8133 0.28003C9.63405 0.100695 9.39132 0 9.13826 0C8.88521 0 8.64247 0.100695 8.46322 0.28003L6.55584 2.19505C6.3771 2.37495 6.27672 2.61869 6.27672 2.87279C6.27672 3.1269 6.3771 3.37063 6.55584 3.55053L8.46322 5.46555C8.64239 5.64505 8.88516 5.74585 9.13826 5.74585C9.39137 5.74585 9.63414 5.64505 9.8133 5.46555L11.7207 3.55053C11.8995 3.37069 12 3.12694 12 2.87279C12 2.61865 11.8995 2.37489 11.7207 2.19505Z" fill="black"/>
<path d="M4.2282 0.223845H0.954756C0.427459 0.223845 0 0.653015 0 1.18242V4.46898C0 4.99839 0.427459 5.42756 0.954756 5.42756H4.2282C4.7555 5.42756 5.18296 4.99839 5.18296 4.46898V1.18242C5.18296 0.653015 4.7555 0.223845 4.2282 0.223845Z" fill="black"/>
<path d="M4.2282 6.79629H0.954756C0.427459 6.79629 0 7.22546 0 7.75487V11.0414C0 11.5708 0.427459 12 0.954756 12H4.2282C4.7555 12 5.18296 11.5708 5.18296 11.0414V7.75487C5.18296 7.22546 4.7555 6.79629 4.2282 6.79629Z" fill="black"/>
</svg>
