<svg width="16" height="17" viewBox="0 0 16 17" fill="none" xmlns="http://www.w3.org/2000/svg">
<rect y="0.5" width="16" height="16" rx="8" fill="#7F7F7F"/>
<path d="M7.2517 10.4532V10.4015C7.25737 9.85373 7.31406 9.41778 7.42177 9.09369C7.52948 8.7696 7.68254 8.50717 7.88095 8.30641C8.07937 8.10564 8.31746 7.92065 8.59524 7.75143C8.76247 7.64818 8.9127 7.52629 9.04592 7.38576C9.17914 7.24235 9.28401 7.07744 9.36054 6.89101C9.43991 6.70459 9.47959 6.49809 9.47959 6.27151C9.47959 5.99044 9.4144 5.74665 9.28401 5.54015C9.15363 5.33365 8.97931 5.17447 8.76105 5.06262C8.5428 4.95076 8.30045 4.89484 8.03401 4.89484C7.80159 4.89484 7.57766 4.94359 7.36224 5.04111C7.14683 5.13862 6.96684 5.29207 6.82228 5.50143C6.67772 5.7108 6.5941 5.9847 6.57143 6.32314H5.5C5.52268 5.83556 5.64739 5.41826 5.87415 5.07122C6.10374 4.72419 6.40561 4.45889 6.77976 4.27533C7.15675 4.09178 7.57483 4 8.03401 4C8.53288 4 8.96655 4.10038 9.33503 4.30115C9.70635 4.50191 9.99263 4.77725 10.1939 5.12715C10.398 5.47706 10.5 5.87572 10.5 6.32314C10.5 6.63862 10.4518 6.924 10.3554 7.17925C10.2619 7.43451 10.1259 7.66252 9.94728 7.86329C9.77154 8.06405 9.55896 8.24187 9.30952 8.39675C9.06009 8.55449 8.86026 8.72084 8.71003 8.89579C8.55981 9.06788 8.45068 9.27294 8.38265 9.51099C8.31463 9.74904 8.27778 10.0459 8.27211 10.4015V10.4532H7.2517ZM7.79592 13C7.58617 13 7.40618 12.924 7.25595 12.772C7.10573 12.62 7.03061 12.4379 7.03061 12.2256C7.03061 12.0134 7.10573 11.8313 7.25595 11.6793C7.40618 11.5272 7.58617 11.4512 7.79592 11.4512C8.00567 11.4512 8.18566 11.5272 8.33588 11.6793C8.48611 11.8313 8.56122 12.0134 8.56122 12.2256C8.56122 12.3662 8.52579 12.4952 8.45493 12.6128C8.3869 12.7304 8.29478 12.825 8.17857 12.8967C8.06519 12.9656 7.93764 13 7.79592 13Z" fill="white"/>
</svg>
