<svg width="38" height="14" viewBox="0 0 38 14" fill="none" xmlns="http://www.w3.org/2000/svg">
<path d="M0.362216 8.54972V7.43608L6.96449 4.23438V5.75071L2.09233 7.97301L2.13707 7.88352V8.0973L2.09233 8.01278L6.96449 10.2301V11.7514L0.362216 8.54972ZM16.3133 7.576H17.4893V12.7H16.3133V7.576ZM21.9413 0.436H23.0893V13.106H21.9413V0.436ZM12.8133 8.304L12.6593 7.324C15.1653 7.324 18.2873 7.31 21.0593 6.988L21.1293 7.856C18.2873 8.276 15.2633 8.318 12.8133 8.304ZM13.8493 4.776H20.1073V5.728H13.8493V4.776ZM13.8493 1.136H19.9533V2.088H15.0113V5.308H13.8493V1.136ZM25.6082 10.572H37.0742V11.538H25.6082V10.572ZM30.7322 7.856H31.8942V10.978H30.7322V7.856ZM26.9942 1.374H35.6602V5.21H28.1842V7.744H27.0362V4.272H34.5122V2.312H26.9942V1.374ZM27.0362 7.254H35.9542V8.206H27.0362V7.254Z" fill="#222222"/>
</svg>
