<svg width="24" height="24" viewBox="0 0 24 24" fill="none" xmlns="http://www.w3.org/2000/svg">
    <path d="M11.2661 10.1831L7.42682 6.24923C7.2701 6.0896 7.0581 6 6.83712 6C6.61614 6 6.40414 6.0896 6.24742 6.24923C6.16902 6.3289 6.10679 6.42369 6.06433 6.52813C6.02186 6.63257 6 6.7446 6 6.85774C6 6.97088 6.02186 7.0829 6.06433 7.18734C6.10679 7.29179 6.16902 7.38658 6.24742 7.46625L10.0951 11.3916C10.1735 11.4713 10.2357 11.5661 10.2782 11.6705C10.3207 11.7749 10.3425 11.887 10.3425 12.0001C10.3425 12.1132 10.3207 12.2253 10.2782 12.3297C10.2357 12.4341 10.1735 12.5289 10.0951 12.6086L6.24742 16.5339C6.08991 16.6942 6.00099 16.912 6.0002 17.1394C5.99942 17.3669 6.08684 17.5853 6.24324 17.7467C6.39964 17.9081 6.6122 17.9992 6.83416 18C7.05613 18.0008 7.26931 17.9112 7.42682 17.751L11.2661 13.8171C11.736 13.335 12 12.6815 12 12.0001C12 11.3187 11.736 10.6652 11.2661 10.1831Z"
          fill="#959291"/>
    <path d="M17.2661 10.1831L13.4268 6.24923C13.2701 6.0896 13.0581 6 12.8371 6C12.6161 6 12.4041 6.0896 12.2474 6.24923C12.169 6.3289 12.1068 6.42369 12.0643 6.52813C12.0219 6.63257 12 6.7446 12 6.85774C12 6.97088 12.0219 7.0829 12.0643 7.18734C12.1068 7.29179 12.169 7.38658 12.2474 7.46625L16.0951 11.3916C16.1735 11.4713 16.2357 11.5661 16.2782 11.6705C16.3207 11.7749 16.3425 11.887 16.3425 12.0001C16.3425 12.1132 16.3207 12.2253 16.2782 12.3297C16.2357 12.4341 16.1735 12.5289 16.0951 12.6086L12.2474 16.5339C12.0899 16.6942 12.001 16.912 12.0002 17.1394C11.9994 17.3669 12.0868 17.5853 12.2432 17.7467C12.3996 17.9081 12.6122 17.9992 12.8342 18C13.0561 18.0008 13.2693 17.9112 13.4268 17.751L17.2661 13.8171C17.736 13.335 18 12.6815 18 12.0001C18 11.3187 17.736 10.6652 17.2661 10.1831Z"
          fill="#959291"/>
</svg>
