<svg width="16" height="16" viewBox="0 0 16 16" fill="none" xmlns="http://www.w3.org/2000/svg">
<path fill-rule="evenodd" clip-rule="evenodd" d="M11 7C11 9.20915 9.20915 11 7 11C4.79086 11 3 9.20915 3 7C3 4.79086 4.79086 3 7 3C9.20915 3 11 4.79086 11 7ZM10.8715 10.1644C11.5768 9.30244 12 8.20064 12 7C12 4.23857 9.76144 2 7 2C4.23857 2 2 4.23857 2 7C2 9.76144 4.23857 12 7 12C8.20064 12 9.30244 11.5768 10.1644 10.8715L13.1464 13.8536C13.3417 14.0488 13.6583 14.0488 13.8536 13.8536C14.0488 13.6583 14.0488 13.3417 13.8536 13.1464L10.8715 10.1644Z" fill="white"/>
</svg>
