<svg width="24" height="24" viewBox="0 0 24 24" fill="none" xmlns="http://www.w3.org/2000/svg">
<path d="M14.3219 10.1831L10.388 6.24923C10.2274 6.0896 10.0102 6 9.78377 6C9.55735 6 9.34012 6.0896 9.17954 6.24923C9.09921 6.3289 9.03545 6.42369 8.99194 6.52813C8.94843 6.63257 8.92603 6.7446 8.92603 6.85774C8.92603 6.97088 8.94843 7.0829 8.99194 7.18734C9.03545 7.29179 9.09921 7.38658 9.17954 7.46625L13.122 11.3916C13.2023 11.4713 13.2661 11.5661 13.3096 11.6705C13.3531 11.7749 13.3755 11.887 13.3755 12.0001C13.3755 12.1132 13.3531 12.2253 13.3096 12.3297C13.2661 12.4341 13.2023 12.5289 13.122 12.6086L9.17954 16.5339C9.01815 16.6942 8.92704 16.912 8.92623 17.1394C8.92543 17.3669 9.01501 17.5853 9.17526 17.7467C9.33551 17.9081 9.55331 17.9992 9.78074 18C10.0082 18.0008 10.2266 17.9112 10.388 17.751L14.3219 13.8171C14.8034 13.335 15.0739 12.6815 15.0739 12.0001C15.0739 11.3187 14.8034 10.6652 14.3219 10.1831Z" fill="#959291"/>
</svg>
