<svg width="60" height="60" viewBox="0 0 60 60" fill="none" xmlns="http://www.w3.org/2000/svg">
<path d="M25.0754 9.14762C27.2154 5.27762 32.7779 5.27762 34.9179 9.14762L54.2829 44.1501C56.3579 47.9001 53.6454 52.5001 49.3604 52.5001H10.6354C6.34792 52.5001 3.63542 47.9001 5.71042 44.1501L25.0754 9.14762ZM32.4929 42.5001C32.5035 42.1657 32.4468 41.8325 32.3261 41.5204C32.2054 41.2083 32.0232 40.9236 31.7904 40.6833C31.5575 40.4429 31.2788 40.2519 30.9706 40.1214C30.6625 39.9909 30.3313 39.9236 29.9967 39.9236C29.662 39.9236 29.3308 39.9909 29.0227 40.1214C28.7146 40.2519 28.4358 40.4429 28.203 40.6833C27.9701 40.9236 27.7879 41.2083 27.6673 41.5204C27.5466 41.8325 27.4898 42.1657 27.5004 42.5001C27.5209 43.1485 27.7929 43.7634 28.2588 44.2148C28.7247 44.6662 29.348 44.9186 29.9967 44.9186C30.6454 44.9186 31.2686 44.6662 31.7345 44.2148C32.2004 43.7634 32.4724 43.1485 32.4929 42.5001ZM31.8454 22.8676C31.7806 22.3968 31.5395 21.9681 31.1707 21.6683C30.8019 21.3685 30.333 21.2199 29.8589 21.2526C29.3847 21.2853 28.9407 21.4969 28.6166 21.8445C28.2925 22.1921 28.1124 22.6498 28.1129 23.1251L28.1229 34.3776L28.1404 34.6326C28.2052 35.1035 28.4464 35.5321 28.8152 35.8319C29.1839 36.1317 29.6528 36.2803 30.127 36.2476C30.6011 36.2149 31.0452 36.0033 31.3693 35.6557C31.6934 35.3081 31.8734 34.8504 31.8729 34.3751L31.8629 23.1201L31.8454 22.8676Z" fill="#FFB155"/>
</svg>
