<svg width="24" height="24" viewBox="0 0 24 24" fill="none" xmlns="http://www.w3.org/2000/svg">
<path d="M7.91327 12.6089C7.83487 12.5292 7.77264 12.4344 7.73017 12.33C7.68771 12.2255 7.66585 12.1135 7.66585 12.0003C7.66585 11.8872 7.68771 11.7752 7.73017 11.6707C7.77264 11.5663 7.83487 11.4715 7.91327 11.3918L11.7526 7.46631C11.831 7.38663 11.8932 7.29184 11.9357 7.18739C11.9781 7.08295 12 6.97092 12 6.85777C12 6.74463 11.9781 6.6326 11.9357 6.52815C11.8932 6.42371 11.831 6.32891 11.7526 6.24924C11.5959 6.0896 11.3839 6 11.1629 6C10.9419 6 10.7299 6.0896 10.5732 6.24924L6.73387 10.1833C6.26395 10.6654 6 11.3189 6 12.0003C6 12.6817 6.26395 13.3353 6.73387 13.8174L10.5732 17.7514C10.729 17.9098 10.9393 17.999 11.1587 18C11.2688 18.0006 11.3779 17.979 11.4798 17.9364C11.5817 17.8937 11.6744 17.8309 11.7526 17.7514C11.831 17.6717 11.8932 17.577 11.9357 17.4725C11.9781 17.3681 12 17.256 12 17.1429C12 17.0297 11.9781 16.9177 11.9357 16.8133C11.8932 16.7088 11.831 16.614 11.7526 16.5344L7.91327 12.6089Z" fill="#959291"/>
<path d="M13.9133 12.6089C13.8349 12.5292 13.7726 12.4344 13.7302 12.33C13.6877 12.2255 13.6658 12.1135 13.6658 12.0003C13.6658 11.8872 13.6877 11.7752 13.7302 11.6707C13.7726 11.5663 13.8349 11.4715 13.9133 11.3918L17.7526 7.46631C17.831 7.38663 17.8932 7.29184 17.9357 7.18739C17.9781 7.08295 18 6.97092 18 6.85777C18 6.74463 17.9781 6.6326 17.9357 6.52815C17.8932 6.42371 17.831 6.32891 17.7526 6.24924C17.5959 6.0896 17.3839 6 17.1629 6C16.9419 6 16.7299 6.0896 16.5732 6.24924L12.7339 10.1833C12.2639 10.6654 12 11.3189 12 12.0003C12 12.6817 12.2639 13.3353 12.7339 13.8174L16.5732 17.7514C16.729 17.9098 16.9393 17.999 17.1587 18C17.2688 18.0006 17.3779 17.979 17.4798 17.9364C17.5817 17.8937 17.6744 17.8309 17.7526 17.7514C17.831 17.6717 17.8932 17.577 17.9357 17.4725C17.9781 17.3681 18 17.256 18 17.1429C18 17.0297 17.9781 16.9177 17.9357 16.8133C17.8932 16.7088 17.831 16.614 17.7526 16.5344L13.9133 12.6089Z" fill="#959291"/>
</svg>
