<svg width="21" height="20" viewBox="0 0 21 20" fill="none" xmlns="http://www.w3.org/2000/svg">
<path d="M18.8333 5.4165H13.8333" stroke="#383B40" stroke-width="1.5" stroke-miterlimit="10" stroke-linecap="round" stroke-linejoin="round"/>
<path d="M5.50008 5.4165H2.16675" stroke="#383B40" stroke-width="1.5" stroke-miterlimit="10" stroke-linecap="round" stroke-linejoin="round"/>
<path d="M8.83341 8.33333C10.4442 8.33333 11.7501 7.0275 11.7501 5.41667C11.7501 3.80584 10.4442 2.5 8.83341 2.5C7.22258 2.5 5.91675 3.80584 5.91675 5.41667C5.91675 7.0275 7.22258 8.33333 8.83341 8.33333Z" stroke="#383B40" stroke-width="1.5" stroke-miterlimit="10" stroke-linecap="round" stroke-linejoin="round"/>
<path d="M18.8333 14.5835H15.5" stroke="#383B40" stroke-width="1.5" stroke-miterlimit="10" stroke-linecap="round" stroke-linejoin="round"/>
<path d="M7.16675 14.5835H2.16675" stroke="#383B40" stroke-width="1.5" stroke-miterlimit="10" stroke-linecap="round" stroke-linejoin="round"/>
<path d="M12.1667 17.4998C13.7775 17.4998 15.0833 16.194 15.0833 14.5832C15.0833 12.9723 13.7775 11.6665 12.1667 11.6665C10.5558 11.6665 9.25 12.9723 9.25 14.5832C9.25 16.194 10.5558 17.4998 12.1667 17.4998Z" stroke="#383B40" stroke-width="1.5" stroke-miterlimit="10" stroke-linecap="round" stroke-linejoin="round"/>
</svg>
