<svg width="20" height="21" viewBox="0 0 20 21" fill="none" xmlns="http://www.w3.org/2000/svg">
<path d="M3.26512 16.7742C3.26512 16.7742 3.33953 16.7742 3.36744 16.7742L6.09302 16.5189C6.47442 16.4811 6.82791 16.3109 7.09767 16.0366L17.386 5.57801C17.8698 5.08629 18.1395 4.43381 18.1395 3.7435C18.1395 3.05319 17.8698 2.40071 17.386 1.90898L16.7256 1.23759C15.7581 0.254137 14.0744 0.254137 13.107 1.23759L11.7953 2.57092L2.82791 11.6868C2.55814 11.961 2.3907 12.3203 2.36279 12.708L2.11163 15.4787C2.08372 15.8286 2.20465 16.169 2.44651 16.4244C2.66977 16.6513 2.95814 16.7742 3.26512 16.7742ZM14.9209 1.89007C15.2186 1.89007 15.5163 2.00355 15.7395 2.23995L16.4 2.91135C16.6233 3.1383 16.7442 3.43144 16.7442 3.7435C16.7442 4.05556 16.6233 4.35816 16.4 4.57565L15.5814 5.4078L13.2837 3.0721L14.1023 2.23995C14.3256 2.013 14.6233 1.89007 14.9209 1.89007ZM3.74884 12.8404C3.74884 12.7837 3.77674 12.7364 3.81395 12.6986L12.2884 4.07447L14.586 6.41017L6.11163 15.0248C6.11163 15.0248 6.0186 15.091 5.97209 15.091L3.52558 15.318L3.74884 12.831V12.8404ZM20 19.7908C20 20.1785 19.6837 20.5 19.3023 20.5H0.697674C0.316279 20.5 0 20.1785 0 19.7908C0 19.4031 0.316279 19.0816 0.697674 19.0816H19.3023C19.6837 19.0816 20 19.4031 20 19.7908Z" fill="#BEC0C6"/>
</svg>
