<svg width="13" height="12" viewBox="0 0 13 12" fill="none" xmlns="http://www.w3.org/2000/svg">
<g clip-path="url(#clip0_7168_4918)">
<path d="M11.2607 0.873051H8.51415L8.29899 0.445035C8.20604 0.258402 8.0154 0.140465 7.8069 0.140629H5.1908C4.98268 0.139832 4.79241 0.258074 4.70101 0.445035L4.48585 0.873051H1.73926C1.53702 0.873051 1.37305 1.03702 1.37305 1.23926V1.97168C1.37305 2.17393 1.53702 2.33789 1.73926 2.33789H11.2607C11.463 2.33789 11.627 2.17393 11.627 1.97168V1.23926C11.627 1.03702 11.463 0.873051 11.2607 0.873051Z" fill="#EA5D5F"/>
<path d="M2.5907 11.097C2.62695 11.6759 3.107 12.1269 3.68703 12.127H9.31297C9.893 12.1269 10.3731 11.6759 10.4093 11.097L10.8945 3.33789H2.10547L2.5907 11.097Z" fill="#EA5D5F"/>
</g>
<defs>
<clipPath id="clip0_7168_4918">
<rect width="12" height="12" fill="white" transform="translate(0.5)"/>
</clipPath>
</defs>
</svg>
