<svg width="24" height="24" viewBox="0 0 24 24" fill="none" xmlns="http://www.w3.org/2000/svg">
<path d="M10.8865 12.6089C10.8062 12.5292 10.7424 12.4344 10.6989 12.33C10.6554 12.2255 10.633 12.1135 10.633 12.0003C10.633 11.8872 10.6554 11.7752 10.6989 11.6707C10.7424 11.5663 10.8062 11.4715 10.8865 11.3918L14.8206 7.46631C14.9009 7.38663 14.9647 7.29184 15.0082 7.18739C15.0517 7.08295 15.0741 6.97092 15.0741 6.85777C15.0741 6.74463 15.0517 6.6326 15.0082 6.52815C14.9647 6.42371 14.9009 6.32891 14.8206 6.24924C14.66 6.0896 14.4427 6 14.2163 6C13.9899 6 13.7726 6.0896 13.6121 6.24924L9.678 10.1833C9.19649 10.6654 8.92603 11.3189 8.92603 12.0003C8.92603 12.6817 9.19649 13.3353 9.678 13.8174L13.6121 17.7514C13.7717 17.9098 13.9872 17.999 14.212 18C14.3248 18.0006 14.4366 17.979 14.5411 17.9364C14.6455 17.8937 14.7405 17.8309 14.8206 17.7514C14.9009 17.6717 14.9647 17.577 15.0082 17.4725C15.0517 17.3681 15.0741 17.256 15.0741 17.1429C15.0741 17.0297 15.0517 16.9177 15.0082 16.8133C14.9647 16.7088 14.9009 16.614 14.8206 16.5344L10.8865 12.6089Z" fill="#959291"/>
</svg>
