<svg width="16" height="16" viewBox="0 0 16 16" fill="none" xmlns="http://www.w3.org/2000/svg">
<g clip-path="url(#clip0_9325_5929)">
<path d="M2.89656 6.74976C3.09125 6.94477 3.40875 6.94477 3.60344 6.74976L4.25 6.1032C4.445 5.90851 4.445 5.59102 4.25 5.39633L3.60344 4.74976H12.5C13.3272 4.74976 14 5.42258 14 6.24976C14 6.6632 14.3366 6.99976 14.75 6.99976H15.25C15.6634 6.99976 16 6.6632 16 6.24976C16 4.31977 14.43 2.74977 12.5 2.74977H3.60344L4.25 2.1032C4.445 1.90852 4.445 1.59102 4.25 1.39633L3.60344 0.749766C3.40875 0.554766 3.09125 0.554766 2.89656 0.749766L0.073125 3.57289C-0.024375 3.6707 -0.024375 3.82883 0.073125 3.92664L2.89656 6.74976Z" fill="#7A7C7F"/>
<path d="M13.1034 9.25C12.9087 9.055 12.5916 9.055 12.3966 9.25L11.75 9.89656C11.5546 10.0919 11.5543 10.4078 11.75 10.6034L12.3966 11.25H3.5C2.67281 11.25 2 10.5772 2 9.75C2 9.33656 1.66344 9 1.25 9H0.75C0.336563 9 0 9.33656 0 9.75C0 11.68 1.57 13.25 3.5 13.25H12.3966L11.75 13.8966C11.5546 14.0919 11.5543 14.4078 11.75 14.6034L12.3966 15.25C12.5916 15.445 12.9084 15.445 13.1034 15.25L15.9269 12.4269C16.0244 12.3291 16.0244 12.1709 15.9269 12.0731L13.1034 9.25Z" fill="#7A7C7F"/>
</g>
<defs>
<clipPath id="clip0_9325_5929">
<rect width="16" height="16" fill="white"/>
</clipPath>
</defs>
</svg>
