<svg width="18" height="20" viewBox="0 0 18 20" fill="none" xmlns="http://www.w3.org/2000/svg">
<path d="M17.6755 4.41328L15.5775 2.31406C15.2726 2.00895 14.7782 2.00895 14.4733 2.31406C14.1684 2.61918 14.1684 3.11383 14.4733 3.41891L14.9702 3.91609L13.9512 4.9357C12.6247 3.82844 11.0119 3.16 9.2914 3.00441V1.5625H9.99411C10.4253 1.5625 10.7749 1.21273 10.7749 0.78125C10.7749 0.349766 10.4253 0 9.99411 0H7.02711C6.59588 0 6.24632 0.349766 6.24632 0.78125C6.24632 1.21273 6.59588 1.5625 7.02711 1.5625H7.72982V3.00441C3.44625 3.39176 0 6.99094 0 11.4844C0 16.1907 3.80639 20 8.51061 20C13.2142 20 17.0212 16.1914 17.0212 11.4844C17.0212 9.47223 16.328 7.56695 15.0554 6.04055L16.0744 5.02094L16.5713 5.51813C16.8762 5.8232 17.3706 5.82324 17.6755 5.51813C17.9804 5.21305 17.9804 4.7184 17.6755 4.41328ZM8.51061 18.4375C4.67892 18.4375 1.56158 15.3183 1.56158 11.4844C1.56158 7.65043 4.67892 4.53125 8.51061 4.53125C12.3423 4.53125 15.4596 7.65043 15.4596 11.4844C15.4596 15.3183 12.3423 18.4375 8.51061 18.4375ZM12.5677 11.4844C12.5677 11.9159 12.2182 12.2656 11.7869 12.2656H8.51065C8.07942 12.2656 7.72986 11.9159 7.72986 11.4844V6.8877C7.72986 6.45621 8.07942 6.10645 8.51065 6.10645C8.94188 6.10645 9.29144 6.45621 9.29144 6.8877V10.7031H11.7869C12.2182 10.7031 12.5677 11.0529 12.5677 11.4844Z" fill="#383B40"/>
</svg>
