<svg width="16" height="17" viewBox="0 0 16 17" fill="none" xmlns="http://www.w3.org/2000/svg">
<g clip-path="url(#clip0_1730_6095)">
<path d="M16 8.5C16 10.6217 15.1571 12.6566 13.6569 14.1569C12.1566 15.6571 10.1217 16.5 8 16.5C5.87827 16.5 3.84344 15.6571 2.34315 14.1569C0.842855 12.6566 0 10.6217 0 8.5C0 6.37827 0.842855 4.34344 2.34315 2.84315C3.84344 1.34285 5.87827 0.5 8 0.5C10.1217 0.5 12.1566 1.34285 13.6569 2.84315C15.1571 4.34344 16 6.37827 16 8.5ZM5.496 6.533H6.321C6.459 6.533 6.569 6.42 6.587 6.283C6.677 5.627 7.127 5.149 7.929 5.149C8.615 5.149 9.243 5.492 9.243 6.317C9.243 6.952 8.869 7.244 8.278 7.688C7.605 8.177 7.072 8.748 7.11 9.675L7.113 9.892C7.11405 9.95761 7.14085 10.0202 7.18762 10.0662C7.23439 10.1122 7.29738 10.138 7.363 10.138H8.174C8.2403 10.138 8.30389 10.1117 8.35078 10.0648C8.39766 10.0179 8.424 9.9543 8.424 9.888V9.783C8.424 9.065 8.697 8.856 9.434 8.297C10.043 7.834 10.678 7.32 10.678 6.241C10.678 4.73 9.402 4 8.005 4C6.738 4 5.35 4.59 5.255 6.286C5.25363 6.31829 5.25888 6.35053 5.27043 6.38072C5.28198 6.41091 5.29958 6.43841 5.32216 6.46155C5.34473 6.48468 5.3718 6.50296 5.40169 6.51524C5.43159 6.52753 5.46368 6.53357 5.496 6.533ZM7.821 12.976C8.431 12.976 8.85 12.582 8.85 12.049C8.85 11.497 8.43 11.109 7.821 11.109C7.237 11.109 6.812 11.497 6.812 12.049C6.812 12.582 7.236 12.976 7.821 12.976Z" fill="#C9C9C9"/>
</g>
<defs>
<clipPath id="clip0_1730_6095">
<rect width="16" height="16" fill="white" transform="translate(0 0.5)"/>
</clipPath>
</defs>
</svg>
