<svg width="20" height="20" viewBox="0 0 20 20" fill="none" xmlns="http://www.w3.org/2000/svg">
<path d="M9.9999 3.875C6.01657 3.875 2.7749 7.11667 2.7749 11.1C2.7749 15.0833 6.01657 18.3333 9.9999 18.3333C13.9832 18.3333 17.2249 15.0917 17.2249 11.1083C17.2249 7.125 13.9832 3.875 9.9999 3.875ZM10.6249 10.8333C10.6249 11.175 10.3416 11.4583 9.9999 11.4583C9.65824 11.4583 9.3749 11.175 9.3749 10.8333V6.66667C9.3749 6.325 9.65824 6.04167 9.9999 6.04167C10.3416 6.04167 10.6249 6.325 10.6249 6.66667V10.8333Z" fill="#383B40"/>
<path d="M12.4084 2.87484H7.5917C7.25837 2.87484 6.9917 2.60817 6.9917 2.27484C6.9917 1.9415 7.25837 1.6665 7.5917 1.6665H12.4084C12.7417 1.6665 13.0084 1.93317 13.0084 2.2665C13.0084 2.59984 12.7417 2.87484 12.4084 2.87484Z" fill="#383B40"/>
</svg>
