<svg width="105" height="51" viewBox="0 0 105 51" fill="none" xmlns="http://www.w3.org/2000/svg">
<g clip-path="url(#clip0_285_28142)">
<path d="M37.8451 0C36.6434 0 35.6758 0.950698 35.6758 2.13162V2.87827C36.3777 2.83958 37.0837 2.81237 37.7927 2.80734C38.0557 2.80579 38.3188 2.80579 38.5818 2.80734C42.7992 2.84203 47.1238 3.38619 51.4833 3.96504C57.2711 4.73285 63.1522 5.56566 69.0364 5.51588V2.13162C69.0364 0.950698 68.0664 0 66.8651 0H37.8451Z" fill="#8538FF"/>
<path d="M38.6084 4.88879C37.6173 4.87976 36.6391 4.89988 35.6757 4.9574V12.1932L0.012207 15.4605C0.012207 15.4605 38.0393 14.7818 39.2006 14.4675C40.4598 14.1268 41.7979 13.812 43.2037 13.5445C44.61 13.2769 46.0829 13.0553 47.6129 12.901C49.1417 12.7464 50.7269 12.6592 52.3548 12.6592C54.0205 12.6592 55.6273 12.7429 57.1695 12.8925C58.7101 13.0427 60.1872 13.2573 61.5895 13.5173C62.9907 13.7792 64.3175 14.0851 65.5613 14.4165C66.7103 14.7249 104.988 15.3899 104.988 15.3899L69.0363 12.1383V7.59281C62.8245 7.64569 56.7732 6.76709 51.0269 6.00277C46.6869 5.42688 42.5387 4.92464 38.6084 4.88879Z" fill="#8538FF"/>
<path d="M0 35.5391L35.6758 38.8058V43.4041C36.1142 43.3982 36.5515 43.3967 36.9889 43.3996C42.8351 43.4455 48.5307 44.2763 53.954 44.9963C59.2871 45.7037 64.33 46.2976 69.0364 46.0543V38.8602L105 35.6086C105 35.6086 66.7113 36.2746 65.5615 36.5815C64.3176 36.9135 62.9908 37.2208 61.5896 37.4808C60.1873 37.7407 58.7102 37.9564 57.1696 38.106C55.6274 38.2561 54.0207 38.3398 52.355 38.3398C50.7271 38.3398 49.1418 38.2537 47.613 38.099C46.0831 37.9448 44.6102 37.7232 43.2038 37.4545C41.798 37.187 40.4599 36.8727 39.2007 36.5321C26.1449 35.9477 0 35.5391 0 35.5391Z" fill="#8538FF"/>
<path d="M36.9786 45.4791C36.5449 45.4746 36.1096 45.4807 35.6758 45.4857V48.8684C35.6758 50.0498 36.6434 51 37.8451 51H66.8651C68.0664 51 69.0364 50.0498 69.0364 48.8684V48.1424C63.9935 48.3847 58.7722 47.7359 53.4977 47.0365C48.0487 46.3124 42.5172 45.5271 36.9786 45.4791Z" fill="#8538FF"/>
<path d="M9.22277 24.4734L7.81695 26.8177H4.26848C3.65685 26.8177 3.08985 26.6998 2.56695 26.463C2.04655 26.2267 1.59793 25.9022 1.21954 25.4901C0.843245 25.076 0.547408 24.5847 0.332552 24.017C0.11927 23.4497 0.0126953 22.8345 0.0126953 22.1724C0.0126953 21.5104 0.11927 20.9048 0.332552 20.3548C0.547408 19.8061 0.843245 19.3339 1.21954 18.9395C1.59793 18.5435 2.04655 18.2391 2.56695 18.0276C3.08985 17.8134 3.65685 17.7061 4.26848 17.7061H9.22277L7.81695 20.0746H4.26848C3.97316 20.0746 3.69846 20.1305 3.44357 20.2403C3.19078 20.3482 2.97343 20.5002 2.79047 20.6963C2.60685 20.8903 2.46235 21.1235 2.35721 21.3956C2.25156 21.6681 2.19932 21.9679 2.19932 22.2945C2.19932 22.6233 2.24906 22.9217 2.35052 23.1897C2.45355 23.4558 2.59819 23.6844 2.78378 23.8753C2.97094 24.0669 3.19078 24.2149 3.44357 24.3177C3.69846 24.4216 3.97316 24.4734 4.26848 24.4734H9.22277Z" fill="#8538FF"/>
<path d="M12.9463 26.8169L14.2664 24.4726H16.7007C16.9288 24.4726 17.1288 24.4827 17.2985 24.5029C17.2001 24.3391 17.0858 24.1311 16.955 23.8811C16.8243 23.6313 16.6991 23.3969 16.5802 23.1783L15.3118 20.7695L11.9942 26.8169H9.40869L13.9398 18.5774C14.0859 18.3139 14.2715 18.0771 14.4971 17.8675C14.7238 17.6584 15.0093 17.5537 15.3529 17.5537C15.6845 17.5537 15.9613 17.6513 16.1813 17.8474C16.4034 18.0433 16.592 18.2867 16.7488 18.5774L21.1632 26.8169H12.9463Z" fill="#8538FF"/>
<path d="M31.9481 26.8177H29.0226L27.4481 24.406H24.0889V26.8177H21.9028V22.1589H28.0495C28.3884 22.1589 28.6735 22.0696 28.9057 21.8888C29.1396 21.7064 29.2564 21.4566 29.2564 21.1387C29.2564 20.7835 29.1498 20.5169 28.9365 20.3416C28.7252 20.1642 28.4294 20.0746 28.0495 20.0746H21.9028L23.3297 17.7061H27.8712C28.2715 17.7061 28.6868 17.7535 29.1154 17.8482C29.546 17.9429 29.9368 18.1132 30.2875 18.3586C30.6401 18.6044 30.9314 18.936 31.1611 19.3552C31.3897 19.7723 31.5051 20.3068 31.5051 20.9598C31.5051 21.3134 31.4615 21.6505 31.3774 21.9699C31.2923 22.2874 31.1713 22.5736 31.0129 22.8279C30.855 23.0829 30.6606 23.2991 30.432 23.4769C30.2028 23.6522 29.944 23.7762 29.6552 23.8481C29.7738 23.9656 29.907 24.1152 30.0541 24.2976C30.2028 24.48 30.4013 24.7298 30.6489 25.0472L31.9481 26.8177Z" fill="#8538FF"/>
<path d="M41.6862 22.1724C41.6862 22.8345 41.578 23.4497 41.3628 24.017C41.1474 24.5847 40.8515 25.076 40.4758 25.4901C40.0995 25.9022 39.6509 26.2267 39.1284 26.463C38.6074 26.6998 38.042 26.8177 37.4299 26.8177H32.6992V21.1387H34.8966V24.4734H37.4299C37.7323 24.4734 38.0117 24.4216 38.2691 24.3177C38.5249 24.2149 38.7449 24.0669 38.929 23.8753C39.112 23.6844 39.2566 23.4558 39.3621 23.1897C39.4667 22.9217 39.52 22.6233 39.52 22.2945C39.52 21.9765 39.4667 21.6818 39.3621 21.4091C39.2566 21.1371 39.1084 20.9038 38.9186 20.7098C38.7279 20.5139 38.506 20.3603 38.2516 20.2469C37.999 20.132 37.7257 20.0746 37.4299 20.0746H32.6992L34.0917 17.7061H37.4299C38.0487 17.7061 38.6177 17.8159 39.1386 18.034C39.6611 18.2502 40.1097 18.5571 40.4865 18.953C40.8618 19.3476 41.155 19.8196 41.3663 20.3688C41.5796 20.9185 41.6862 21.5196 41.6862 22.1724Z" fill="#8538FF"/>
<path d="M46.8774 21.3281L45.8115 23.0851H42.2847L43.35 21.3281H46.8774Z" fill="#8538FF"/>
<path d="M54.2411 21.3417C55.1074 21.3417 55.7647 21.5492 56.2144 21.9634C56.6655 22.3751 56.8917 22.9992 56.8917 23.8346C56.8917 24.2992 56.8347 24.7163 56.7235 25.0881C56.6107 25.46 56.4312 25.7732 56.1836 26.0272C55.9375 26.2822 55.6233 26.4786 55.2382 26.6152C54.8547 26.7501 54.3969 26.8177 53.8632 26.8177H47.2827L48.6855 24.4734H54.0313C54.2903 24.4734 54.4789 24.4216 54.5983 24.3177C54.7199 24.2149 54.7809 24.0442 54.7809 23.8079C54.7809 23.5711 54.7199 23.4038 54.5983 23.3046C54.4789 23.2028 54.2903 23.1524 54.0313 23.1524H50.1882C49.7288 23.1524 49.3335 23.09 49.0018 22.9629C48.6716 22.8345 48.3978 22.6582 48.1805 22.433C47.9621 22.2057 47.7996 21.9311 47.6918 21.6082C47.5862 21.2867 47.5339 20.9296 47.5339 20.5376C47.5339 20.1119 47.5923 19.7249 47.7093 19.3753C47.8262 19.0241 48.0056 18.7268 48.2491 18.4835C48.4911 18.2381 48.8039 18.0477 49.1874 17.9122C49.5724 17.7756 50.0317 17.7061 50.5661 17.7061H56.7025L55.2967 20.0746H50.3978C50.143 20.0746 49.9539 20.1209 49.8303 20.2131C49.7082 20.3033 49.6482 20.4666 49.6482 20.7029C49.6482 20.9376 49.7082 21.1033 49.8303 21.1996C49.9539 21.2944 50.143 21.3417 50.3978 21.3417H54.2411Z" fill="#8538FF"/>
<path d="M66.0537 24.4734L64.6514 26.8177H57.8511V17.7061H66.0331L64.6202 20.0746H60.0479V21.1659H65.645L64.3863 23.2365H60.0479V24.4734H66.0537Z" fill="#8538FF"/>
<path d="M75.777 24.4734L74.3712 26.8177H70.8232C70.211 26.8177 69.6441 26.6998 69.1212 26.463C68.6002 26.2267 68.1516 25.9022 67.7737 25.4901C67.3969 25.076 67.1016 24.5847 66.8868 24.017C66.6735 23.4497 66.5669 22.8345 66.5669 22.1724C66.5669 21.5104 66.6735 20.9048 66.8868 20.3548C67.1016 19.8061 67.3969 19.3339 67.7737 18.9395C68.1516 18.5435 68.6002 18.2391 69.1212 18.0276C69.6441 17.8134 70.211 17.7061 70.8232 17.7061H75.777L74.3712 20.0746H70.8232C70.5275 20.0746 70.2527 20.1305 69.9978 20.2403C69.7451 20.3482 69.5276 20.5002 69.3447 20.6963C69.1611 20.8903 69.0165 21.1235 68.9114 21.3956C68.8058 21.6681 68.7535 21.9679 68.7535 22.2945C68.7535 22.6233 68.8033 22.9217 68.9047 23.1897C69.0077 23.4558 69.1524 23.6844 69.338 23.8753C69.5251 24.0669 69.7451 24.2149 69.9978 24.3177C70.2527 24.4216 70.5275 24.4734 70.8232 24.4734H75.777Z" fill="#8538FF"/>
<path d="M86.535 26.8177H83.609L82.0346 24.406H78.676V26.8177H76.4893V22.1589H82.636C82.9748 22.1589 83.2604 22.0696 83.4922 21.8888C83.726 21.7064 83.8429 21.4566 83.8429 21.1387C83.8429 20.7835 83.7362 20.5169 83.5229 20.3416C83.3118 20.1642 83.0165 20.0746 82.636 20.0746H76.4893L77.9161 17.7061H82.4576C82.858 17.7061 83.2733 17.7535 83.7018 17.8482C84.1326 17.9429 84.5237 18.1132 84.8744 18.3586C85.2267 18.6044 85.5183 18.936 85.7475 19.3552C85.9763 19.7723 86.0911 20.3068 86.0911 20.9598C86.0911 21.3134 86.0485 21.6505 85.9639 21.9699C85.8788 22.2874 85.7579 22.5736 85.5998 22.8279C85.4414 23.0829 85.2472 23.2991 85.0185 23.4769C84.7894 23.6522 84.5304 23.7762 84.2418 23.8481C84.3602 23.9656 84.4935 24.1152 84.6407 24.2976C84.7894 24.48 84.9877 24.7298 85.2354 25.0472L86.535 26.8177Z" fill="#8538FF"/>
<path d="M95.4887 24.4734L94.0861 26.8177H87.2861V17.7061H95.4683L94.0552 20.0746H89.4825V21.1659H95.0796L93.8215 23.2365H89.4825V24.4734H95.4887Z" fill="#8538FF"/>
<path d="M105 17.7061L103.587 20.0746H101.063V26.8177H98.8773V20.0746H95.5591L96.9757 17.7061H105Z" fill="#8538FF"/>
<path d="M31.6199 29.6753L31.5994 30.8406C31.5943 31.1989 31.5733 31.5298 31.5373 31.8337C31.5029 32.138 31.4429 32.4166 31.3584 32.6679C31.2738 32.9184 31.1748 33.0972 31.0631 33.2055C30.9502 33.3133 30.8262 33.3829 30.6914 33.4151C30.5586 33.4459 30.4063 33.462 30.2345 33.462C30.1244 33.462 29.9157 33.4595 29.6086 33.4555L29.3886 32.6951C29.8357 32.7289 30.1525 32.7461 30.3407 32.7461C30.4801 32.7461 30.6032 32.5687 30.7089 32.212C30.8165 31.8543 30.8703 31.4014 30.8703 30.8542L30.8636 30.3711H29.5984C29.4835 31.1167 29.2415 31.741 28.8728 32.2427C28.5062 32.7451 27.9756 33.1597 27.2814 33.4857L26.7451 32.9047C27.4686 32.5667 27.9766 32.2104 28.2679 31.8337C28.5586 31.4553 28.7493 30.9721 28.8386 30.3846H26.9134V29.6753H28.897V28.7256H29.6568V29.6753H31.6199Z" fill="#8538FF"/>
<path d="M37.8338 30.6943H32.6494V31.4072H37.8338V30.6943Z" fill="#8538FF"/>
<path d="M42.656 30.296L42.0377 30.5392C41.9454 30.1674 41.8209 29.856 41.6625 29.6036L42.3156 29.3633C42.4618 29.6253 42.5756 29.9362 42.656 30.296ZM43.3163 30.0798L42.6939 30.3232C42.6047 29.9513 42.4782 29.6405 42.3156 29.3905L42.976 29.1442C43.12 29.4077 43.2338 29.7201 43.3163 30.0798ZM43.5261 31.7283L42.9452 32.3097C42.6673 32.0174 42.3089 31.7419 41.869 31.4854C41.4307 31.2285 41.0456 31.0426 40.7139 30.9277V33.475H39.9541V28.7451H40.7139V30.2384L40.7827 30.1745C41.8157 30.5865 42.7303 31.105 43.5261 31.7283Z" fill="#8538FF"/>
<path d="M46.6263 30.6857L46.3305 31.4217C45.8096 31.0908 45.1447 30.8842 44.333 30.8001L44.6114 30.0876C45.4158 30.2252 46.0876 30.4247 46.6263 30.6857ZM49.5241 30.405C48.9278 31.2656 48.2813 31.9286 47.5851 32.3946C46.8909 32.8592 46.0244 33.2174 44.9862 33.4693L44.5976 32.763C45.6912 32.5317 46.5658 32.1972 47.2242 31.7598C47.8819 31.3231 48.431 30.7124 48.871 29.929L49.5241 30.405ZM47.1933 29.3203L46.915 30.0267C46.3346 29.7223 45.6599 29.536 44.8899 29.4659L45.1683 28.7324C46.0018 28.8931 46.6777 29.089 47.1933 29.3203Z" fill="#8538FF"/>
<path d="M55.4255 30.6943H50.2417V31.4072H55.4255V30.6943Z" fill="#8538FF"/>
<path d="M60.9427 29.6915C60.5664 31.5833 59.4067 32.8605 57.4636 33.5225L56.9412 32.8974C57.9173 32.5799 58.6439 32.1875 59.1206 31.7184C59.5995 31.2508 59.9164 30.7006 60.0727 30.0699H58.103C57.7569 30.5414 57.3365 30.958 56.8412 31.3233L56.2603 30.7656C56.7002 30.4955 57.0735 30.1712 57.3811 29.7927C57.6907 29.4129 57.9245 29.0083 58.0824 28.5801L58.8422 28.8471C58.7187 29.1101 58.631 29.2824 58.5808 29.3635H60.5578L60.9427 29.6915Z" fill="#8538FF"/>
<path d="M67.0533 31.5193C66.4965 32.123 65.8279 32.5864 65.0491 32.9109C64.2718 33.2338 63.4829 33.394 62.6841 33.394V28.7559H63.4434V32.6444C63.8904 32.6106 64.3898 32.4539 64.9425 32.1743C65.4941 31.8931 66.016 31.5006 66.5067 30.9953L67.0533 31.5193Z" fill="#8538FF"/>
<path d="M69.7652 30.9922L69.0711 31.2325C68.9003 30.6945 68.6738 30.2521 68.3901 29.9045L69.1157 29.6445C69.4474 30.1362 69.6638 30.5856 69.7652 30.9922ZM72.0374 29.5668C71.9709 31.1751 71.1234 32.2956 69.4936 32.9284L68.9675 32.3404C69.7898 32.0658 70.3825 31.7106 70.745 31.2728C71.107 30.8335 71.2884 30.3322 71.2884 29.7664C71.2884 29.6833 71.2797 29.5734 71.2644 29.4384L72.0374 29.5668ZM70.8137 30.7292L70.1093 30.9892C69.9785 30.4647 69.7776 30.0163 69.5073 29.6445L70.2297 29.4082C70.4949 29.8742 70.6902 30.315 70.8137 30.7292Z" fill="#8538FF"/>
<path d="M78.5341 31.7625L77.9703 32.3101C77.374 31.7408 76.6161 31.2798 75.6944 30.9281V33.4855H74.9346V28.7627H75.6944V30.2697L75.7943 30.1785C76.9402 30.6157 77.8538 31.1438 78.5341 31.7625Z" fill="#8538FF"/>
<path d="M0.012207 30.6681L23.4864 32.041L23.7695 30.3154L0.012207 30.6681Z" fill="#8538FF"/>
<path d="M104.988 30.6681L81.5136 32.041L81.2305 30.3154L104.988 30.6681Z" fill="#8538FF"/>
</g>
<defs>
<clipPath id="clip0_285_28142">
<rect width="105" height="51" fill="white"/>
</clipPath>
</defs>
</svg>
