<svg width="12" height="12" viewBox="0 0 12 12" fill="none" xmlns="http://www.w3.org/2000/svg">
<path d="M6 2.81701e-05C6.55078 2.81701e-05 7.08203 0.0703407 7.59375 0.210966C8.10547 0.351591 8.58398 0.552763 9.0293 0.814481C9.47461 1.0762 9.87891 1.3887 10.2422 1.75198C10.6055 2.11526 10.918 2.52151 11.1797 2.97073C11.4414 3.41995 11.6426 3.89847 11.7832 4.40628C11.9238 4.91409 11.9961 5.44534 12 6.00003C12 6.55081 11.9297 7.08206 11.7891 7.59378C11.6484 8.1055 11.4473 8.58401 11.1855 9.02933C10.9238 9.47464 10.6113 9.87893 10.248 10.2422C9.88477 10.6055 9.47852 10.918 9.0293 11.1797C8.58008 11.4414 8.10156 11.6426 7.59375 11.7832C7.08594 11.9239 6.55469 11.9961 6 12C5.32812 12 4.68359 11.8926 4.06641 11.6778C3.44922 11.4629 2.88477 11.1621 2.37305 10.7754C1.86133 10.3887 1.41992 9.92386 1.04883 9.38089C0.677734 8.83792 0.402344 8.24417 0.222656 7.59964L0.943359 7.40042C1.09961 7.96683 1.33984 8.4844 1.66406 8.95315C1.98828 9.4219 2.375 9.82815 2.82422 10.1719C3.27344 10.5157 3.76758 10.7793 4.30664 10.9629C4.8457 11.1465 5.41016 11.2422 6 11.25C6.48047 11.25 6.94336 11.1875 7.38867 11.0625C7.83398 10.9375 8.25195 10.7617 8.64258 10.5352C9.0332 10.3086 9.38867 10.0332 9.70898 9.70901C10.0293 9.38479 10.3027 9.03128 10.5293 8.64847C10.7559 8.26565 10.9336 7.84768 11.0625 7.39456C11.1914 6.94143 11.2539 6.47659 11.25 6.00003C11.25 5.51956 11.1875 5.05667 11.0625 4.61136C10.9375 4.16604 10.7617 3.74808 10.5352 3.35745C10.3086 2.96683 10.0332 2.61136 9.70898 2.29104C9.38477 1.97073 9.03125 1.69729 8.64844 1.47073C8.26562 1.24417 7.84766 1.06643 7.39453 0.937528C6.94141 0.808622 6.47656 0.746122 6 0.750028C5.49609 0.750028 5.00586 0.820341 4.5293 0.960966C4.05273 1.10159 3.60938 1.30276 3.19922 1.56448C2.78906 1.8262 2.41602 2.14065 2.08008 2.50784C1.74414 2.87503 1.4707 3.28909 1.25977 3.75003H3V4.50003H0V1.50003H0.75V3.1055C1.01172 2.62503 1.33008 2.19339 1.70508 1.81058C2.08008 1.42776 2.49414 1.10354 2.94727 0.837919C3.40039 0.572294 3.88672 0.365263 4.40625 0.216825C4.92578 0.0683876 5.45703 -0.00387808 6 2.81701e-05Z" fill="#57BA00"/>
</svg>
