<svg width="16" height="16" viewBox="0 0 16 16" fill="none" xmlns="http://www.w3.org/2000/svg">
<path d="M8 0C12.4184 0 16 3.5816 16 8C16 12.4184 12.4184 16 8 16C3.5816 16 0 12.4184 0 8C0 3.5816 3.5816 0 8 0ZM8 10.4C7.78783 10.4 7.58434 10.4843 7.43431 10.6343C7.28429 10.7843 7.2 10.9878 7.2 11.2C7.2 11.4122 7.28429 11.6157 7.43431 11.7657C7.58434 11.9157 7.78783 12 8 12C8.21217 12 8.41566 11.9157 8.56569 11.7657C8.71571 11.6157 8.8 11.4122 8.8 11.2C8.8 10.9878 8.71571 10.7843 8.56569 10.6343C8.41566 10.4843 8.21217 10.4 8 10.4ZM8 3.2C7.80405 3.20003 7.61493 3.27196 7.4685 3.40217C7.32207 3.53238 7.22853 3.7118 7.2056 3.9064L7.2 4V8.8C7.20023 9.0039 7.2783 9.20003 7.41828 9.3483C7.55825 9.49656 7.74956 9.58579 7.95312 9.59774C8.15667 9.60969 8.3571 9.54346 8.51347 9.41259C8.66983 9.28172 8.77032 9.09608 8.7944 8.8936L8.8 8.8V4C8.8 3.78783 8.71571 3.58434 8.56569 3.43431C8.41566 3.28429 8.21217 3.2 8 3.2Z" fill="#7A7C7F"/>
</svg>
