<svg width="24" height="24" viewBox="0 0 24 24" fill="none" xmlns="http://www.w3.org/2000/svg">
<rect x="2.5" y="2.5" width="19" height="19" rx="3.5" stroke="#BEC0C6"/>
<path d="M7.48925 10.7888L10.0488 8.16615C10.1533 8.05973 10.2946 8 10.4419 8C10.5892 8 10.7306 8.05973 10.8351 8.16615C10.8873 8.21927 10.9288 8.28246 10.9571 8.35209C10.9854 8.42172 11 8.4964 11 8.57183C11 8.64725 10.9854 8.72194 10.9571 8.79156C10.9288 8.86119 10.8873 8.92438 10.8351 8.9775L8.26993 11.5944C8.21767 11.6475 8.17618 11.7107 8.14787 11.7803C8.11956 11.85 8.10499 11.9246 8.10499 12.0001C8.10499 12.0755 8.11956 12.1502 8.14787 12.2198C8.17618 12.2894 8.21767 12.3526 8.26993 12.4057L10.8351 15.0226C10.9401 15.1295 10.9993 15.2747 10.9999 15.4263C11.0004 15.5779 10.9421 15.7235 10.8378 15.8311C10.7336 15.9387 10.5919 15.9995 10.4439 16C10.2959 16.0005 10.1538 15.9408 10.0488 15.834L7.48925 13.2114C7.17597 12.89 7 12.4543 7 12.0001C7 11.5458 7.17597 11.1102 7.48925 10.7888Z" fill="#959291"/>
<path d="M16.5108 10.7888L13.9512 8.16615C13.8467 8.05973 13.7054 8 13.5581 8C13.4108 8 13.2694 8.05973 13.1649 8.16615C13.1127 8.21927 13.0712 8.28246 13.0429 8.35209C13.0146 8.42172 13 8.4964 13 8.57183C13 8.64725 13.0146 8.72194 13.0429 8.79156C13.0712 8.86119 13.1127 8.92438 13.1649 8.9775L15.7301 11.5944C15.7823 11.6475 15.8238 11.7107 15.8521 11.7803C15.8804 11.85 15.895 11.9246 15.895 12.0001C15.895 12.0755 15.8804 12.1502 15.8521 12.2198C15.8238 12.2894 15.7823 12.3526 15.7301 12.4057L13.1649 15.0226C13.0599 15.1295 13.0007 15.2747 13.0001 15.4263C12.9996 15.5779 13.0579 15.7235 13.1622 15.8311C13.2664 15.9387 13.4081 15.9995 13.5561 16C13.7041 16.0005 13.8462 15.9408 13.9512 15.834L16.5108 13.2114C16.824 12.89 17 12.4543 17 12.0001C17 11.5458 16.824 11.1102 16.5108 10.7888Z" fill="#959291"/>
</svg>
