<svg width="12" height="12" viewBox="0 0 12 12" fill="none" xmlns="http://www.w3.org/2000/svg">
<path d="M0.428571 7.28577C0.314907 7.28577 0.205898 7.33092 0.125526 7.41129C0.0451529 7.49166 0 7.60067 0 7.71434C0 7.828 0.0451529 7.93701 0.125526 8.01738C0.205898 8.09776 0.314907 8.14291 0.428571 8.14291H2.57143V7.28577H0.428571Z" fill="#57BA00"/>
<path d="M11.1428 0H5.5157L2.57141 2.94V7.28571H5.65713L4.26427 5.89286C4.19406 5.81087 4.15737 5.70541 4.16154 5.59755C4.1657 5.48969 4.21041 5.38737 4.28674 5.31104C4.36307 5.23472 4.46538 5.19 4.57325 5.18584C4.68111 5.18167 4.78657 5.21836 4.86855 5.28857L7.2857 7.71429L4.85141 10.1486C4.76942 10.2188 4.66396 10.2555 4.5561 10.2513C4.44824 10.2471 4.34592 10.2024 4.2696 10.1261C4.19327 10.0498 4.14856 9.94746 4.14439 9.83959C4.14023 9.73173 4.17691 9.62627 4.24713 9.54429L5.66998 8.14286H2.57141V11.1429C2.57141 11.3702 2.66172 11.5882 2.82246 11.7489C2.98321 11.9097 3.20123 12 3.42855 12H11.1428C11.3702 12 11.5882 11.9097 11.7489 11.7489C11.9097 11.5882 12 11.3702 12 11.1429V0.857143C12 0.629814 11.9097 0.411797 11.7489 0.251051C11.5882 0.0903058 11.3702 0 11.1428 0ZM5.99998 3.42857H3.42855V3.29143L5.86713 0.857143H5.99998V3.42857Z" fill="#57BA00"/>
</svg>
