<svg width="12" height="12" viewBox="0 0 12 12" fill="none" xmlns="http://www.w3.org/2000/svg">
<path d="M4.82963 9.65566C5.90221 9.65569 6.94411 9.29778 7.79029 8.63859L10.9827 11.8315C11.2212 12.0618 11.6012 12.0552 11.8315 11.8167C12.0562 11.584 12.0562 11.2152 11.8315 10.9825L8.6391 7.78965C10.2746 5.68406 9.89372 2.65115 7.78845 1.01545C5.68317 -0.620258 2.65075 -0.239359 1.01529 1.86623C-0.620164 3.97183 -0.239323 7.00474 1.86595 8.64044C2.71351 9.29897 3.75635 9.65621 4.82963 9.65566ZM2.26458 2.26307C3.68123 0.846177 5.97808 0.846151 7.39476 2.26302C8.81144 3.67989 8.81147 5.97709 7.39481 7.39398C5.97816 8.81088 3.68131 8.81091 2.26463 7.39404C2.2646 7.39401 2.2646 7.39401 2.26458 7.39398C0.847921 5.98744 0.839575 3.69861 2.24591 2.28174C2.25212 2.2755 2.25834 2.26929 2.26458 2.26307Z" fill="#57BA00"/>
</svg>
