<svg width="13" height="12" viewBox="0 0 13 12" fill="none" xmlns="http://www.w3.org/2000/svg">
<path d="M12.1493 9.44557L11.2604 4.41389C11.0764 3.37245 10.1752 2.61656 9.11769 2.61656H7.86008C8.05023 2.34628 8.16233 2.01734 8.16233 1.66249C8.16235 0.745805 7.4165 0 6.49981 0C5.58313 0 4.8373 0.745805 4.8373 1.66252C4.8373 2.01736 4.9494 2.3463 5.13955 2.61659H3.88194C2.82439 2.61659 1.92324 3.37247 1.73923 4.41391L0.850298 9.44557C0.738102 10.0807 0.911493 10.7283 1.32596 11.2225C1.74045 11.7166 2.34805 12 2.99302 12H10.0066C10.6516 12 11.2592 11.7166 11.6737 11.2225C12.0882 10.7284 12.2615 10.0807 12.1493 9.44557ZM6.49981 0.708445C7.02589 0.708445 7.45388 1.13644 7.45388 1.66252C7.45388 2.18859 7.02587 2.61659 6.49981 2.61659C5.97376 2.61659 5.54574 2.18859 5.54574 1.66252C5.54574 1.13644 5.97373 0.708445 6.49981 0.708445ZM11.1309 10.7672C10.8514 11.1004 10.4416 11.2916 10.0066 11.2916H2.99302C2.55807 11.2916 2.14829 11.1004 1.86877 10.7672C1.58926 10.4339 1.47231 9.99715 1.54799 9.56883L2.43692 4.53717C2.56102 3.83482 3.16876 3.32501 3.88196 3.32501H9.11773C9.83096 3.32501 10.4387 3.83477 10.5628 4.53713L11.4517 9.5688C11.5274 9.99715 11.4104 10.4339 11.1309 10.7672Z" fill="#57BA00"/>
<path d="M5.33504 7.30826L6.22269 6.39103C6.35874 6.25048 6.35504 6.02623 6.21446 5.89017C6.07386 5.75407 5.84961 5.75782 5.71355 5.89838L4.72086 6.92417V6.1447C4.72086 5.94907 4.56226 5.79047 4.36662 5.79047C4.17099 5.79047 4.01239 5.94907 4.01239 6.1447V8.47184C4.01239 8.66747 4.17099 8.82607 4.36662 8.82607C4.56226 8.82607 4.72086 8.66747 4.72086 8.47184V7.69238L5.71355 8.71817C5.78302 8.78998 5.87553 8.82607 5.96816 8.82607C6.05684 8.82607 6.14567 8.79295 6.21446 8.72639C6.35504 8.59034 6.3587 8.36611 6.22269 8.22551L5.33504 7.30826Z" fill="#57BA00"/>
<path d="M8.63309 7.05417H8.10134C7.90571 7.05417 7.74711 7.21277 7.74711 7.40841C7.74711 7.60404 7.90571 7.76264 8.10134 7.76264H8.27302C8.23927 7.96385 8.06389 8.11767 7.85321 8.11767C7.61851 8.11767 7.42756 7.92673 7.42756 7.69202V6.92463C7.42756 6.68993 7.61851 6.49898 7.85321 6.49898C7.98526 6.49898 8.10767 6.5588 8.18912 6.66314C8.30947 6.81731 8.53208 6.84478 8.6863 6.72441C8.84049 6.60401 8.86794 6.38142 8.74759 6.22723C8.53098 5.94973 8.20498 5.79056 7.85323 5.79056C7.2279 5.79056 6.71914 6.29932 6.71914 6.92466V7.69205C6.71914 8.31738 7.2279 8.82614 7.85323 8.82614C8.47857 8.82614 8.98733 8.31738 8.98733 7.69205V7.40845C8.98733 7.21277 8.82873 7.05417 8.63309 7.05417Z" fill="#57BA00"/>
</svg>
