<svg width="13" height="12" viewBox="0 0 13 12" fill="none" xmlns="http://www.w3.org/2000/svg">
<path d="M5.07439 11.8622C5.15775 11.9504 5.27081 12 5.38871 12C5.48974 11.9999 5.58773 11.9634 5.66653 11.8965L7.88912 10.0141C7.9411 9.97006 7.98306 9.9142 8.01192 9.85067C8.04077 9.78714 8.05577 9.71755 8.05581 9.64706V7.00471L12.1765 2.20706C12.3387 2.01782 12.4455 1.78281 12.484 1.53055C12.5225 1.27829 12.491 1.01961 12.3934 0.785927C12.2957 0.552241 12.1361 0.353589 11.9339 0.214079C11.7316 0.0745694 11.4955 0.000201229 11.2541 0H1.74589C1.50451 0.000201229 1.26838 0.0745694 1.06614 0.214079C0.863912 0.353589 0.704278 0.552241 0.606616 0.785927C0.508954 1.01961 0.477463 1.27829 0.515965 1.53055C0.554467 1.78281 0.661306 2.01782 0.823516 2.20706L4.94419 7.00471V11.5294C4.94419 11.6542 4.99102 11.7739 5.07439 11.8622Z" fill="#57BA00"/>
</svg>
