<svg width="12" height="12" viewBox="0 0 12 12" fill="none" xmlns="http://www.w3.org/2000/svg">
<path d="M11.0008 6.43753C10.9041 7.57745 10.4193 8.65014 9.62694 9.47765C8.83456 10.3052 7.7822 10.8377 6.64444 10.987C5.50669 11.1363 4.35193 10.8933 3.37174 10.2984C2.39156 9.70347 1.64487 8.79236 1.25556 7.71621C0.866249 6.64007 0.857716 5.46358 1.23138 4.38194C1.60504 3.30029 2.33843 2.37851 3.30988 1.76951C4.28133 1.16052 5.43245 0.900925 6.57225 1.03379C7.71205 1.16667 8.77203 1.68401 9.57633 2.50001H8.01043C7.87741 2.50001 7.74983 2.55269 7.65577 2.64646C7.56171 2.74023 7.50886 2.86741 7.50886 3.00001C7.50886 3.13262 7.56171 3.2598 7.65577 3.35357C7.74983 3.44734 7.87741 3.50002 8.01043 3.50002H10.0884C10.3354 3.49988 10.5722 3.40202 10.7469 3.22792C10.9215 3.05382 11.0197 2.81773 11.0198 2.57151V0.500002C11.0198 0.367393 10.967 0.240216 10.8729 0.146447C10.7789 0.0526787 10.6513 0 10.5183 0C10.3852 0 10.2577 0.0526787 10.1636 0.146447C10.0695 0.240216 10.0167 0.367393 10.0167 0.500002V1.53901C9.00789 0.640368 7.72448 0.107242 6.37405 0.0258558C5.02362 -0.0555309 3.68513 0.31958 2.57506 1.09052C1.465 1.86146 0.648259 2.98315 0.256946 4.27418C-0.134367 5.5652 -0.0773747 6.95007 0.418706 8.2048C0.914786 9.45954 1.82095 10.5108 2.99063 11.1885C4.16032 11.8662 5.52513 12.1307 6.86433 11.9393C8.20354 11.748 9.43882 11.1118 10.3704 10.1338C11.302 9.15584 11.8754 7.89316 11.9979 6.55003C12.0044 6.4804 11.9962 6.41019 11.974 6.34387C11.9517 6.27755 11.9159 6.21658 11.8687 6.16484C11.8215 6.11309 11.764 6.07172 11.6999 6.04334C11.6358 6.01497 11.5665 6.00022 11.4963 6.00003C11.374 5.99856 11.2554 6.04254 11.1638 6.12342C11.0722 6.2043 11.0141 6.31627 11.0008 6.43753Z" fill="#57BA00"/>
</svg>
