<svg width="12" height="13" viewBox="0 0 12 13" fill="none" xmlns="http://www.w3.org/2000/svg">
<path d="M10.8959 2.00635H4.117C3.50809 2.00635 3.0127 2.50175 3.0127 3.1114C3.0127 3.72031 3.50809 4.21571 4.117 4.21571H10.8959C11.5048 4.21571 12.0002 3.72031 12.0002 3.1114C12.0002 2.50172 11.5048 2.00635 10.8959 2.00635Z" fill="white"/>
<path d="M1.1047 2.00635C0.495586 2.00635 0 2.50191 0 3.11103C0 3.72015 0.495586 4.21571 1.1047 4.21571C1.71382 4.21571 2.20938 3.72015 2.20938 3.11103C2.20938 2.50191 1.71382 2.00635 1.1047 2.00635Z" fill="white"/>
<path d="M1.1047 5.39526C0.495586 5.39526 0 5.89083 0 6.49994C0 7.10906 0.495586 7.60462 1.1047 7.60462C1.71382 7.60462 2.20938 7.10906 2.20938 6.49994C2.20938 5.89083 1.71382 5.39526 1.1047 5.39526Z" fill="white"/>
<path d="M1.1047 8.78442C0.495586 8.78442 0 9.27999 0 9.8891C0 10.4982 0.495586 10.9938 1.1047 10.9938C1.71382 10.9938 2.20938 10.4982 2.20938 9.8891C2.20938 9.27999 1.71382 8.78442 1.1047 8.78442Z" fill="white"/>
<path d="M10.8959 5.39526H4.117C3.50809 5.39526 3.0127 5.89066 3.0127 6.50032C3.0127 7.10922 3.50809 7.60462 4.117 7.60462H10.8959C11.5048 7.60462 12.0002 7.10922 12.0002 6.50032C12.0002 5.89064 11.5048 5.39526 10.8959 5.39526Z" fill="white"/>
<path d="M10.8959 8.78442H4.117C3.50809 8.78442 3.0127 9.27982 3.0127 9.88948C3.0127 10.4984 3.50809 10.9938 4.117 10.9938H10.8959C11.5048 10.9938 12.0002 10.4984 12.0002 9.88948C12.0002 9.27982 11.5048 8.78442 10.8959 8.78442Z" fill="white"/>
</svg>
