<svg width="33" height="33" viewBox="0 0 33 33" fill="none" xmlns="http://www.w3.org/2000/svg">
<rect x="0.5" y="0.5" width="32" height="32" rx="5.5" stroke="#BEC0C6"/>
<path d="M15.3863 17.1089C15.3059 17.0292 15.2422 16.9344 15.1987 16.83C15.1551 16.7255 15.1327 16.6135 15.1327 16.5003C15.1327 16.3872 15.1551 16.2752 15.1987 16.1707C15.2422 16.0663 15.3059 15.9715 15.3863 15.8918L19.3203 11.9663C19.4007 11.8866 19.4644 11.7918 19.5079 11.6874C19.5514 11.5829 19.5738 11.4709 19.5738 11.3578C19.5738 11.2446 19.5514 11.1326 19.5079 11.0282C19.4644 10.9237 19.4007 10.8289 19.3203 10.7492C19.1597 10.5896 18.9425 10.5 18.7161 10.5C18.4896 10.5 18.2724 10.5896 18.1118 10.7492L14.1778 14.6833C13.6962 15.1654 13.4258 15.8189 13.4258 16.5003C13.4258 17.1817 13.6962 17.8353 14.1778 18.3174L18.1118 22.2514C18.2715 22.4098 18.4869 22.499 18.7118 22.5C18.8246 22.5006 18.9364 22.479 19.0408 22.4364C19.1453 22.3937 19.2402 22.3309 19.3203 22.2514C19.4007 22.1717 19.4644 22.077 19.5079 21.9725C19.5514 21.8681 19.5738 21.756 19.5738 21.6429C19.5738 21.5297 19.5514 21.4177 19.5079 21.3133C19.4644 21.2088 19.4007 21.114 19.3203 21.0344L15.3863 17.1089Z" fill="#959291"/>
</svg>
