<svg width="33" height="33" viewBox="0 0 33 33" fill="none" xmlns="http://www.w3.org/2000/svg">
<rect x="0.5" y="0.5" width="32" height="32" rx="5.5" stroke="#BEC0C6"/>
<path d="M12.4133 17.1089C12.3349 17.0292 12.2726 16.9344 12.2302 16.83C12.1877 16.7255 12.1658 16.6135 12.1658 16.5003C12.1658 16.3872 12.1877 16.2752 12.2302 16.1707C12.2726 16.0663 12.3349 15.9715 12.4133 15.8918L16.2526 11.9663C16.331 11.8866 16.3932 11.7918 16.4357 11.6874C16.4781 11.5829 16.5 11.4709 16.5 11.3578C16.5 11.2446 16.4781 11.1326 16.4357 11.0282C16.3932 10.9237 16.331 10.8289 16.2526 10.7492C16.0959 10.5896 15.8839 10.5 15.6629 10.5C15.4419 10.5 15.2299 10.5896 15.0732 10.7492L11.2339 14.6833C10.7639 15.1654 10.5 15.8189 10.5 16.5003C10.5 17.1817 10.7639 17.8353 11.2339 18.3174L15.0732 22.2514C15.229 22.4098 15.4393 22.499 15.6587 22.5C15.7688 22.5006 15.8779 22.479 15.9798 22.4364C16.0817 22.3937 16.1744 22.3309 16.2526 22.2514C16.331 22.1717 16.3932 22.077 16.4357 21.9725C16.4781 21.8681 16.5 21.756 16.5 21.6429C16.5 21.5297 16.4781 21.4177 16.4357 21.3133C16.3932 21.2088 16.331 21.114 16.2526 21.0344L12.4133 17.1089Z" fill="#959291"/>
<path d="M18.4133 17.1089C18.3349 17.0292 18.2726 16.9344 18.2302 16.83C18.1877 16.7255 18.1658 16.6135 18.1658 16.5003C18.1658 16.3872 18.1877 16.2752 18.2302 16.1707C18.2726 16.0663 18.3349 15.9715 18.4133 15.8918L22.2526 11.9663C22.331 11.8866 22.3932 11.7918 22.4357 11.6874C22.4781 11.5829 22.5 11.4709 22.5 11.3578C22.5 11.2446 22.4781 11.1326 22.4357 11.0282C22.3932 10.9237 22.331 10.8289 22.2526 10.7492C22.0959 10.5896 21.8839 10.5 21.6629 10.5C21.4419 10.5 21.2299 10.5896 21.0732 10.7492L17.2339 14.6833C16.7639 15.1654 16.5 15.8189 16.5 16.5003C16.5 17.1817 16.7639 17.8353 17.2339 18.3174L21.0732 22.2514C21.229 22.4098 21.4393 22.499 21.6587 22.5C21.7688 22.5006 21.8779 22.479 21.9798 22.4364C22.0817 22.3937 22.1744 22.3309 22.2526 22.2514C22.331 22.1717 22.3932 22.077 22.4357 21.9725C22.4781 21.8681 22.5 21.756 22.5 21.6429C22.5 21.5297 22.4781 21.4177 22.4357 21.3133C22.3932 21.2088 22.331 21.114 22.2526 21.0344L18.4133 17.1089Z" fill="#959291"/>
</svg>
