<svg width="24" height="24" viewBox="0 0 24 24" fill="none" xmlns="http://www.w3.org/2000/svg">
<g clip-path="url(#clip0_4142_11887)">
<path d="M0 7.30859V20.5161L8.67671 12.6592L0 7.30859Z" fill="black"/>
<path d="M14.0409 13.4266L12.3495 14.4696C12.2365 14.5392 12.1088 14.5741 11.981 14.5741C11.8533 14.5741 11.7255 14.5392 11.6126 14.4696L9.92109 13.4265L0.972656 21.5294H22.9894L14.0409 13.4266Z" fill="black"/>
<path d="M0.901367 6.2146L11.9813 13.0472L15.3438 10.9737C14.3292 9.92112 13.7042 8.49061 13.7042 6.91666C13.7042 6.6791 13.7188 6.44491 13.7465 6.21465H0.901367V6.2146Z" fill="black"/>
<path d="M19.5538 12.7667C18.4373 12.7667 17.393 12.4521 16.5045 11.9072L15.2852 12.6591L23.9618 20.516V10.7585C22.8886 11.9883 21.3105 12.7667 19.5538 12.7667Z" fill="black"/>
<path d="M19.5545 2.4707C17.099 2.4707 15.1084 4.46128 15.1084 6.91677C15.1084 9.37226 17.099 11.3628 19.5545 11.3628C22.01 11.3628 24.0005 9.37226 24.0005 6.91677C24.0005 4.46128 22.0099 2.4707 19.5545 2.4707ZM20.3588 8.54431C20.3588 8.93201 20.0445 9.24632 19.6568 9.24632C19.2691 9.24632 18.9548 8.93201 18.9548 8.54431V6.51077C18.666 6.58692 18.349 6.47137 18.1818 6.20493C17.9756 5.87658 18.0746 5.44325 18.403 5.23709L19.2835 4.68424C19.4998 4.54842 19.7728 4.54079 19.9964 4.66439C20.22 4.78804 20.3588 5.02331 20.3588 5.27874V8.54431Z" fill="black"/>
</g>
<defs>
<clipPath id="clip0_4142_11887">
<rect width="24" height="24" fill="white"/>
</clipPath>
</defs>
</svg>
