<svg width="12" height="13" viewBox="0 0 12 13" fill="none" xmlns="http://www.w3.org/2000/svg">
<path d="M11.9999 1.04551L11.9997 3.77316C11.9997 4.07442 11.7555 4.31847 11.4544 4.31847C11.1531 4.31847 10.9092 4.07442 10.9092 3.77306V2.36332L7.74035 5.53483C7.6337 5.64159 7.49395 5.69461 7.3543 5.69461C7.21485 5.69461 7.07541 5.64149 6.96886 5.53494C6.75586 5.32215 6.75566 4.97686 6.96855 4.76387L10.1384 1.59102H8.72893C8.42766 1.59102 8.18351 1.34677 8.18351 1.04541C8.18351 0.744254 8.42777 0.5 8.72893 0.5H11.4544C11.5991 0.5 11.7378 0.557514 11.8401 0.659975C11.9425 0.762233 11.9999 0.901165 11.9999 1.04551ZM11.4545 8.68122C11.1531 8.68122 10.9092 8.92578 10.9092 9.22684V10.6366L7.79347 7.5475C7.58027 7.33451 7.22037 7.3343 7.00737 7.5473C6.79427 7.75999 6.78692 8.10548 6.99971 8.31837L10.0839 11.409H8.67294H8.67182C8.37056 11.409 8.1261 11.653 8.12599 11.9544C8.12589 12.2553 8.36964 12.4997 8.671 12.4997L11.396 12.5C11.5409 12.5 11.7089 12.4425 11.8109 12.3402C11.9132 12.238 12 12.0992 12 11.9547V9.22673C11.9999 8.92568 11.7556 8.68122 11.4545 8.68122ZM4.20632 7.5235L1.09094 10.6368V9.22673C1.09094 8.92548 0.851583 8.68184 0.550423 8.68184H0.552671C0.251409 8.68184 0.00837687 8.92578 0.00837687 9.22673L0.00858117 11.9543C0.00858117 12.099 0.0663 12.2378 0.168559 12.34C0.271023 12.4424 0.409957 12.4998 0.554612 12.4998H3.28017C3.58143 12.4998 3.82558 12.2555 3.82558 11.9544C3.82558 11.6529 3.58133 11.4088 3.28017 11.4088H1.87111L4.98262 8.29446C5.19582 8.08157 5.19306 7.73577 4.98006 7.52309C4.76706 7.3104 4.41942 7.3106 4.20632 7.5235ZM1.86151 1.64016H3.27077C3.57203 1.64016 3.81608 1.39621 3.81608 1.09506C3.81608 0.793697 3.57193 0.549443 3.27077 0.549443L0.54552 0.549239H0.545417C0.400661 0.549239 0.262135 0.606446 0.159672 0.708704C0.0575145 0.810961 0 0.949586 0 1.09454L0.000306449 3.8223C0.000306449 4.12315 0.244462 4.36771 0.545622 4.36771C0.846883 4.36771 1.09094 4.12315 1.09094 3.8223V2.41235L4.23493 5.55884C4.34148 5.66549 4.48123 5.71882 4.62088 5.71882C4.76022 5.71882 4.89987 5.6657 5.00632 5.55915C5.21942 5.34636 5.21972 5.00077 5.00662 4.78757L1.86151 1.64016Z" fill="#57BA00"/>
</svg>
