<svg width="24" height="24" viewBox="0 0 24 24" fill="none" xmlns="http://www.w3.org/2000/svg">
<g clip-path="url(#clip0_681_874)">
<path fill-rule="evenodd" clip-rule="evenodd" d="M18.4103 3.2871C18.4866 3.394 18.5411 3.51487 18.5707 3.64283C18.6003 3.77079 18.6044 3.90332 18.5827 4.03286C18.5611 4.16241 18.5141 4.28642 18.4446 4.39781C18.375 4.50921 18.2842 4.60581 18.1773 4.6821L16.0763 6.1831C15.7531 6.4136 15.5074 6.73656 15.3714 7.10945C15.2353 7.48234 15.2154 7.88768 15.3143 8.2721L18.6573 4.9291C18.7495 4.83359 18.8599 4.75741 18.9819 4.705C19.1039 4.65259 19.2351 4.62501 19.3679 4.62385C19.5007 4.6227 19.6323 4.648 19.7552 4.69828C19.8781 4.74856 19.9898 4.82282 20.0837 4.91671C20.1776 5.0106 20.2518 5.12225 20.3021 5.24515C20.3524 5.36805 20.3777 5.49973 20.3765 5.6325C20.3754 5.76528 20.3478 5.8965 20.2954 6.01851C20.243 6.14051 20.1668 6.25086 20.0713 6.3431L16.7283 9.6861C17.1127 9.78494 17.518 9.76504 17.8909 9.62902C18.2638 9.493 18.5868 9.24724 18.8173 8.9241L20.3183 6.8231C20.4752 6.61484 20.7073 6.47613 20.9651 6.43655C21.2228 6.39696 21.4859 6.45963 21.6981 6.61119C21.9103 6.76275 22.0549 6.99122 22.1011 7.24788C22.1473 7.50453 22.0914 7.76908 21.9453 7.9851L20.4453 10.0871C19.8696 10.8928 19.0133 11.4541 18.0448 11.6606C17.0763 11.8671 16.0656 11.7039 15.2113 11.2031L12.9143 13.5001L17.0713 17.6571C17.2534 17.8457 17.3542 18.0983 17.352 18.3605C17.3497 18.6227 17.2445 18.8735 17.0591 19.0589C16.8737 19.2443 16.6229 19.3495 16.3607 19.3518C16.0985 19.3541 15.8459 19.2533 15.6573 19.0711L11.5003 14.9141L7.34328 19.0711C7.25103 19.1666 7.14069 19.2428 7.01868 19.2952C6.89668 19.3476 6.76546 19.3752 6.63268 19.3764C6.4999 19.3775 6.36822 19.3522 6.24532 19.3019C6.12243 19.2516 6.01078 19.1774 5.91688 19.0835C5.82299 18.9896 5.74874 18.878 5.69846 18.7551C5.64818 18.6322 5.62287 18.5005 5.62403 18.3677C5.62518 18.2349 5.65277 18.1037 5.70518 17.9817C5.75759 17.8597 5.83377 17.7494 5.92928 17.6571L10.0863 13.5001L8.47628 11.8901C8.01328 12.1401 7.45928 12.3301 6.87028 12.3991C6.27214 12.4745 5.66466 12.4099 5.09578 12.2103C4.5269 12.0108 4.01219 11.6817 3.59228 11.2491C2.66328 10.3191 2.13228 9.1501 2.00028 8.0271C1.87028 6.9221 2.12028 5.7381 2.93028 4.9291C3.73928 4.1191 4.92228 3.8691 6.02728 3.9991C7.15028 4.1321 8.32028 4.6631 9.24928 5.5921C9.68187 6.01201 10.0109 6.52672 10.2105 7.0956C10.4101 7.66448 10.4747 8.27197 10.3993 8.8701C10.3318 9.43243 10.1588 9.97696 9.88928 10.4751L11.5003 12.0851L13.7973 9.7891C13.2967 8.9349 13.1337 7.9244 13.3402 6.95613C13.5467 5.98785 14.1078 5.13179 14.9133 4.5561L17.0153 3.0551C17.231 2.90089 17.4992 2.8387 17.7608 2.88221C18.0224 2.92571 18.256 3.07136 18.4103 3.2871ZM3.98628 7.7931C4.06628 8.4731 4.39728 9.2261 5.00628 9.8341C5.52828 10.3561 6.10528 10.4741 6.63728 10.4121C7.21728 10.3441 7.69328 10.0641 7.87928 9.8791C8.06528 9.6941 8.34428 9.2171 8.41228 8.6371C8.47528 8.1041 8.35728 7.5271 7.83528 7.0061C7.22528 6.3971 6.47328 6.0661 5.79328 5.9861C5.09528 5.9041 4.59428 6.0921 4.34328 6.3431C4.09228 6.5941 3.90428 7.0941 3.98628 7.7931Z" fill="#222222"/>
</g>
<defs>
<clipPath id="clip0_681_874">
<rect width="24" height="24" fill="white"/>
</clipPath>
</defs>
</svg>
