<svg width="27" height="26" viewBox="0 0 27 26" fill="none" xmlns="http://www.w3.org/2000/svg">
<path d="M13.5 9.5C15.9853 9.5 18 7.48528 18 5C18 2.51472 15.9853 0.5 13.5 0.5C11.0147 0.5 9 2.51472 9 5C9 7.48528 11.0147 9.5 13.5 9.5ZM13.5 9.5V14.5M13.3123 14.1096L18.3123 18.1096M8.68765 18.1096L13.6877 14.1096M26 21C26 23.4853 23.9853 25.5 21.5 25.5C19.0147 25.5 17 23.4853 17 21C17 18.5147 19.0147 16.5 21.5 16.5C23.9853 16.5 26 18.5147 26 21ZM10 21C10 23.4853 7.98528 25.5 5.5 25.5C3.01472 25.5 1 23.4853 1 21C1 18.5147 3.01472 16.5 5.5 16.5C7.98528 16.5 10 18.5147 10 21Z" stroke="#FF2E91"/>
</svg>
