<svg width="24" height="24" viewBox="0 0 24 24" fill="none" xmlns="http://www.w3.org/2000/svg">
<path d="M22 22.0001H2M3 22.0001V11.3471C3.00004 10.9235 3.0898 10.5047 3.26337 10.1182C3.43693 9.73181 3.69037 9.38652 4.007 9.10509L10.007 3.77209C10.5561 3.28401 11.2653 3.0144 12 3.0144C12.7347 3.0144 13.4439 3.28401 13.993 3.77209L19.993 9.10509C20.3096 9.38652 20.5631 9.73181 20.7366 10.1182C20.9102 10.5047 21 10.9235 21 11.3471V22.0001M10 9.00009H14M9 15.5001H15M9 18.5001H15" stroke="#222222" stroke-width="1.5" stroke-linecap="round"/>
<path d="M18 22V16C18 14.114 18 13.172 17.414 12.586C16.828 12 15.886 12 14 12H10C8.114 12 7.172 12 6.586 12.586C6 13.172 6 14.114 6 16V22" stroke="#222222" stroke-width="1.5"/>
</svg>
