<svg width="24" height="24" viewBox="0 0 24 24" fill="none" xmlns="http://www.w3.org/2000/svg">
<path d="M12 23.1429C18 23.1429 22.2857 21.0171 22.2857 16.2857C22.2857 11.1429 19.7143 8.53714 14.5714 5.96571L16.7966 2.48914C16.8839 2.32143 16.9271 2.13425 16.9222 1.94522C16.9172 1.7562 16.8642 1.57154 16.7682 1.40865C16.6722 1.24575 16.5363 1.10997 16.3733 1.01409C16.2103 0.918207 16.0256 0.865376 15.8366 0.860571H8.568C8.36637 0.856738 8.16748 0.907699 7.99253 1.00802C7.81758 1.10834 7.67314 1.25425 7.5746 1.43021C7.47607 1.60617 7.42713 1.80557 7.43301 2.00715C7.43889 2.20874 7.49937 2.40494 7.608 2.57486L9.42857 5.96571C4.28571 8.57143 1.71429 11.1771 1.71429 16.32C1.71429 21.0171 6 23.1429 12 23.1429Z" stroke="#222222" stroke-width="1.71429" stroke-linecap="round" stroke-linejoin="round"/>
<path d="M9.42857 6C9.71085 6.42325 10.0932 6.77027 10.5418 7.01029C10.9904 7.2503 11.4913 7.37588 12 7.37588C12.5087 7.37588 13.0096 7.2503 13.4582 7.01029C13.9068 6.77027 14.2891 6.42325 14.5714 6" stroke="#222222" stroke-width="1.71429" stroke-linecap="round" stroke-linejoin="round"/>
<path d="M9.6733 12.1818V18H8.44318V12.1818H9.6733ZM15.5518 12.1818V18H14.4893L11.9581 14.3381H11.9155V18H10.6854V12.1818H11.7649L14.2763 15.8409H14.3274V12.1818H15.5518Z" fill="#222222"/>
</svg>
