<svg width="24" height="24" viewBox="0 0 24 24" fill="none" xmlns="http://www.w3.org/2000/svg">
<path d="M12 23.1429C18 23.1429 22.2857 21.0171 22.2857 16.2857C22.2857 11.1429 19.7143 8.53714 14.5714 5.96571L16.7966 2.48914C16.8839 2.32143 16.9271 2.13425 16.9222 1.94522C16.9172 1.7562 16.8642 1.57154 16.7682 1.40865C16.6722 1.24575 16.5363 1.10997 16.3733 1.01409C16.2103 0.918207 16.0256 0.865376 15.8366 0.860571H8.568C8.36637 0.856738 8.16747 0.907699 7.99253 1.00802C7.81758 1.10834 7.67314 1.25425 7.5746 1.43021C7.47607 1.60617 7.42713 1.80557 7.43301 2.00715C7.43889 2.20874 7.49937 2.40494 7.608 2.57486L9.42857 5.96571C4.28571 8.57143 1.71428 11.1771 1.71428 16.32C1.71428 21.0171 6 23.1429 12 23.1429Z" stroke="#222222" stroke-width="1.71429" stroke-linecap="round" stroke-linejoin="round"/>
<path d="M9.42857 6C9.71085 6.42325 10.0932 6.77027 10.5418 7.01029C10.9904 7.2503 11.4913 7.37588 12 7.37588C12.5087 7.37588 13.0096 7.2503 13.4582 7.01029C13.9068 6.77027 14.2891 6.42325 14.5714 6" stroke="#222222" stroke-width="1.71429" stroke-linecap="round" stroke-linejoin="round"/>
<path d="M9.13352 15.0909C9.13352 15.7254 9.01326 16.2652 8.77273 16.7102C8.53409 17.1553 8.20833 17.4953 7.79545 17.7301C7.38447 17.9631 6.92235 18.0795 6.40909 18.0795C5.89205 18.0795 5.42803 17.9621 5.01705 17.7273C4.60606 17.4924 4.28125 17.1525 4.04261 16.7074C3.80398 16.2623 3.68466 15.7235 3.68466 15.0909C3.68466 14.4564 3.80398 13.9167 4.04261 13.4716C4.28125 13.0265 4.60606 12.6875 5.01705 12.4545C5.42803 12.2197 5.89205 12.1023 6.40909 12.1023C6.92235 12.1023 7.38447 12.2197 7.79545 12.4545C8.20833 12.6875 8.53409 13.0265 8.77273 13.4716C9.01326 13.9167 9.13352 14.4564 9.13352 15.0909ZM7.88636 15.0909C7.88636 14.6799 7.82481 14.3333 7.7017 14.0511C7.58049 13.7689 7.40909 13.5549 7.1875 13.4091C6.96591 13.2633 6.70644 13.1903 6.40909 13.1903C6.11174 13.1903 5.85227 13.2633 5.63068 13.4091C5.40909 13.5549 5.23674 13.7689 5.11364 14.0511C4.99242 14.3333 4.93182 14.6799 4.93182 15.0909C4.93182 15.5019 4.99242 15.8485 5.11364 16.1307C5.23674 16.4129 5.40909 16.6269 5.63068 16.7727C5.85227 16.9186 6.11174 16.9915 6.40909 16.9915C6.70644 16.9915 6.96591 16.9186 7.1875 16.7727C7.40909 16.6269 7.58049 16.4129 7.7017 16.1307C7.82481 15.8485 7.88636 15.5019 7.88636 15.0909ZM13.6385 12.1818H14.8686V15.9602C14.8686 16.3845 14.7673 16.7557 14.5646 17.0739C14.3639 17.392 14.0826 17.6402 13.7209 17.8182C13.3591 17.9943 12.9377 18.0824 12.4567 18.0824C11.9737 18.0824 11.5514 17.9943 11.1896 17.8182C10.8279 17.6402 10.5466 17.392 10.3459 17.0739C10.1451 16.7557 10.0447 16.3845 10.0447 15.9602V12.1818H11.2749V15.8551C11.2749 16.0767 11.3232 16.2737 11.4197 16.446C11.5182 16.6184 11.6565 16.7538 11.8345 16.8523C12.0125 16.9508 12.2199 17 12.4567 17C12.6953 17 12.9027 16.9508 13.0788 16.8523C13.2569 16.7538 13.3942 16.6184 13.4908 16.446C13.5893 16.2737 13.6385 16.0767 13.6385 15.8551V12.1818ZM15.6591 13.196V12.1818H20.4375V13.196H18.6562V18H17.4403V13.196H15.6591Z" fill="#222222"/>
</svg>
