<svg width="40" height="40" viewBox="0 0 40 40" fill="none" xmlns="http://www.w3.org/2000/svg">
<circle cx="20" cy="20" r="19.5" stroke="#A0A0A0"/>
<g clip-path="url(#clip0_6474_19576)">
<g clip-path="url(#clip1_6474_19576)">
<path d="M31.1192 13.973L28.6893 12.5701C28.7966 12.3123 28.8162 12.0277 28.7425 11.7528C28.6544 11.4237 28.444 11.149 28.1499 10.9793L25.48 9.43778C25.186 9.268 24.8427 9.2231 24.5138 9.31127C24.2389 9.38496 24.0021 9.54424 23.8326 9.76605L21.4027 8.36313C20.7749 8.00078 19.9693 8.2166 19.6068 8.84439L19.258 9.44866C19.0879 9.74322 19.1891 10.1212 19.4837 10.2914L30.4089 16.599C30.5057 16.655 30.6117 16.6816 30.7163 16.6816C30.9297 16.6816 31.1374 16.5709 31.2516 16.3732L31.6005 15.7689C31.9629 15.1412 31.747 14.3355 31.1192 13.973ZM24.6836 9.94511C24.8434 9.90231 25.0096 9.92397 25.1518 10.006L27.8218 11.5475C27.964 11.6296 28.0659 11.7628 28.1087 11.9225C28.1367 12.0271 28.1365 12.1343 28.1105 12.2358L24.4114 10.1002C24.4863 10.0268 24.5791 9.9731 24.6836 9.94511ZM31.0321 15.4407L30.7029 16.0109L19.8459 9.74266L20.1751 9.17242C20.3566 8.85803 20.7602 8.74994 21.0745 8.93139L30.7911 14.5413C31.1055 14.7228 31.2137 15.1263 31.0321 15.4407ZM22.073 20.8043C21.7633 20.8043 21.5074 20.952 21.3525 21.2203L20.956 21.907C20.8654 22.064 20.6648 22.1178 20.5078 22.0271C20.3509 21.9365 20.2971 21.7359 20.3877 21.5789L20.7842 20.8922C21.0573 20.4193 21.5271 20.1481 22.0731 20.1481C22.6191 20.1481 23.0889 20.4193 23.3619 20.8922L23.8762 21.7829L23.8933 21.6335C23.9138 21.4534 24.0762 21.3243 24.2566 21.3448C24.4367 21.3655 24.5659 21.5281 24.5452 21.7082L24.415 22.8452C24.4032 22.9485 24.3431 23.0401 24.2531 23.092C24.2025 23.1213 24.1459 23.136 24.089 23.136C24.0446 23.136 24.0002 23.127 23.9584 23.1089L22.9086 22.6531C22.7423 22.5809 22.666 22.3877 22.7382 22.2215C22.8104 22.0553 23.0036 21.9789 23.1699 22.0512L23.3078 22.111L22.7935 21.2203C22.6386 20.9521 22.3827 20.8044 22.073 20.8044V20.8043ZM25.3845 25.8836C25.1116 26.3565 24.6418 26.6277 24.0957 26.6277H23.0671L23.188 26.7173C23.3336 26.8252 23.3642 27.0307 23.2563 27.1763C23.1919 27.2632 23.0928 27.3091 22.9924 27.3091C22.9245 27.3091 22.8561 27.2881 22.7973 27.2446L21.8777 26.5632C21.7942 26.5014 21.745 26.4036 21.745 26.2996C21.745 26.1956 21.7942 26.0978 21.8777 26.0359L22.7973 25.3547C22.943 25.2468 23.1484 25.2775 23.2563 25.423C23.3642 25.5686 23.3336 25.7741 23.188 25.882L23.0672 25.9715H24.0957C24.4054 25.9715 24.6613 25.8238 24.8162 25.5556C24.9711 25.2873 24.971 24.9919 24.8162 24.7236L24.4336 24.061C24.343 23.9041 24.3968 23.7034 24.5537 23.6128C24.7107 23.5221 24.9113 23.5759 25.0019 23.7329L25.3845 24.3955C25.6575 24.8684 25.6575 25.4108 25.3845 25.8836ZM21.1647 26.2996C21.1647 26.4808 21.0178 26.6277 20.8366 26.6277H20.0505C19.5045 26.6277 19.0347 26.3565 18.7617 25.8836C18.4887 25.4107 18.4887 24.8683 18.7617 24.3955L19.276 23.5047L19.138 23.5646C18.9717 23.6368 18.7786 23.5604 18.7064 23.3943C18.6342 23.228 18.7105 23.0348 18.8768 22.9626L19.9266 22.5069C20.0219 22.4655 20.1312 22.4717 20.2213 22.5237C20.3113 22.5757 20.3714 22.6673 20.3832 22.7706L20.5134 23.9076C20.534 24.0876 20.4048 24.2503 20.2248 24.2709C20.0449 24.2919 19.882 24.1623 19.8615 23.9823L19.8444 23.8329L19.33 24.7237C19.1752 24.9919 19.1752 25.2873 19.33 25.5556C19.4849 25.8238 19.7408 25.9715 20.0505 25.9715H20.8367C21.0179 25.9715 21.1648 26.1184 21.1648 26.2997L21.1647 26.2996ZM27.3943 27.9166L28.3078 17.0558C28.3155 16.9643 28.2845 16.8738 28.2224 16.8062C28.1603 16.7386 28.0727 16.7002 27.9809 16.7002H16.1652C16.0735 16.7002 15.9858 16.7386 15.9237 16.8062C15.8616 16.8738 15.8306 16.9643 15.8383 17.0558L16.8861 29.5148C16.9457 30.2229 17.5265 30.7569 18.2371 30.7569H25.0908C25.4252 31.3844 26.086 31.8126 26.8453 31.8126C27.9409 31.8126 28.8322 30.9213 28.8322 29.8257C28.8322 28.9206 28.2236 28.1554 27.3943 27.9166H27.3943ZM24.8585 29.8257C24.8585 29.919 24.8654 30.0107 24.8779 30.1006H18.2371C17.8705 30.1006 17.5708 29.825 17.5401 29.4597L16.5221 17.3564H27.6239L26.742 27.8415C25.6942 27.8955 24.8584 28.7648 24.8584 29.8257L24.8585 29.8257ZM26.8454 31.1564C26.1117 31.1564 25.5147 30.5595 25.5147 29.8257C25.5147 29.092 26.1116 28.4951 26.8454 28.4951C27.5791 28.4951 28.176 29.092 28.176 29.8257C28.176 30.5595 27.5791 31.1564 26.8454 31.1564ZM26.8454 28.9475C26.3611 28.9475 25.9671 29.3415 25.9671 29.8257C25.9671 30.31 26.3611 30.704 26.8454 30.704C27.3296 30.704 27.7236 30.31 27.7236 29.8257C27.7236 29.3415 27.3296 28.9475 26.8454 28.9475ZM26.8454 30.0478C26.723 30.0478 26.6234 29.9482 26.6234 29.8258C26.6234 29.7034 26.723 29.6038 26.8454 29.6038C26.9678 29.6038 27.0674 29.7034 27.0674 29.8258C27.0674 29.9482 26.9678 30.0478 26.8454 30.0478ZM16.9836 15.3017C17.3575 15.4714 17.7156 15.4083 18.062 15.3475C18.4748 15.2748 18.9017 15.1997 19.4984 15.4541C19.9113 15.6302 20.2475 15.703 20.5248 15.703C21.3326 15.703 21.6396 15.0848 21.8803 14.6C21.9769 14.4052 22.0682 14.2213 22.1824 14.0797C22.4406 13.7596 22.7619 13.3611 22.5983 12.9385C22.4653 12.5949 22.0717 12.3899 21.3218 12.2738C20.4087 12.1323 18.3521 11.8562 17.8404 11.8544C17.4652 11.8527 16.9766 11.9804 16.7341 12.3413C16.6144 12.5195 16.51 12.8239 16.6874 13.2657C16.679 13.3288 16.5896 13.4807 16.5296 13.5826C16.3603 13.8705 16.1494 14.2288 16.2751 14.6259C16.3632 14.9043 16.5949 15.1254 16.9836 15.3017H16.9836ZM17.0953 13.9154C17.2523 13.6485 17.4303 13.346 17.2999 13.0297C17.2399 12.8842 17.2328 12.7757 17.2789 12.7072C17.3621 12.5832 17.6296 12.5079 17.8382 12.5107C18.2613 12.5121 20.1823 12.7614 21.2214 12.9223C21.8997 13.0273 21.9846 13.1723 21.9855 13.1723C21.9962 13.2651 21.7687 13.5473 21.6715 13.6677C21.5124 13.8652 21.4006 14.0904 21.2925 14.3082C20.9761 14.9455 20.8017 15.2964 19.7557 14.8505C19.3441 14.6749 18.9898 14.6209 18.6792 14.6209C18.4045 14.6209 18.164 14.6632 17.9482 14.7012C17.6261 14.7579 17.435 14.7859 17.2548 14.7041C17.0569 14.6144 16.9279 14.5137 16.9007 14.428C16.8633 14.3096 16.9865 14.1002 17.0952 13.9154L17.0953 13.9154ZM15.2265 13.7113C14.8939 13.1353 14.816 12.5431 14.9881 11.9007L14.9907 11.8911C15.0148 11.8814 15.0385 11.8702 15.0613 11.857C15.19 11.7827 15.2819 11.6629 15.3203 11.5199L15.4473 11.0458C15.5265 10.75 15.3504 10.4448 15.0544 10.3654L13.1716 9.86092C13.0285 9.82249 12.8788 9.84241 12.7502 9.91666C12.6215 9.99096 12.5295 10.1107 12.4912 10.2537L12.3642 10.7278C12.3259 10.8708 12.3456 11.0205 12.4199 11.1491C12.433 11.172 12.4482 11.1933 12.4641 11.2137L12.4615 11.2237C12.2917 11.8572 11.9177 12.3446 11.3497 12.6725L11.186 12.7671C10.0299 13.4346 9.53889 14.8235 10.0187 16.0695C10.1924 16.5208 10.2178 17.007 10.0922 17.4757C9.97122 17.9274 9.71926 18.3248 9.36362 18.6251C8.87326 19.0393 8.55414 19.542 8.38801 20.162L8.27795 20.5727C8.16883 20.9801 8.22526 21.4064 8.43695 21.7729C8.64864 22.1395 8.98951 22.4016 9.39691 22.5107L11.9986 23.2078C12.1352 23.2445 12.2725 23.2619 12.4077 23.2619C13.1063 23.2619 13.7473 22.795 13.9366 22.0889L14.0466 21.6782C14.2127 21.0583 14.1877 20.4634 13.9701 19.8595C13.8123 19.4215 13.7928 18.9513 13.9138 18.4998C14.0395 18.031 14.3046 17.6226 14.6806 17.3187C15.7191 16.4795 15.9884 15.0312 15.3209 13.875L15.2264 13.7113H15.2265ZM13.099 10.5209L14.7874 10.9733L14.7125 11.2527L13.0241 10.8003L13.099 10.5209ZM13.0668 11.4912L14.3301 11.8297C14.1797 12.4656 14.228 13.0817 14.4737 13.6673C13.6309 13.5743 12.8 13.3516 12.0235 13.0107C12.5292 12.6265 12.8791 12.1171 13.0668 11.4912ZM13.3527 20.0819C13.5257 20.5622 13.5449 21.0154 13.4127 21.5084L13.3027 21.9191C13.1706 22.4124 12.6618 22.7063 12.1684 22.574L9.56673 21.8769C9.32866 21.8131 9.12925 21.6596 9.00522 21.4449C8.88119 21.23 8.848 20.9807 8.91184 20.7426L9.02191 20.3319C9.154 19.8389 9.39714 19.4559 9.78705 19.1266C10.2455 18.7394 10.5702 18.2273 10.7261 17.6456C10.8234 17.2827 10.8497 16.9117 10.8071 16.5469C11.7427 16.9575 12.7436 17.2257 13.7592 17.338C13.5399 17.6324 13.3772 17.967 13.2799 18.3299C13.1241 18.9114 13.1493 19.5173 13.3527 20.0819ZM14.3602 16.7289C13.0541 16.66 11.7566 16.3123 10.5911 15.719C10.317 14.8619 10.6322 13.9386 11.368 13.4283C12.4434 13.9643 13.6334 14.2832 14.8328 14.3567C15.2148 15.1665 15.0262 16.1237 14.3602 16.7289Z" fill="black"/>
</g>
</g>
<defs>
<clipPath id="clip0_6474_19576">
<rect width="24" height="24" fill="white" transform="translate(8 8)"/>
</clipPath>
<clipPath id="clip1_6474_19576">
<rect width="24" height="24" fill="white" transform="translate(8 8)"/>
</clipPath>
</defs>
</svg>
