<svg width="40" height="40" viewBox="0 0 40 40" fill="none" xmlns="http://www.w3.org/2000/svg">
<circle cx="20" cy="20" r="19.5" stroke="#A0A0A0"/>
<g clip-path="url(#clip0_6474_19507)">
<path d="M18.2721 20.192C18.0801 20.192 17.9121 20.36 17.9121 20.552C17.9121 20.744 18.0801 20.912 18.2721 20.912C18.4641 20.912 18.6321 20.744 18.6321 20.552C18.6321 20.36 18.4641 20.192 18.2721 20.192Z" fill="black"/>
<path d="M28.6159 27.656C28.8079 27.656 28.9759 27.488 28.9759 27.296C28.9759 27.104 28.8079 26.936 28.6159 26.936C28.4239 26.936 28.2559 27.104 28.2559 27.296C28.2559 27.488 28.3999 27.656 28.6159 27.656Z" fill="black"/>
<path d="M16.0875 26.9601C15.8955 26.9601 15.7275 27.1281 15.7275 27.3201C15.7275 27.5121 15.8955 27.6801 16.0875 27.6801C16.2795 27.6801 16.4475 27.5121 16.4475 27.3201C16.4475 27.1281 16.2795 26.9601 16.0875 26.9601Z" fill="black"/>
<path d="M18.7282 24.176C18.5362 24.176 18.3682 24.344 18.3682 24.536C18.3682 24.728 18.5362 24.896 18.7282 24.896C18.9202 24.896 19.0882 24.728 19.0882 24.536C19.0882 24.344 18.9202 24.176 18.7282 24.176Z" fill="black"/>
<path d="M30.4398 21.008C30.6318 21.008 30.7998 20.84 30.7998 20.648V16.64C30.7998 16.616 30.7998 16.592 30.7998 16.544L30.1758 14.024C29.9358 13.016 29.3118 12.416 28.4958 12.416H23.4798C23.2878 12.416 23.1198 12.584 23.1198 12.776V18.44H21.3438L20.4798 16.568L21.8718 15.968C21.9678 15.92 22.0398 15.848 22.0638 15.776C22.0878 15.68 22.0878 15.584 22.0638 15.512L20.1438 11.072C20.0478 10.832 19.8318 10.64 19.5918 10.544C19.3518 10.448 19.0638 10.448 18.8238 10.544L12.6318 13.184C12.1278 13.4 11.8878 14 12.1038 14.504L12.1758 14.696C11.8398 14.672 11.5038 14.768 11.2158 14.984C10.8078 15.272 10.5918 15.68 10.5438 16.16C10.3038 16.136 10.0638 16.184 9.84778 16.304C9.43978 16.52 9.19978 16.976 9.19978 17.432C9.19978 17.768 9.34378 18.08 9.53578 18.32C9.31978 18.608 9.19978 18.944 9.19978 19.304C9.19978 20.192 9.91978 20.888 10.7838 20.888C11.6478 20.888 12.3678 20.168 12.3678 19.304C12.3678 19.208 12.3678 19.088 12.3438 18.992C12.6558 18.968 12.9678 18.848 13.2558 18.656C13.4238 18.536 13.5678 18.392 13.6878 18.224L13.9758 18.896V20.648C13.9758 20.84 14.1438 21.008 14.3358 21.008H16.2318C16.3038 21.344 16.4718 21.656 16.6878 21.896H16.0158C14.8638 21.896 13.8318 21.896 13.2318 23.144C12.7518 22.952 12.1758 22.976 11.6718 23.24C11.0718 23.528 10.7118 24.104 10.6398 24.752C10.2798 24.8 9.96778 24.944 9.72778 25.184C9.36778 25.544 9.17578 26.12 9.17578 26.864V29.192C9.17578 29.384 9.34378 29.552 9.53578 29.552H30.4158C30.6078 29.552 30.7758 29.384 30.7758 29.192V22.28C30.7758 22.088 30.6078 21.92 30.4158 21.92H28.5198C28.7358 21.656 28.9038 21.368 28.9758 21.032H30.4398V21.008ZM29.4798 14.216L29.9838 16.28H26.3838V13.16H28.4958C29.1198 13.16 29.3838 13.808 29.4798 14.216ZM23.8398 13.16H25.6638V16.64C25.6638 16.832 25.8318 17 26.0238 17H30.0798V18.056H29.4078C29.2158 18.056 29.0478 18.224 29.0478 18.416C29.0478 18.608 29.2158 18.776 29.4078 18.776H30.0798V20.288H29.0238C28.9038 19.256 28.0158 18.464 26.9598 18.464C25.9038 18.464 25.0158 19.256 24.8958 20.288H23.8398V13.16ZM20.3118 21.008H24.9438C25.0158 21.344 25.1838 21.656 25.3998 21.896H19.8558C20.0718 21.656 20.2158 21.344 20.3118 21.008ZM23.1198 20.288H20.3358C20.2878 19.856 20.0958 19.472 19.8318 19.184H23.1198V20.288ZM20.5518 18.464H16.0878L19.8318 16.856L20.5518 18.464ZM12.9198 13.856L19.1118 11.192C19.1598 11.168 19.1838 11.168 19.2318 11.168C19.2798 11.168 19.3038 11.168 19.3518 11.192C19.4238 11.216 19.4718 11.264 19.5198 11.336L21.2478 15.44L14.5278 18.344L12.7518 14.24C12.7038 14.096 12.7518 13.904 12.9198 13.856ZM12.8478 18.056C12.5598 18.248 12.2238 18.32 11.8878 18.224C11.7438 18.176 11.5758 18.248 11.5038 18.368C11.4078 18.488 11.4318 18.656 11.5038 18.776C11.5998 18.92 11.6718 19.088 11.6718 19.28C11.6718 19.76 11.2878 20.144 10.8078 20.144C10.3278 20.144 9.91978 19.784 9.91978 19.304C9.91978 19.016 10.0398 18.752 10.2798 18.608C10.3758 18.536 10.4478 18.416 10.4238 18.296C10.3998 18.176 10.3278 18.056 10.2318 18.008C10.0638 17.912 9.91978 17.648 9.91978 17.432C9.91978 17.216 10.0158 17.048 10.2078 16.952C10.3758 16.856 10.5918 16.856 10.7838 16.976C10.9038 17.072 11.0718 17.048 11.1918 16.976C11.3118 16.88 11.3598 16.736 11.3118 16.592C11.1678 16.136 11.4078 15.776 11.6478 15.608C11.9118 15.416 12.2478 15.416 12.5598 15.608L13.3278 17.36C13.2558 17.624 13.0878 17.888 12.8478 18.056ZM14.7198 19.184H16.7118C16.4478 19.496 16.2558 19.88 16.2078 20.288H14.7198V19.184ZM16.9038 20.552C16.9038 19.808 17.5278 19.184 18.2718 19.184C19.0158 19.184 19.6398 19.808 19.6398 20.552C19.6398 21.296 19.0398 21.92 18.2718 21.92C17.5278 21.92 16.9038 21.296 16.9038 20.552ZM10.9998 25.472C11.1198 25.472 11.1918 25.424 11.2638 25.352C11.3358 25.28 11.3598 25.184 11.3598 25.088C11.3118 24.344 11.7438 24.032 11.9838 23.888C12.3918 23.696 12.8958 23.72 13.1838 23.96C13.2798 24.032 13.3998 24.056 13.5198 24.032C13.6398 24.008 13.7358 23.912 13.7598 23.792C14.1198 22.76 14.6478 22.64 15.6558 22.64C15.5358 25.88 13.6158 26.528 10.3998 26.528H9.94378C9.99178 26.168 10.0878 25.904 10.2558 25.712C10.4238 25.544 10.6638 25.448 10.9998 25.472ZM30.0798 28.856H9.91978V27.248H10.3998C13.4238 27.248 16.2318 26.672 16.3758 22.64H30.0798V28.856ZM25.5918 20.552C25.5918 19.808 26.2158 19.184 26.9598 19.184C27.7038 19.184 28.3278 19.808 28.3278 20.552C28.3278 21.296 27.7038 21.92 26.9598 21.92C26.2158 21.92 25.5918 21.296 25.5918 20.552Z" fill="black"/>
<path d="M14.8399 14.984C14.8879 14.984 14.9359 14.984 14.9839 14.96L18.4639 13.448C18.6559 13.376 18.728 13.16 18.656 12.968C18.584 12.776 18.368 12.704 18.176 12.776L14.6959 14.288C14.5039 14.36 14.4319 14.576 14.5039 14.768C14.5759 14.888 14.6959 14.984 14.8399 14.984Z" fill="black"/>
<path d="M15.2476 16.4481C15.2956 16.5921 15.4396 16.6641 15.5836 16.6641C15.6316 16.6641 15.6796 16.6641 15.7276 16.6401L19.2076 15.1281C19.3996 15.0561 19.4716 14.8401 19.3996 14.6481C19.3276 14.4561 19.1116 14.3841 18.9196 14.4561L15.4396 15.9681C15.2476 16.0401 15.1516 16.2561 15.2476 16.4481Z" fill="black"/>
<path d="M26.3356 24.4401C26.1436 24.4401 25.9756 24.6081 25.9756 24.8001C25.9756 24.9921 26.1436 25.1601 26.3356 25.1601C26.5276 25.1601 26.6956 24.9921 26.6956 24.8001C26.6956 24.6081 26.5276 24.4401 26.3356 24.4401Z" fill="black"/>
<path d="M21.2955 26.1681C21.1035 26.1681 20.9355 26.3361 20.9355 26.5281C20.9355 26.7201 21.1035 26.8881 21.2955 26.8881C21.4875 26.8881 21.6555 26.7201 21.6555 26.5281C21.6555 26.3361 21.4875 26.1681 21.2955 26.1681Z" fill="black"/>
<path d="M25.3522 26.5281C25.1602 26.5281 24.9922 26.6961 24.9922 26.8881C24.9922 27.0801 25.1602 27.2481 25.3522 27.2481C25.5442 27.2481 25.7122 27.0801 25.7122 26.8881C25.7122 26.6961 25.5442 26.5281 25.3522 26.5281Z" fill="black"/>
<path d="M26.9596 20.192C26.7676 20.192 26.5996 20.36 26.5996 20.552C26.5996 20.744 26.7676 20.912 26.9596 20.912C27.1516 20.912 27.3196 20.744 27.3196 20.552C27.3196 20.36 27.1516 20.192 26.9596 20.192Z" fill="black"/>
</g>
<defs>
<clipPath id="clip0_6474_19507">
<rect width="24" height="24" fill="white" transform="translate(8 8)"/>
</clipPath>
</defs>
</svg>
