<svg width="40" height="40" viewBox="0 0 40 40" fill="none" xmlns="http://www.w3.org/2000/svg">
<circle cx="20" cy="20" r="19.5" stroke="#A0A0A0"/>
<g clip-path="url(#clip0_6474_19559)">
<g clip-path="url(#clip1_6474_19559)">
<path d="M25.8401 17.63L27.2502 17.5405C27.2526 17.5403 27.2551 17.5401 27.2577 17.5399C28.2626 17.455 29.1645 16.9275 29.7325 16.0924L30.8473 14.4537C31.8176 13.0271 32.1935 11.304 31.9055 9.60202C31.8489 9.26774 31.6782 8.95971 31.4252 8.73497C31.1719 8.51004 30.8464 8.37721 30.5084 8.36107C28.7868 8.27851 27.1251 8.85917 25.828 9.99536L24.3379 11.3007C23.5785 11.9658 23.164 12.9262 23.2002 13.9362C23.2004 13.9385 23.2004 13.9411 23.2006 13.9437L23.281 15.3569C23.3123 15.9078 23.1107 16.4515 22.7289 16.8474L11.0874 28.8301C10.7758 29.1558 10.6148 29.6025 10.6344 30.0881C10.656 30.6227 10.9008 31.1478 11.2894 31.4929C11.6404 31.8046 12.1229 31.9822 12.6052 31.9822C12.6568 31.9822 12.7085 31.9802 12.7599 31.976C13.2435 31.9373 13.667 31.7237 13.9538 31.3726L24.4287 18.3587C24.776 17.9305 25.2906 17.6649 25.8401 17.63ZM23.8695 17.9052L13.3955 30.9179C13.2354 31.1139 12.9893 31.2346 12.7026 31.2575C12.3615 31.2849 12.0117 31.1711 11.7667 30.9535C11.5217 30.7358 11.3672 30.4015 11.3535 30.059C11.3418 29.7711 11.4317 29.5119 11.6049 29.331L23.2455 17.3491C23.7673 16.8081 24.042 16.0671 23.9995 15.316L23.9191 13.9064C23.8918 13.1159 24.2168 12.3642 24.8114 11.8434L26.3015 10.538C27.458 9.52514 28.9401 9.00796 30.4741 9.08098C30.6488 9.08942 30.8169 9.15803 30.9478 9.27435C31.0787 9.39048 31.1668 9.54973 31.1961 9.72237C31.4528 11.2398 31.1177 12.7758 30.2527 14.0475L29.138 15.6864C28.6932 16.3403 27.9874 16.7536 27.2007 16.8213L25.7945 16.9105C25.0452 16.9582 24.3439 17.3203 23.8695 17.9052Z" fill="black"/>
<path d="M31.3353 28.7391L23.5296 21.6158C23.3828 21.4816 23.1554 21.4923 23.0213 21.6394C22.8877 21.7866 22.8983 22.0146 23.0451 22.1487L30.8487 29.2704C31.0344 29.4423 31.1397 29.6957 31.1454 29.9837C31.1522 30.3264 31.0179 30.6693 30.7863 30.9014C30.5549 31.1333 30.2132 31.2682 29.8704 31.2612C29.5829 31.2555 29.3301 31.15 29.1603 30.966L22.2049 23.3148C22.071 23.1675 21.8434 23.157 21.6966 23.291C21.5497 23.4251 21.5391 23.6531 21.6729 23.8003L28.6301 31.4533C28.9358 31.7846 29.3713 31.9725 29.8563 31.982C29.8689 31.9822 29.8814 31.9824 29.894 31.9824C30.4153 31.9824 30.9366 31.7705 31.295 31.4113C31.6623 31.0432 31.8752 30.5044 31.8646 29.9696C31.8551 29.4836 31.6678 29.0473 31.3353 28.7391Z" fill="black"/>
<path d="M12.341 17.5618C12.9365 18.1115 13.7101 18.4248 14.5195 18.4443C14.522 18.4444 14.5246 18.4444 14.527 18.4444L15.9398 18.4488C16.4906 18.4505 17.02 18.6848 17.3915 19.0904L18.0139 19.7749C18.0849 19.8531 18.1821 19.8927 18.2799 19.8927C18.3663 19.8927 18.4531 19.8617 18.522 19.7988C18.669 19.6647 18.6796 19.4366 18.5458 19.2895L17.9225 18.6041C17.4149 18.0496 16.6931 17.7304 15.9422 17.7278L14.5332 17.7234C13.9072 17.7075 13.3086 17.4673 12.8448 17.0466L8.75034 12.1698C8.70859 12.1199 8.7117 12.0476 8.75766 12.0016C8.78916 11.9698 8.82615 11.9652 8.84537 11.9652C8.8646 11.9652 8.90159 11.9698 8.93326 12.0016L12.6602 15.736C13.0286 16.1051 13.6281 16.1051 13.9965 15.7358L14.4345 15.2971V15.2969L15.2121 14.5178C15.2121 14.5178 15.2123 14.5178 15.2123 14.5176L15.2125 14.5174L15.6503 14.0787C16.0187 13.7096 16.0187 13.1089 15.6503 12.7398L11.9234 9.00559C11.875 8.95716 11.875 8.87809 11.9234 8.82965C11.9693 8.7836 12.0415 8.78048 12.0913 8.82231L16.9586 12.9249C17.3787 13.3895 17.6183 13.9894 17.6343 14.6165L17.6385 16.0284C17.641 16.7806 17.9598 17.5038 18.5139 18.0135L19.1808 18.622C19.3278 18.7561 19.5552 18.7455 19.6891 18.5984C19.8228 18.451 19.8121 18.2232 19.6653 18.0891L18.9995 17.4814C18.5936 17.1083 18.3599 16.5777 18.3581 16.026L18.3537 14.6104C18.3537 14.6078 18.3537 14.6053 18.3535 14.6027C18.3341 13.7918 18.0214 13.0167 17.4728 12.42C17.4625 12.4088 17.4515 12.3982 17.4398 12.3883L12.5544 8.27064C12.2167 7.9859 11.7267 8.00718 11.4147 8.31981C11.0857 8.64949 11.0857 9.18576 11.4147 9.51526L15.1417 13.2497C15.2295 13.3377 15.2295 13.481 15.1417 13.5691L14.958 13.7529L10.8042 9.59121C10.6638 9.45031 10.436 9.45031 10.2956 9.59121C10.1551 9.73193 10.1551 9.96016 10.2956 10.1009L14.4493 14.2627L14.1802 14.5323L10.0264 10.3706C9.88596 10.2298 9.65818 10.2298 9.51774 10.3706C9.37711 10.5113 9.37711 10.7395 9.51774 10.8802L13.6713 15.0421L13.4878 15.2261C13.3999 15.3142 13.2569 15.3142 13.1691 15.2261L9.44193 11.4919C9.28263 11.3323 9.07078 11.2442 8.84537 11.2442C8.61997 11.2442 8.40812 11.3323 8.24881 11.4919C7.9368 11.8045 7.91574 12.2955 8.19974 12.634L12.3096 17.5288C12.3193 17.5405 12.3299 17.5515 12.341 17.5618Z" fill="black"/>
</g>
</g>
<defs>
<clipPath id="clip0_6474_19559">
<rect width="24" height="24" fill="white" transform="translate(8 8)"/>
</clipPath>
<clipPath id="clip1_6474_19559">
<rect width="24" height="24" fill="white" transform="translate(8 8)"/>
</clipPath>
</defs>
</svg>
