<svg width="40" height="40" viewBox="0 0 40 40" fill="none" xmlns="http://www.w3.org/2000/svg">
<circle cx="20" cy="20" r="19.5" stroke="#A0A0A0"/>
<g clip-path="url(#clip0_6474_19542)">
<g clip-path="url(#clip1_6474_19542)">
<path d="M31.7245 14.6503L20.267 8.28565C20.1018 8.19205 19.8981 8.19205 19.7329 8.28565L8.28089 14.6503C8.1047 14.7494 8.00009 14.9311 8.00009 15.1293V31.2448C7.99459 31.5421 8.23134 31.7844 8.52865 31.7844C8.53416 31.7844 8.53966 31.7844 8.53966 31.7844H31.4603C31.7576 31.7899 31.9998 31.5531 31.9998 31.2558C31.9998 31.2503 31.9998 31.2448 31.9998 31.2448V15.1349C32.0053 14.9311 31.9007 14.7494 31.7245 14.6503ZM27.7108 30.6887H12.2946V28.4313H27.7108V30.6887ZM27.7108 27.3302H12.2946V25.238H27.7108V27.3302ZM27.7108 24.1368H12.2946V22.0446H27.7108V24.1368ZM27.7108 20.9435H12.2946V18.8513H27.7108V20.9435ZM30.9042 30.6887H28.812V18.3172C28.812 18.0144 28.5862 17.7501 28.2779 17.7501H11.7275C11.4247 17.7501 11.1935 18.0144 11.1935 18.3172V30.6887H9.10125V15.4542L20.0027 9.39232L30.9042 15.4542V30.6887Z" fill="black"/>
</g>
</g>
<defs>
<clipPath id="clip0_6474_19542">
<rect width="24" height="24" fill="white" transform="translate(8 8)"/>
</clipPath>
<clipPath id="clip1_6474_19542">
<rect width="24" height="24" fill="white" transform="translate(8 8)"/>
</clipPath>
</defs>
</svg>
