<svg width="40" height="40" viewBox="0 0 40 40" fill="none" xmlns="http://www.w3.org/2000/svg">
<circle cx="20" cy="20" r="19.5" stroke="#A0A0A0"/>
<g clip-path="url(#clip0_6474_19400)">
<g clip-path="url(#clip1_6474_19400)">
<path d="M22.2315 15.9646C21.6785 15.4117 20.7789 15.4117 20.2259 15.9646L17.6315 18.5591L16.8397 17.7674C16.5727 17.5003 16.2166 17.3533 15.8369 17.3533C15.4573 17.3533 15.1012 17.5004 14.8342 17.7674H14.8341C14.2812 18.3203 14.2812 19.2199 14.8341 19.7728L16.4566 21.3953C16.831 21.7697 17.2676 21.9597 17.6849 21.9597C18.0385 21.9597 18.3783 21.8232 18.6546 21.5469L22.2314 17.97C22.7844 17.4172 22.7844 16.5175 22.2315 15.9646ZM21.7011 17.4398L18.1243 21.0166C17.6453 21.4956 17.053 20.931 16.987 20.865L15.3646 19.2426C15.104 18.9821 15.104 18.5582 15.3646 18.2978C15.49 18.1724 15.6577 18.1033 15.837 18.1033C16.0163 18.1033 16.184 18.1724 16.3094 18.2977L17.3663 19.3546C17.5128 19.5011 17.7501 19.5011 17.8966 19.3546L20.7563 16.495C20.8816 16.3696 21.0494 16.3006 21.2287 16.3006C21.4079 16.3006 21.5757 16.3696 21.7011 16.495C21.8265 16.6204 21.8955 16.7881 21.8955 16.9674C21.8956 17.1466 21.8265 17.3144 21.7011 17.4398ZM30.7925 22.0893H27.9072V21.5089C27.9072 21.2199 27.8143 20.9524 27.6572 20.734L28.4504 20.4287C28.5951 20.373 28.6907 20.2339 28.6907 20.0788V17.4308C28.6907 17.2757 28.5951 17.1366 28.4503 17.0809L27.0114 16.527C26.81 15.7583 26.5051 15.0229 26.103 14.3357L26.7293 12.9257C26.7922 12.7839 26.7614 12.618 26.6517 12.5083L24.7794 10.6359C24.6696 10.5262 24.5038 10.4954 24.362 10.5583L22.9514 11.1848C22.2643 10.7828 21.529 10.478 20.7608 10.2766L20.2067 8.83721C20.151 8.69246 20.0119 8.59692 19.8568 8.59692H17.2089C17.0538 8.59692 16.9147 8.69246 16.859 8.83721L16.3049 10.2766C15.5367 10.478 14.8014 10.7828 14.1143 11.1848L12.7037 10.5583C12.562 10.4954 12.3961 10.5262 12.2863 10.6359L10.4139 12.5083C10.3042 12.618 10.2734 12.7838 10.3364 12.9256L10.9628 14.336C10.5608 15.0232 10.256 15.7584 10.0545 16.5269L8.61528 17.0809C8.47053 17.1367 8.375 17.2757 8.375 17.4309V20.0788C8.375 20.2339 8.47053 20.373 8.61528 20.4287L10.0543 20.9826C10.2558 21.7514 10.5607 22.4868 10.9626 23.1739L10.3364 24.584C10.2734 24.7257 10.3042 24.8917 10.4139 25.0013L12.2863 26.8737C12.3961 26.9835 12.5619 27.0143 12.7037 26.9513L14.1142 26.3248C14.8014 26.7267 15.5367 27.0316 16.3049 27.233L16.8589 28.6724C16.9146 28.8171 17.0537 28.9126 17.2089 28.9126H19.2205V30.1353C19.2205 30.8343 19.7892 31.403 20.4882 31.403H29.8135C30.5125 31.403 31.0812 30.8343 31.0812 30.1353V26.2907C31.4419 25.9461 31.625 25.5457 31.625 25.0979V22.9217C31.625 22.4627 31.2515 22.0893 30.7925 22.0893ZM30.875 22.9217V25.0979C30.875 25.3716 30.7458 25.6052 30.4684 25.8329C30.3985 25.8903 30.3175 25.9482 30.2278 26.0049C29.6142 26.3932 28.2485 26.6798 26.5408 26.7832C26.3181 26.2337 25.7793 25.845 25.151 25.845C24.5224 25.845 23.9832 26.2341 23.7608 26.7839C22.0554 26.6813 20.6898 26.3945 20.0741 26.0049C19.9847 25.9484 19.9037 25.8905 19.8335 25.8329C19.5561 25.6051 19.4269 25.3716 19.4269 25.0979V22.9217C19.4269 22.877 19.4646 22.8393 19.5093 22.8393H21.591V23.9517C21.591 24.4747 22.0165 24.9001 22.5395 24.9001H27.7624C28.2854 24.9001 28.7109 24.4747 28.7109 23.9517V22.8393H30.7925C30.8372 22.8393 30.875 22.877 30.875 22.9217ZM25.9001 27.3442C25.9001 27.7573 25.564 28.0933 25.151 28.0933C24.7379 28.0933 24.4018 27.7573 24.4018 27.3442C24.4018 26.9311 24.7379 26.5951 25.151 26.5951C25.564 26.5951 25.9001 26.9311 25.9001 27.3442ZM18.6769 22.9217V24.2894C18.6288 24.2906 18.5807 24.2925 18.5329 24.2925C15.4793 24.2925 12.9951 21.8083 12.9951 18.7548C12.9951 15.7013 15.4793 13.2171 18.5329 13.2171C21.5864 13.2171 24.0706 15.7013 24.0706 18.7548C24.0706 19.2385 24.0077 19.7161 23.885 20.1786H23.725C22.9915 20.1786 22.3947 20.7754 22.3947 21.5089V22.0892H19.5093C19.0503 22.0893 18.6769 22.4627 18.6769 22.9217ZM26.3115 22.0893H23.9903V21.7743H26.3115V22.0893ZM27.9609 22.8393V23.9517C27.9609 24.0593 27.87 24.1501 27.7624 24.1501H22.5395C22.4319 24.1501 22.341 24.0593 22.341 23.9517V22.8393H27.9609ZM27.0615 22.0893V21.5089C27.0615 21.2417 26.8441 21.0243 26.5769 21.0243H23.725C23.4577 21.0243 23.2403 21.2417 23.2403 21.5089V22.0893H23.1447V21.5089C23.1447 21.189 23.405 20.9287 23.725 20.9287H26.5769C26.8969 20.9287 27.1572 21.189 27.1572 21.5089V22.0893H27.0615ZM17.4664 28.1626L16.9348 26.7818C16.8905 26.6664 16.792 26.5803 16.6717 26.5516C15.8467 26.3553 15.0611 26.0296 14.3368 25.5836C14.2314 25.5188 14.1009 25.51 13.988 25.5602L12.6346 26.1613L11.1264 24.6531L11.7272 23.3003C11.7774 23.1872 11.7687 23.0567 11.7038 22.9514C11.2578 22.2273 10.9321 21.4415 10.7356 20.6158C10.707 20.4955 10.621 20.397 10.5056 20.3527L9.125 19.8213V17.6883L10.5057 17.1569C10.6211 17.1125 10.7072 17.014 10.7358 16.8937C10.9322 16.0685 11.2579 15.2828 11.7039 14.5586C11.7687 14.4533 11.7775 14.3228 11.7273 14.2097L11.1263 12.8565L12.6345 11.3483L13.9879 11.9494C14.1008 11.9995 14.2314 11.9908 14.3367 11.9259C15.061 11.4799 15.8466 11.1542 16.6716 10.9579C16.7919 10.9293 16.8904 10.8432 16.9347 10.7278L17.4663 9.34692H19.5992L20.1308 10.7278C20.1752 10.8432 20.2737 10.9293 20.3939 10.9579C21.2189 11.1542 22.0045 11.48 22.7288 11.9259C22.8342 11.9908 22.9647 11.9995 23.0776 11.9494L24.431 11.3483L25.9393 12.8565L25.3384 14.2093C25.2882 14.3224 25.297 14.4529 25.3618 14.5582C25.8079 15.2824 26.1336 16.0682 26.33 16.8938C26.3586 17.014 26.4447 17.1125 26.5601 17.157L27.9406 17.6883V19.8212L26.9053 20.2197C26.8002 20.1929 26.6902 20.1786 26.5768 20.1786H24.658C24.7657 19.7138 24.8204 19.2368 24.8204 18.7548C24.8204 15.2877 21.9998 12.4671 18.5327 12.4671C15.0657 12.4671 12.2451 15.2877 12.2451 18.7548C12.2451 22.2218 15.0658 25.0425 18.5329 25.0425C18.5807 25.0425 18.6288 25.0419 18.6769 25.0408V25.0979C18.6769 25.5456 18.8599 25.946 19.2205 26.2906V28.1626H17.4664ZM29.8136 30.653H20.4882C20.2027 30.653 19.9705 30.4208 19.9705 30.1353V26.8014C20.9704 27.2798 22.5708 27.4611 23.6636 27.5295C23.7553 28.269 24.3871 28.8433 25.1509 28.8433C25.9152 28.8433 26.5472 28.2683 26.6383 27.5283C27.6186 27.4651 29.3037 27.2882 30.3312 26.8004V30.1353C30.3313 30.4208 30.099 30.653 29.8136 30.653Z" fill="black"/>
</g>
</g>
<defs>
<clipPath id="clip0_6474_19400">
<rect width="24" height="24" fill="white" transform="translate(8 8)"/>
</clipPath>
<clipPath id="clip1_6474_19400">
<rect width="24" height="24" fill="white" transform="translate(8 8)"/>
</clipPath>
</defs>
</svg>
