<svg width="40" height="40" viewBox="0 0 40 40" fill="none" xmlns="http://www.w3.org/2000/svg">
<circle cx="20" cy="20" r="19.5" stroke="#A0A0A0"/>
<g clip-path="url(#clip0_6474_19627)">
<g clip-path="url(#clip1_6474_19627)">
<path d="M31.6306 19.0022C30.124 18.2526 28.7303 17.295 27.4903 16.1574C28.1273 13.749 28.5998 11.3 28.9048 8.82753C28.9763 8.25153 28.6556 8.06565 28.556 8.02249C28.2753 7.91564 27.9582 8.02081 27.797 8.27421C25.6079 10.8934 22.6095 10.5945 19.4348 10.2764C16.2354 9.95637 12.9346 9.63173 10.4875 12.4409C10.1453 12.0138 9.58134 11.8318 9.054 11.9783L8.99892 11.9938C8.27327 12.1976 7.8494 12.9502 8.05128 13.6764L12.9348 31.152C13.0765 31.6578 13.5369 32.008 14.0622 32.0094C14.1693 32.0092 14.2759 31.9945 14.379 31.9657L14.8063 31.8463C15.1057 31.7627 15.3601 31.5635 15.5126 31.2925C15.6651 31.0216 15.7038 30.7012 15.62 30.4018L14.1075 24.9887C16.3102 22.1564 19.3795 22.4564 22.627 22.7807C25.8708 23.1047 29.2216 23.4391 31.683 20.4956L31.6842 20.494C31.926 20.1926 32.0255 19.8014 31.9572 19.4211C31.9212 19.2374 31.7999 19.0819 31.6306 19.0022ZM14.8153 30.9C14.7672 30.9863 14.6865 31.0497 14.5913 31.076L14.164 31.1953C13.966 31.2504 13.7608 31.1348 13.7054 30.9369L8.82156 13.4611C8.73819 13.1602 8.91391 12.8485 9.21456 12.764L9.26924 12.7488C9.3187 12.7348 9.36985 12.7278 9.42124 12.7278C9.67495 12.7283 9.89757 12.897 9.96648 13.1412L10.0098 13.2962V13.2971L12.511 22.2473L14.8497 30.6168C14.8765 30.712 14.8641 30.814 14.8153 30.9ZM31.0685 19.983C28.879 22.6014 25.8802 22.302 22.7068 21.9846C19.5454 21.6686 16.2828 21.3426 13.8447 24.0469L11.6595 16.2277L10.8338 13.2728C13.0365 10.441 16.1056 10.748 19.3556 11.0725C22.4415 11.3803 25.627 11.699 28.0505 9.18869C27.7518 11.4687 27.3066 13.7272 26.7177 15.95C26.638 16.2374 26.7284 16.5452 26.9509 16.7438C28.2223 17.9078 29.6455 18.8943 31.1817 19.6764C31.1732 19.7871 31.134 19.8933 31.0685 19.983Z" fill="black"/>
</g>
</g>
<defs>
<clipPath id="clip0_6474_19627">
<rect width="24" height="24" fill="white" transform="translate(8 8)"/>
</clipPath>
<clipPath id="clip1_6474_19627">
<rect width="24" height="24" fill="white" transform="translate(8 8)"/>
</clipPath>
</defs>
</svg>
