<svg width="40" height="40" viewBox="0 0 40 40" fill="none" xmlns="http://www.w3.org/2000/svg">
<circle cx="20" cy="20" r="19.5" stroke="#A0A0A0"/>
<g clip-path="url(#clip0_6474_19610)">
<path fill-rule="evenodd" clip-rule="evenodd" d="M12.25 23.8333C11.8358 23.8333 11.5 24.1691 11.5 24.5833V27.75C11.5 28.1642 11.8358 28.5 12.25 28.5H13.1329C13.5471 28.5 13.8829 28.1642 13.8829 27.75V24.5833C13.8829 24.1691 13.5471 23.8333 13.1329 23.8333H12.25ZM10 24.5833C10 23.3407 11.0074 22.3333 12.25 22.3333H13.1329C14.3756 22.3333 15.3829 23.3407 15.3829 24.5833V27.75C15.3829 28.9926 14.3756 30 13.1329 30H12.25C11.0074 30 10 28.9926 10 27.75V24.5833Z" fill="black"/>
<path fill-rule="evenodd" clip-rule="evenodd" d="M19.5586 17.6667C19.1444 17.6667 18.8086 18.0025 18.8086 18.4167V27.7501C18.8086 28.1643 19.1444 28.5001 19.5586 28.5001H20.4416C20.8558 28.5001 21.1916 28.1643 21.1916 27.7501V18.4167C21.1916 18.0025 20.8558 17.6667 20.4416 17.6667H19.5586ZM17.3086 18.4167C17.3086 17.1741 18.316 16.1667 19.5586 16.1667H20.4416C21.6842 16.1667 22.6916 17.1741 22.6916 18.4167V27.7501C22.6916 28.9927 21.6842 30.0001 20.4416 30.0001H19.5586C18.316 30.0001 17.3086 28.9927 17.3086 27.7501V18.4167Z" fill="black"/>
<path fill-rule="evenodd" clip-rule="evenodd" d="M26.8672 11.5C26.453 11.5 26.1172 11.8358 26.1172 12.25V27.75C26.1172 28.1642 26.453 28.5 26.8672 28.5H27.7501C28.1643 28.5 28.5001 28.1642 28.5001 27.75V12.25C28.5001 11.8358 28.1643 11.5 27.7501 11.5H26.8672ZM24.6172 12.25C24.6172 11.0074 25.6245 10 26.8672 10H27.7501C28.9927 10 30.0001 11.0074 30.0001 12.25V27.75C30.0001 28.9926 28.9927 30 27.7501 30H26.8672C25.6245 30 24.6172 28.9926 24.6172 27.75V12.25Z" fill="black"/>
<path fill-rule="evenodd" clip-rule="evenodd" d="M10.2197 10.4702C10.5126 10.1773 10.9874 10.1773 11.2803 10.4702L13.0505 12.2403L14.8206 10.4702C15.1135 10.1773 15.5884 10.1773 15.8813 10.4702C16.1742 10.7631 16.1742 11.2379 15.8813 11.5308L14.1111 13.301L15.8813 15.0711C16.1742 15.364 16.1742 15.8389 15.8813 16.1318C15.5884 16.4247 15.1135 16.4247 14.8206 16.1318L13.0505 14.3616L11.2803 16.1318C10.9874 16.4247 10.5126 16.4247 10.2197 16.1318C9.92678 15.8389 9.92678 15.364 10.2197 15.0711L11.9898 13.301L10.2197 11.5308C9.92678 11.2379 9.92678 10.7631 10.2197 10.4702Z" fill="black"/>
</g>
<defs>
<clipPath id="clip0_6474_19610">
<rect width="24" height="24" fill="white" transform="translate(8 8)"/>
</clipPath>
</defs>
</svg>
