<svg width="40" height="40" viewBox="0 0 40 40" fill="none" xmlns="http://www.w3.org/2000/svg">
<circle cx="20" cy="20" r="19.5" stroke="#A0A0A0"/>
<g clip-path="url(#clip0_6474_19490)">
<path d="M20.5088 11.7496C20.4106 11.7437 20.3141 11.7766 20.2399 11.8412C20.1658 11.9059 20.12 11.997 20.1124 12.0951C20.1048 12.1931 20.1361 12.2902 20.1994 12.3655C20.2627 12.4407 20.353 12.4881 20.4509 12.4974C21.6592 12.5977 22.8051 13.0763 23.7259 13.865C24.6466 14.6538 25.2954 15.7126 25.5801 16.8912C25.1015 16.9096 24.6284 16.7831 24.2229 16.5283C22.9297 15.9222 21.5185 15.6094 20.0903 15.6123C18.6622 15.6152 17.2523 15.9337 15.9615 16.5449C15.1546 17.0092 14.6467 16.8584 14.4453 16.7561C14.7252 15.6879 15.308 14.7234 16.1236 13.979C16.9393 13.2345 17.9528 12.7419 19.0421 12.5605C19.139 12.5428 19.2249 12.4876 19.2814 12.4069C19.3379 12.3263 19.3604 12.2266 19.3441 12.1295C19.3277 12.0324 19.2738 11.9456 19.194 11.8879C19.1142 11.8302 19.0149 11.8063 18.9176 11.8212C11.7258 13.1633 11.7486 23.2808 18.9169 24.6318C19.7819 24.7776 20.6675 24.7467 21.5202 24.5409C22.3729 24.3352 23.1752 23.9589 23.8785 23.4348C24.5819 22.9106 25.1718 22.2494 25.6127 21.4911C26.0536 20.7328 26.3364 19.893 26.444 19.0224C26.5516 18.1519 26.4817 17.2685 26.2387 16.4257C25.9956 15.5828 25.5844 14.7979 25.0298 14.1183C24.4751 13.4387 23.7886 12.8785 23.0116 12.4714C22.2346 12.0643 21.3832 11.8187 20.5088 11.7496ZM14.4216 19.5857L15.5712 19.4583C15.7962 19.4324 16.0241 19.4656 16.2324 19.5546C16.4407 19.6436 16.6223 19.7854 16.7592 19.9659L17.9457 21.5053C18.0718 21.6723 18.1585 21.8658 18.1995 22.071L18.5102 23.7735C17.516 23.5058 16.612 22.9759 15.8928 22.2392C15.1735 21.5025 14.6654 20.586 14.4216 19.5857ZM19.3 23.925L18.9363 21.9315C18.8732 21.6115 18.7382 21.31 18.5415 21.0499L17.3539 19.509C17.1371 19.2275 16.8517 19.0064 16.5249 18.8669C16.198 18.7275 15.8409 18.6745 15.4877 18.7129L14.2929 18.8452C14.2399 18.4004 14.2437 17.9506 14.3043 17.5066C14.643 17.6104 15.0007 17.6367 15.351 17.5836C15.7012 17.5304 16.0351 17.3991 16.3277 17.1995C17.5143 16.6577 18.8036 16.3773 20.108 16.3774C21.4125 16.3775 22.7016 16.6581 23.8882 17.2001C24.3708 17.4909 24.9232 17.6453 25.4867 17.6468C25.8505 17.5468 25.7083 17.9786 25.7449 18.2246C25.7435 18.432 25.7308 18.6392 25.7066 18.8452L24.5126 18.7131C24.1594 18.6742 23.8022 18.7269 23.4753 18.8662C23.1485 19.0054 22.863 19.2265 22.6463 19.5081L21.4562 21.0522C21.2595 21.3132 21.1248 21.6155 21.0625 21.9363L20.6995 23.925C20.2348 23.9822 19.7647 23.9822 19.3 23.925ZM21.4894 23.7732L21.7993 22.0758C21.8395 21.8698 21.9259 21.6755 22.052 21.5076L23.2411 19.965C23.3781 19.7847 23.5598 19.6433 23.768 19.5545C23.9763 19.4657 24.2041 19.4326 24.4291 19.4585L25.578 19.5858C25.3343 20.5861 24.8262 21.5025 24.1069 22.2392C23.3876 22.9758 22.4836 23.5056 21.4894 23.7732Z" fill="black"/>
<path d="M11.2948 25.754C11.2539 25.6644 11.1794 25.5944 11.0873 25.5593C10.9953 25.5242 10.8931 25.5267 10.8029 25.5663C10.7126 25.6059 10.6416 25.6794 10.6051 25.7709C10.5686 25.8624 10.5696 25.9646 10.6078 26.0554C10.8117 26.4371 10.936 26.8561 10.9733 27.2872C11.0106 27.7182 10.9602 28.1524 10.825 28.5634L10.5024 29.5198C10.4865 29.5664 10.48 29.6158 10.4832 29.665C10.4865 29.7142 10.4994 29.7623 10.5212 29.8065C10.543 29.8507 10.5734 29.8901 10.6105 29.9226C10.6476 29.9551 10.6907 29.9799 10.7374 29.9956C10.7841 30.0114 10.8335 30.0178 10.8827 30.0145C10.9319 30.0112 10.9799 29.9982 11.0241 29.9762C11.0682 29.9543 11.1076 29.9239 11.14 29.8867C11.1724 29.8496 11.1971 29.8064 11.2128 29.7596L11.5354 28.8038C11.7011 28.3052 11.7652 27.7784 11.7238 27.2546C11.6825 26.7307 11.5366 26.2205 11.2948 25.754Z" fill="black"/>
<path d="M30.2191 24.1787C30.5359 23.4589 30.586 22.6499 30.3605 21.8965L29.6581 19.5505C29.5788 19.2879 29.4397 19.0473 29.2517 18.8476C29.0637 18.6479 28.8318 18.4946 28.5745 18.3997L28.3306 18.3103C28.3309 18.2817 28.3339 18.2532 28.3339 18.2245C28.3339 16.0141 27.4558 13.8943 25.8928 12.3313C24.3299 10.7683 22.21 9.89026 19.9996 9.89026C17.7893 9.89026 15.6694 10.7683 14.1065 12.3313C12.5435 13.8943 11.6654 16.0141 11.6654 18.2245C11.6654 18.2536 11.6685 18.2826 11.6688 18.3117L11.4266 18.4008C11.1691 18.4954 10.937 18.6483 10.7485 18.8477C10.5601 19.047 10.4204 19.2874 10.3405 19.5498L9.63914 21.8974C9.4138 22.6498 9.46339 23.4578 9.77903 24.1771C9.92631 24.4723 10.0275 25.0233 10.4833 24.8452C10.5743 24.8051 10.6456 24.7304 10.6816 24.6377C10.7175 24.545 10.7152 24.4418 10.6752 24.3508L10.4653 23.8744C10.2216 23.3182 10.1835 22.6935 10.3577 22.1118L11.0586 19.7661C11.1056 19.6091 11.19 19.466 11.3046 19.3488C11.4191 19.2317 11.5603 19.1441 11.7162 19.0936C11.7627 19.5386 11.8446 19.9793 11.9609 20.4114C11.7305 20.5212 11.5482 20.7114 11.4483 20.9463C11.3484 21.1812 11.3378 21.4445 11.4185 21.6867L12.0415 23.5497C12.1588 23.9005 12.183 24.2757 12.1118 24.6387C12.1022 24.687 12.1022 24.7369 12.1118 24.7853C12.1214 24.8336 12.1405 24.8797 12.168 24.9206C12.1954 24.9616 12.2307 24.9968 12.2718 25.0242C12.3128 25.0515 12.3589 25.0705 12.4073 25.08C12.4557 25.0895 12.5055 25.0894 12.5539 25.0796C12.6023 25.0698 12.6482 25.0506 12.6892 25.0231C12.7301 24.9955 12.7652 24.9601 12.7924 24.919C12.8196 24.8779 12.8385 24.8318 12.8479 24.7833C13.1126 23.8307 12.3899 22.3462 12.1298 21.4484C12.1098 21.3755 12.1169 21.2979 12.1496 21.2298C12.1824 21.1616 12.2387 21.1077 12.3081 21.0778C12.3775 21.0479 12.4554 21.044 12.5274 21.067C12.5994 21.0899 12.6607 21.1381 12.7 21.2027C12.7 21.2027 14.4021 23.9474 14.4156 23.9628C14.7545 24.4017 14.969 24.9238 15.0364 25.4742C15.1656 26.3766 14.6953 27.2033 14.3904 28.1122C14.1238 28.6383 14.0197 29.232 14.0915 29.8174C14.1134 29.9136 14.1723 29.9972 14.2555 30.0502C14.3386 30.1033 14.4393 30.1214 14.5357 30.1008C14.6321 30.0801 14.7165 30.0223 14.7706 29.9399C14.8247 29.8574 14.8441 29.757 14.8247 29.6603C14.7958 29.2437 14.8774 28.8269 15.0613 28.452C15.4284 27.4221 15.9284 26.4537 15.7824 25.4108C17.0599 26.1648 18.5162 26.5625 19.9996 26.5625C21.4831 26.5625 22.9394 26.1648 24.2169 25.4108C24.0711 26.4542 24.5702 27.4213 24.938 28.452C25.1219 28.8269 25.2035 29.2438 25.1746 29.6603C25.1554 29.7569 25.175 29.8571 25.2291 29.9393C25.2833 30.0216 25.3675 30.0792 25.4638 30.0998C25.56 30.1205 25.6606 30.1024 25.7436 30.0496C25.8267 29.9967 25.8856 29.9133 25.9077 29.8174C26.1238 28.2344 24.7443 26.9767 24.9629 25.4742C25.0328 24.9244 25.247 24.403 25.5836 23.9628C25.5972 23.9474 27.2993 21.2027 27.2993 21.2027C27.3387 21.1382 27.4001 21.0901 27.4721 21.0673C27.5441 21.0444 27.622 21.0484 27.6913 21.0783C27.7607 21.1083 27.8169 21.1623 27.8496 21.2304C27.8824 21.2985 27.8894 21.3761 27.8695 21.449L27.2466 23.3117C27.112 23.7309 26.8472 25.1654 27.5919 25.079C27.6894 25.0598 27.7753 25.0026 27.8308 24.92C27.8862 24.8374 27.9066 24.7362 27.8874 24.6387C27.8162 24.2757 27.8404 23.9004 27.9578 23.5495L28.5807 21.6872C28.6615 21.445 28.651 21.1815 28.5511 20.9465C28.4512 20.7115 28.2688 20.5211 28.0383 20.4113C28.1549 19.9786 28.2368 19.5374 28.2833 19.0917L28.3166 19.1039C28.4646 19.1585 28.5979 19.2466 28.7059 19.3614C28.814 19.4762 28.894 19.6145 28.9396 19.7655L29.6419 22.1116C29.8165 22.6942 29.7779 23.3199 29.5328 23.8766L28.5851 26.0288C28.1978 26.9062 28.1542 27.8971 28.4631 28.8051L28.788 29.761C28.8212 29.8537 28.8895 29.9296 28.9781 29.9724C29.0668 30.0151 29.1687 30.0214 29.2619 29.9897C29.355 29.958 29.4321 29.891 29.4763 29.8031C29.5206 29.7152 29.5285 29.6134 29.4984 29.5197L29.1736 28.5639C28.9249 27.8337 28.9598 27.0366 29.2714 26.3309L30.2191 24.1787ZM26.6621 20.8076L24.9958 23.497C24.7991 23.75 24.6362 24.0275 24.5112 24.3225C23.206 25.2903 21.6242 25.8126 19.9994 25.8126C18.3746 25.8125 16.7929 25.2899 15.4878 24.3221C15.3628 24.0272 15.2 23.7498 15.0034 23.497L13.3371 20.8076C13.1957 20.5833 12.9762 20.4194 12.7211 20.3474C10.0603 9.27259 26.9926 6.71315 27.5839 18.2247C27.5819 18.9431 27.479 19.6576 27.2781 20.3474C27.023 20.4194 26.8035 20.5833 26.6621 20.8076Z" fill="black"/>
<path d="M21.7371 18.8472C21.664 16.5508 18.3345 16.5513 18.2617 18.8473C18.3349 21.1434 21.6643 21.1428 21.7371 18.8472ZM19.9994 19.8347C19.7394 19.8318 19.491 19.7265 19.3082 19.5416C19.1254 19.3567 19.0228 19.1071 19.0228 18.8471C19.0228 18.5871 19.1254 18.3376 19.3082 18.1527C19.491 17.9678 19.7394 17.8625 19.9994 17.8596C20.2594 17.8625 20.5078 17.9678 20.6906 18.1527C20.8735 18.3376 20.976 18.5871 20.976 18.8472C20.976 19.1072 20.8734 19.3567 20.6906 19.5416C20.5078 19.7265 20.2594 19.8318 19.9994 19.8347Z" fill="black"/>
</g>
<defs>
<clipPath id="clip0_6474_19490">
<rect width="24" height="24" fill="white" transform="translate(8 8)"/>
</clipPath>
</defs>
</svg>
