<svg width="40" height="40" viewBox="0 0 40 40" fill="none" xmlns="http://www.w3.org/2000/svg">
<circle cx="20" cy="20" r="19.5" stroke="#A0A0A0"/>
<g clip-path="url(#clip0_6474_19593)">
<g clip-path="url(#clip1_6474_19593)">
<path d="M29.4879 25.8444C29.0724 25.5354 28.4852 25.6217 28.1761 26.037C28.0061 26.2655 27.8243 26.4896 27.6355 26.7031C27.2926 27.091 27.329 27.6835 27.7169 28.0264C27.8953 28.1841 28.1168 28.2616 28.3375 28.2616C28.5968 28.2616 28.855 28.1546 29.0403 27.945C29.2638 27.6921 29.4792 27.4267 29.6805 27.1561C29.9895 26.7408 29.9033 26.1534 29.4879 25.8444Z" fill="black"/>
<path d="M31.0559 21.4478C30.5503 21.3377 30.0506 21.6585 29.9405 22.1644C29.8799 22.4427 29.8067 22.7215 29.7227 22.9932C29.5698 23.4879 29.847 24.0128 30.3416 24.1657C30.4338 24.1941 30.527 24.2077 30.6187 24.2077C31.019 24.2077 31.3897 23.9492 31.5141 23.5467C31.6138 23.2243 31.7007 22.8934 31.7726 22.5632C31.8827 22.0574 31.5618 21.5579 31.0559 21.4478Z" fill="black"/>
<path d="M24.975 28.8469C24.7261 28.9859 24.4684 29.1157 24.2091 29.2329C23.7372 29.446 23.5274 30.0012 23.7405 30.4731C23.8971 30.8198 24.2383 31.025 24.5955 31.025C24.7245 31.025 24.8556 30.9982 24.9808 30.9417C25.2884 30.8027 25.594 30.6488 25.8891 30.484C26.3412 30.2316 26.5031 29.6605 26.2506 29.2084C25.9983 28.7564 25.4272 28.5946 24.975 28.8469Z" fill="black"/>
<path d="M19.0629 12.5V19.6117L15.6252 23.0494C15.2591 23.4155 15.2591 24.0091 15.6252 24.3752C15.8083 24.5583 16.0481 24.6498 16.2881 24.6498C16.528 24.6498 16.768 24.5583 16.9511 24.3752L20.6634 20.6629C20.8392 20.4871 20.9379 20.2486 20.9379 20V12.5C20.9379 11.9822 20.5182 11.5625 20.0004 11.5625C19.4826 11.5625 19.0629 11.9822 19.0629 12.5Z" fill="black"/>
<path d="M31.0625 10.0156C30.5447 10.0156 30.125 10.4353 30.125 10.9531V13.5564C27.9429 10.1341 24.1321 8 20 8C16.7947 8 13.7812 9.24823 11.5147 11.5147C9.24823 13.7812 8 16.7947 8 20C8 23.2053 9.24823 26.2188 11.5147 28.4853C13.7812 30.7518 16.7947 32 20 32C20.0079 32 20.0156 31.999 20.0234 31.9988C20.0313 31.999 20.039 32 20.0469 32C20.3848 32 20.726 31.9858 21.0611 31.9577C21.5771 31.9145 21.9603 31.4612 21.9171 30.9453C21.8739 30.4293 21.4212 30.0459 20.9046 30.0893C20.6213 30.113 20.3328 30.125 20.0469 30.125C20.039 30.125 20.0313 30.126 20.0234 30.1262C20.0156 30.126 20.0079 30.125 20 30.125C14.417 30.125 9.875 25.583 9.875 20C9.875 14.417 14.417 9.875 20 9.875C23.598 9.875 26.9074 11.7928 28.7157 14.8438H26.138C25.6202 14.8438 25.2005 15.2635 25.2005 15.7813C25.2005 16.299 25.6202 16.7188 26.138 16.7188H29C29.5709 16.7188 30.1051 16.5583 30.5599 16.2803C30.5891 16.2636 30.6172 16.2457 30.644 16.2263C31.46 15.6896 32 14.7663 32 13.7188V10.9531C32 10.4353 31.5803 10.0156 31.0625 10.0156Z" fill="black"/>
</g>
</g>
<defs>
<clipPath id="clip0_6474_19593">
<rect width="24" height="24" fill="white" transform="translate(8 8)"/>
</clipPath>
<clipPath id="clip1_6474_19593">
<rect width="24" height="24" fill="white" transform="translate(8 8)"/>
</clipPath>
</defs>
</svg>
