<svg width="24" height="20" viewBox="0 0 24 20" fill="none" xmlns="http://www.w3.org/2000/svg">
<path d="M23.3944 18.5595H21.8301V17.685C21.8301 17.4721 21.6575 17.2994 21.4445 17.2994C21.2315 17.2994 21.0588 17.472 21.0588 17.685V18.5595H17.5769V17.685C17.5769 17.4721 17.4043 17.2994 17.1913 17.2994C16.9783 17.2994 16.8056 17.472 16.8056 17.685V18.5595H13.3237V17.685C13.3237 17.4721 13.151 17.2994 12.938 17.2994C12.7251 17.2994 12.5524 17.472 12.5524 17.685V18.5595H9.07045V17.685C9.07045 17.4721 8.89781 17.2994 8.68481 17.2994C8.47186 17.2994 8.29917 17.472 8.29917 17.685V18.5595H4.8172V17.685C4.8172 17.4721 4.64456 17.2994 4.43156 17.2994C4.21861 17.2994 4.04592 17.472 4.04592 17.685V18.5595H0.771281V16.0647H1.59698C1.80994 16.0647 1.98263 15.892 1.98263 15.679C1.98263 15.4661 1.80998 15.2934 1.59698 15.2934H0.771281V12.9448H1.59698C1.80994 12.9448 1.98263 12.7722 1.98263 12.5592C1.98263 12.3462 1.80998 12.1735 1.59698 12.1735H0.771281V9.82495H1.59698C1.80994 9.82495 1.98263 9.65232 1.98263 9.43931C1.98263 9.22631 1.80998 9.05367 1.59698 9.05367H0.771281V6.7051H1.59698C1.80994 6.7051 1.98263 6.53245 1.98263 6.31945C1.98263 6.1065 1.80998 5.93381 1.59698 5.93381H0.771281V3.58524H1.59698C1.80994 3.58524 1.98263 3.4126 1.98263 3.1996C1.98263 2.9866 1.80998 2.81395 1.59698 2.81395H0.771281V1.05483C0.771281 0.841877 0.598641 0.669189 0.385641 0.669189C0.172641 0.669189 0 0.841877 0 1.05483V18.9451C0 19.1581 0.172641 19.3308 0.385641 19.3308H23.3944C23.6073 19.3308 23.78 19.1581 23.78 18.9451C23.78 18.7321 23.6074 18.5595 23.3944 18.5595ZM23.6229 13.413C23.607 13.4126 22.0195 13.3705 20.7709 12.7462C19.5113 12.1164 18.2963 10.0991 15.7953 10.0991C15.7565 10.0991 15.719 10.105 15.6836 10.1157C15.6482 10.105 15.6108 10.0991 15.5719 10.0991C15.5082 10.0991 15.4455 10.1009 15.3834 10.1034C15.3144 9.85613 15.2547 9.59714 15.2067 9.32527C14.6175 5.98364 13.6899 2.53913 11.2775 2.32805C11.2521 2.32585 11.2271 2.32627 11.2027 2.32889C11.1786 2.32636 11.1539 2.32589 11.1288 2.32805C8.71641 2.53913 7.78875 5.98364 7.19953 9.32527C6.92016 10.9099 6.23025 12.2607 5.14913 13.3401C4.33763 14.1503 3.59677 14.496 3.58903 14.4995C3.39567 14.5878 3.31017 14.816 3.39806 15.0097C3.48581 15.203 3.71414 15.2897 3.90858 15.2015C3.94294 15.1859 4.76109 14.809 5.66813 13.9117C6.50025 13.0885 7.57317 11.6478 7.95909 9.45919C8.71209 5.18874 9.71039 3.22636 11.196 3.09638C11.1984 3.09619 11.2007 3.09563 11.2031 3.09539C11.2055 3.09563 11.2078 3.09619 11.2102 3.09638C12.6959 3.22636 13.6942 5.18874 14.4472 9.45919C14.4929 9.71855 14.5485 9.96708 14.612 10.2056C12.7297 10.6319 11.6808 12.2039 10.5963 12.7462C9.35245 13.368 7.75997 13.4126 7.74403 13.413C7.53122 13.4178 7.36261 13.5942 7.36734 13.807C7.37208 14.0198 7.54852 14.1888 7.76147 14.184C7.83342 14.1824 9.53958 14.1368 10.9413 13.436C12.189 12.8122 13.143 11.2908 14.844 10.943C15.3476 12.3203 16.1112 13.2914 16.7382 13.9117C17.6452 14.8089 18.4633 15.1858 18.4977 15.2014C18.6925 15.2898 18.9206 15.2027 19.0082 15.0096C19.0963 14.8156 19.0104 14.5871 18.8164 14.4991C18.7915 14.4878 16.6802 13.4998 15.6387 10.8642C15.654 10.8615 15.669 10.8582 15.6836 10.8538C15.719 10.8645 15.7565 10.8703 15.7953 10.8703C17.9814 10.8703 19.0066 12.7262 20.426 13.4359C21.8276 14.1368 23.5338 14.1824 23.6058 14.184C23.8185 14.1888 23.9952 14.0199 23.9999 13.807C24.0046 13.5942 23.8358 13.4178 23.6229 13.413Z" fill="#959291"/>
</svg>
