<svg xmlns="http://www.w3.org/2000/svg" width="23" height="23" viewBox="0 0 23 23" fill="none">
  <path d="M21.25 8.875H17.75C17.1977 8.875 16.75 9.32272 16.75 9.875V21.375C16.75 21.9273 17.1977 22.375 17.75 22.375H21.25C21.8023 22.375 22.25 21.9273 22.25 21.375V9.875C22.25 9.32272 21.8023 8.875 21.25 8.875Z" fill="#959291"/>
  <path d="M13.25 12.875H9.75C9.19772 12.875 8.75 13.3227 8.75 13.875V21.375C8.75 21.9273 9.19772 22.375 9.75 22.375H13.25C13.8023 22.375 14.25 21.9273 14.25 21.375V13.875C14.25 13.3227 13.8023 12.875 13.25 12.875Z" fill="#959291"/>
  <path d="M5.25 14.875H1.75C1.19772 14.875 0.75 15.3227 0.75 15.875V21.375C0.75 21.9273 1.19772 22.375 1.75 22.375H5.25C5.80228 22.375 6.25 21.9273 6.25 21.375V15.875C6.25 15.3227 5.80228 14.875 5.25 14.875Z" fill="#959291"/>
  <path d="M2.49969 13.625C2.26291 13.6222 2.03483 13.5354 1.85604 13.3801C1.67725 13.2248 1.55936 13.0112 1.52335 12.7771C1.48734 12.5431 1.53556 12.3039 1.65941 12.102C1.78326 11.9002 1.97472 11.7489 2.19969 11.675C5.26672 10.7046 8.21517 9.39303 10.9897 7.765C14.2059 5.87437 17.1639 3.57526 19.7897 0.925C19.8823 0.830512 19.9928 0.755342 20.1146 0.703845C20.2365 0.652349 20.3674 0.625549 20.4997 0.625C20.762 0.626105 21.0134 0.730256 21.1997 0.915C21.3859 1.10236 21.4905 1.35581 21.4905 1.62C21.4905 1.88419 21.3859 2.13764 21.1997 2.325C18.4574 5.10159 15.3647 7.50856 11.9997 9.485C9.09928 11.2081 6.01292 12.597 2.79969 13.625C2.70026 13.6401 2.59912 13.6401 2.49969 13.625Z" fill="#959291"/>
  <path d="M20.5 6.625C20.2348 6.625 19.9804 6.51964 19.7929 6.33211C19.6054 6.14457 19.5 5.89022 19.5 5.625V2.625H16.5C16.2348 2.625 15.9804 2.51964 15.7929 2.33211C15.6054 2.14457 15.5 1.89022 15.5 1.625C15.5 1.35978 15.6054 1.10543 15.7929 0.917893C15.9804 0.730357 16.2348 0.625 16.5 0.625H20.5C20.7652 0.625 21.0196 0.730357 21.2071 0.917893C21.3946 1.10543 21.5 1.35978 21.5 1.625V5.625C21.5 5.89022 21.3946 6.14457 21.2071 6.33211C21.0196 6.51964 20.7652 6.625 20.5 6.625Z" fill="#959291"/>
</svg>