<svg width="24" height="24" viewBox="0 0 24 24" fill="none" xmlns="http://www.w3.org/2000/svg">
<g clip-path="url(#clip0_2920_9574)">
<path d="M20.4844 0H3.51562C2.58406 0.00272064 1.69143 0.373989 1.03271 1.03271C0.373989 1.69143 0.00272064 2.58406 0 3.51562L0 20.4844C0.00272064 21.4159 0.373989 22.3086 1.03271 22.9673C1.69143 23.626 2.58406 23.9973 3.51562 24H20.4844C21.4159 23.9973 22.3086 23.626 22.9673 22.9673C23.626 22.3086 23.9973 21.4159 24 20.4844V3.51562C23.9973 2.58406 23.626 1.69143 22.9673 1.03271C22.3086 0.373989 21.4159 0.00272064 20.4844 0ZM23.0625 20.4844C23.0599 21.1673 22.7875 21.8216 22.3045 22.3045C21.8216 22.7875 21.1673 23.0599 20.4844 23.0625H3.51562C2.83266 23.0599 2.17841 22.7875 1.69548 22.3045C1.21255 21.8216 0.940093 21.1673 0.9375 20.4844V3.51562C0.940093 2.83266 1.21255 2.17841 1.69548 1.69548C2.17841 1.21255 2.83266 0.940093 3.51562 0.9375H20.4844C21.1673 0.940093 21.8216 1.21255 22.3045 1.69548C22.7875 2.17841 23.0599 2.83266 23.0625 3.51562V20.4844Z" fill="#959291"/>
<path d="M16.2916 5.65359C15.3032 4.77484 13.9471 4.3353 12.2234 4.33499H6.48633V19.3312H9.49383V13.8937H12.2234C13.9465 13.8937 15.3026 13.4576 16.2916 12.5855C17.2807 11.7133 17.7751 10.5598 17.7748 9.12515C17.7748 7.68952 17.2804 6.53234 16.2916 5.65359ZM14.1288 10.8909C13.696 11.3491 13.0609 11.5781 12.2234 11.5781H9.49383V6.65624H12.2234C13.0671 6.65624 13.704 6.8914 14.134 7.36171C14.564 7.83202 14.7785 8.42765 14.7776 9.14858C14.7776 9.85358 14.5613 10.4344 14.1288 10.8909Z" fill="#959291"/>
</g>
<defs>
<clipPath id="clip0_2920_9574">
<rect width="24" height="24" fill="white"/>
</clipPath>
</defs>
</svg>
