<svg width="24" height="24" viewBox="0 0 24 24" fill="none" xmlns="http://www.w3.org/2000/svg">
<path d="M9.75 15.75H19.6125L17.6625 17.7L18.75 18.75L22.5 15L18.75 11.25L17.7 12.3L19.65 14.25H9.75V15.75Z" fill="#959291"/>
<path d="M16.5 10.5V7.5V7.2V6.9375L11.025 1.5H10.7625C10.7625 1.5 10.575 1.5 10.4625 1.5H3C2.5875 1.5 1.5 1.5 1.5 1.5C1.5 1.5 1.5 2.5875 1.5 3V21V22.5C1.5 22.5 2.5875 22.5 3 22.5H15H16.5C16.5 22.5 16.5 21.4125 16.5 21V19.5H15V21H3V3H9V7.5V9C9 9 10.0875 9 10.5 9H15V10.5H16.5ZM10.5 7.5V3.3L14.7 7.5H10.5Z" fill="#959291"/>
</svg>
