<svg xmlns="http://www.w3.org/2000/svg" width="23" height="23" viewBox="0 0 23 23" fill="none">
  <path d="M22.2498 1.61374L22.2495 6.55761C22.2495 7.10364 21.812 7.54598 21.2724 7.54598C20.7327 7.54598 20.2956 7.10364 20.2956 6.55742V4.00226L14.6181 9.75064C14.427 9.94413 14.1767 10.0402 13.9265 10.0402C13.6766 10.0402 13.4268 9.94394 13.2359 9.75082C12.8543 9.36514 12.8539 8.73931 13.2353 8.35326L18.9146 2.60247H16.3893C15.8496 2.60247 15.4121 2.15976 15.4121 1.61355C15.4121 1.06771 15.8497 0.625 16.3893 0.625H21.2724C21.5318 0.625 21.7802 0.729243 21.9636 0.914956C22.147 1.1003 22.2498 1.35211 22.2498 1.61374ZM21.2726 15.4535C20.7327 15.4535 20.2956 15.8967 20.2956 16.4424V18.9976L14.7133 13.3986C14.3313 13.0125 13.6865 13.0122 13.3049 13.3982C12.9231 13.7837 12.9099 14.4099 13.2911 14.7958L18.8171 20.3975H16.289H16.287C15.7472 20.3975 15.3093 20.8399 15.3091 21.3861C15.3089 21.9316 15.7456 22.3744 16.2855 22.3744L21.1679 22.375C21.4275 22.375 21.7284 22.2708 21.9112 22.0854C22.0944 21.9001 22.25 21.6486 22.25 21.3866V16.4422C22.2498 15.8966 21.8122 15.4535 21.2726 15.4535ZM8.28633 13.3551L2.7046 18.9979V16.4422C2.7046 15.8962 2.27575 15.4546 1.73617 15.4546H1.7402C1.20044 15.4546 0.765009 15.8967 0.765009 16.4422L0.765375 21.3859C0.765375 21.6483 0.868787 21.8997 1.052 22.085C1.23558 22.2706 1.48451 22.3746 1.74368 22.3746H6.62696C7.16672 22.3746 7.60417 21.9319 7.60417 21.3861C7.60417 20.8397 7.16654 20.3972 6.62696 20.3972H4.10241L9.67719 14.7525C10.0592 14.3666 10.0542 13.7398 9.67261 13.3543C9.29099 12.9689 8.66813 12.9692 8.28633 13.3551ZM4.0852 2.69154H6.61013C7.14989 2.69154 7.58715 2.24938 7.58715 1.70354C7.58715 1.15733 7.1497 0.714616 6.61013 0.714616L1.72739 0.714246H1.72721C1.46785 0.714246 1.21966 0.817933 1.03608 1.00328C0.853047 1.18862 0.75 1.43988 0.75 1.70261L0.750549 6.64667C0.750549 7.19196 1.18799 7.63522 1.72757 7.63522C2.26733 7.63522 2.7046 7.19196 2.7046 6.64667V4.09114L8.33758 9.79415C8.52848 9.98745 8.77887 10.0841 9.02907 10.0841C9.27873 10.0841 9.52893 9.98783 9.71965 9.79471C10.1015 9.40903 10.102 8.78264 9.7202 8.39622L4.0852 2.69154Z" fill="#959291"/>
</svg>