<svg width="24" height="24" viewBox="0 0 24 24" fill="none" xmlns="http://www.w3.org/2000/svg">
<rect x="0.5" y="0.5" width="23" height="23" rx="3.5" fill="white"/>
<rect x="0.5" y="0.5" width="23" height="23" rx="3.5" stroke="#D3D5D9"/>
<path d="M12 14C13.1046 14 14 13.1046 14 12C14 10.8954 13.1046 10 12 10C10.8954 10 10 10.8954 10 12C10 13.1046 10.8954 14 12 14Z" stroke="#7A7C7F" stroke-miterlimit="10" stroke-linecap="round" stroke-linejoin="round"/>
<path d="M5.33301 12.5863V11.413C5.33301 10.7196 5.89967 10.1463 6.59967 10.1463C7.80634 10.1463 8.29967 9.29297 7.69301 8.2463C7.34634 7.6463 7.55301 6.8663 8.15967 6.51963L9.31301 5.85963C9.83967 5.5463 10.5197 5.73297 10.833 6.25963L10.9063 6.3863C11.5063 7.43297 12.493 7.43297 13.0997 6.3863L13.173 6.25963C13.4863 5.73297 14.1663 5.5463 14.693 5.85963L15.8463 6.51963C16.453 6.8663 16.6597 7.6463 16.313 8.2463C15.7063 9.29297 16.1997 10.1463 17.4063 10.1463C18.0997 10.1463 18.673 10.713 18.673 11.413V12.5863C18.673 13.2796 18.1063 13.853 17.4063 13.853C16.1997 13.853 15.7063 14.7063 16.313 15.753C16.6597 16.3596 16.453 17.133 15.8463 17.4796L14.693 18.1396C14.1663 18.453 13.4863 18.2663 13.173 17.7396L13.0997 17.613C12.4997 16.5663 11.513 16.5663 10.9063 17.613L10.833 17.7396C10.5197 18.2663 9.83967 18.453 9.31301 18.1396L8.15967 17.4796C7.55301 17.133 7.34634 16.353 7.69301 15.753C8.29967 14.7063 7.80634 13.853 6.59967 13.853C5.89967 13.853 5.33301 13.2796 5.33301 12.5863Z" stroke="#7A7C7F" stroke-miterlimit="10" stroke-linecap="round" stroke-linejoin="round"/>
</svg>
