<svg width="24" height="24" viewBox="0 0 24 24" fill="none" xmlns="http://www.w3.org/2000/svg">
<path d="M12 14.8242C15.1196 14.8242 17.6485 12.2952 17.6485 9.17567C17.6485 6.0561 15.1196 3.52719 12 3.52719C8.88047 3.52719 6.35156 6.0561 6.35156 9.17567C6.35156 12.2952 8.88047 14.8242 12 14.8242Z" stroke="#959291" stroke-miterlimit="10"/>
<path d="M19.8782 9.17566C20.7028 7.4956 20.0338 5.42985 18.3738 4.54048C18.0445 2.68483 16.3069 1.42163 14.4402 1.6808C13.0961 0.386341 10.9212 0.368154 9.5609 1.6808C7.71579 1.42097 5.94779 2.68745 5.62637 4.54573C3.97781 5.41949 3.2931 7.48262 4.12256 9.17646C3.29854 10.8566 3.9675 12.9216 5.62731 13.8109C5.94869 15.6542 7.70539 16.9292 9.56981 16.6743C10.9111 17.9725 13.0843 17.9766 14.4402 16.6706C16.2853 16.9304 18.0533 15.664 18.3747 13.8057C20.0222 12.9321 20.7093 10.8692 19.8782 9.17566Z" stroke="#959291" stroke-miterlimit="10"/>
<path d="M12 17.649L14.9556 22.7682L17.002 20.2719L20.1871 19.7478L17.6646 15.3787" stroke="#959291" stroke-miterlimit="10"/>
<path d="M12.0015 17.649L9.04598 22.7682L6.99949 20.2719L3.81445 19.7478L6.33696 15.3787" stroke="#959291" stroke-miterlimit="10"/>
<path d="M10.5879 12.6974V7.76362C10.5879 6.98371 11.2201 6.3515 12 6.3515C12.7799 6.3515 13.4121 6.98371 13.4121 7.76362V12.6974" stroke="#959291" stroke-miterlimit="10"/>
<path d="M10.5879 9.17572H13.4121" stroke="#959291" stroke-miterlimit="10"/>
</svg>
