<svg width="22" height="22" viewBox="0 0 22 22" fill="none" xmlns="http://www.w3.org/2000/svg">
<path fill-rule="evenodd" clip-rule="evenodd" d="M0.554688 15.6522V20.4046C0.554688 20.7363 0.686251 21.0544 0.920868 21.2891C1.15549 21.5237 1.47365 21.6552 1.80531 21.6552H6.55769C6.83383 21.6552 7.05794 21.4311 7.05794 21.155C7.05794 20.8789 6.83383 20.6547 6.55769 20.6547H1.80531C1.73878 20.6547 1.67525 20.6282 1.62822 20.5817C1.5817 20.5347 1.55519 20.4712 1.55519 20.4046V15.6522C1.55519 15.3761 1.33108 15.152 1.05494 15.152C0.7788 15.152 0.554688 15.3761 0.554688 15.6522ZM15.5622 21.6552H20.3146C20.6462 21.6552 20.9644 21.5237 21.199 21.2891C21.4336 21.0544 21.5652 20.7363 21.5652 20.4046V15.6522C21.5652 15.3761 21.3411 15.152 21.0649 15.152C20.7888 15.152 20.5647 15.3761 20.5647 15.6522V20.4046C20.5647 20.4712 20.5382 20.5347 20.4917 20.5817C20.4446 20.6282 20.3811 20.6547 20.3146 20.6547H15.5622C15.286 20.6547 15.0619 20.8789 15.0619 21.155C15.0619 21.4311 15.286 21.6552 15.5622 21.6552ZM21.5652 6.64774V1.89537C21.5652 1.5637 21.4336 1.24554 21.199 1.01093C20.9644 0.776308 20.6462 0.644745 20.3146 0.644745H15.5622C15.286 0.644745 15.0619 0.868857 15.0619 1.14499C15.0619 1.42113 15.286 1.64524 15.5622 1.64524H20.3146C20.3811 1.64524 20.4446 1.67176 20.4917 1.71828C20.5382 1.7653 20.5647 1.82884 20.5647 1.89537V6.64774C20.5647 6.92388 20.7888 7.14799 21.0649 7.14799C21.3411 7.14799 21.5652 6.92388 21.5652 6.64774ZM6.55769 0.644745H1.80531C1.47365 0.644745 1.15549 0.776308 0.920868 1.01093C0.686251 1.24554 0.554688 1.5637 0.554688 1.89537V6.64774C0.554688 6.92388 0.7788 7.14799 1.05494 7.14799C1.33108 7.14799 1.55519 6.92388 1.55519 6.64774V1.89537C1.55519 1.82884 1.5817 1.7653 1.62822 1.71828C1.67525 1.67176 1.73878 1.64524 1.80531 1.64524H6.55769C6.83383 1.64524 7.05794 1.42113 7.05794 1.14499C7.05794 0.868857 6.83383 0.644745 6.55769 0.644745Z" fill="#959291"/>
<path fill-rule="evenodd" clip-rule="evenodd" d="M16.3301 8.14849H14.8138C14.7303 8.14849 14.6523 8.10646 14.6057 8.03692L13.7173 6.70426C13.4857 6.35658 13.095 6.14749 12.6768 6.14749H9.47817C9.05996 6.14749 8.66926 6.35658 8.43765 6.70426L7.5492 8.03692C7.50268 8.10646 7.42465 8.14849 7.3411 8.14849H5.82484C5.49318 8.14849 5.17502 8.28005 4.9404 8.51467C4.70578 8.74929 4.57422 9.06745 4.57422 9.39912V14.9019C4.57422 15.5927 5.134 16.1525 5.82484 16.1525H16.3301C17.0209 16.1525 17.5807 15.5927 17.5807 14.9019V9.39912C17.5807 9.06745 17.4492 8.74929 17.2145 8.51467C16.9799 8.28005 16.6618 8.14849 16.3301 8.14849ZM11.0775 9.14899C9.69678 9.14899 8.57622 10.2696 8.57622 11.6502C8.57622 13.0309 9.69678 14.1515 11.0775 14.1515C12.4582 14.1515 13.5787 13.0309 13.5787 11.6502C13.5787 10.2696 12.4582 9.14899 11.0775 9.14899ZM11.0775 10.1495C11.9059 10.1495 12.5782 10.8218 12.5782 11.6502C12.5782 12.4787 11.9059 13.151 11.0775 13.151C10.2491 13.151 9.57672 12.4787 9.57672 11.6502C9.57672 10.8218 10.2491 10.1495 11.0775 10.1495Z" fill="#959291"/>
</svg>
