<svg xmlns="http://www.w3.org/2000/svg" width="23" height="23" viewBox="0 0 23 23" fill="none">
  <path d="M8.84333 3.21558C8.84558 3.21224 18.3984 3.25294 18.4015 3.25054C18.5104 3.2508 18.6162 3.28164 18.7029 3.33838C18.7897 3.39513 18.8528 3.47472 18.8826 3.56513L19.4581 5.34009C19.7928 6.58307 22.1479 6.87602 22.25 5.38278V1.83679C22.2498 1.51613 22.1025 1.20861 21.8405 0.981507C21.5785 0.754407 21.223 0.626221 20.8518 0.625H2.14C1.88269 0.627961 1.63172 0.694377 1.41664 0.816425C1.20156 0.938474 1.03133 1.11107 0.925994 1.3139C0.820655 1.51672 0.784597 1.74133 0.822065 1.96126C0.859532 2.1812 0.968966 2.3873 1.13748 2.55531L9.7425 10.9135C9.85787 11.0256 9.92235 11.1699 9.924 11.3199C9.92565 11.4698 9.86437 11.6152 9.7515 11.7292L1.07448 20.4602C0.906849 20.6286 0.79874 20.835 0.763018 21.0549C0.727295 21.2749 0.765462 21.499 0.872978 21.7007C0.980493 21.9025 1.15283 22.0732 1.36948 22.1928C1.58613 22.3123 1.83797 22.3756 2.09504 22.375H20.8518C21.223 22.3738 21.5785 22.2456 21.8405 22.0185C22.1025 21.7914 22.2498 21.4839 22.25 21.1632V17.6599C22.1844 16.2582 19.8883 16.4046 19.4087 17.524L18.8601 18.627C18.8225 18.7053 18.7589 18.7722 18.6773 18.8192C18.5956 18.8662 18.4997 18.8913 18.4015 18.8911H8.64102C8.54473 18.8909 8.45057 18.8666 8.36997 18.8211C8.28936 18.7756 8.22578 18.7109 8.18693 18.6348C8.14645 18.5594 8.13254 18.4753 8.14693 18.3932C8.16132 18.311 8.20337 18.2343 8.26786 18.1726L14.4677 12.1525C14.6855 11.9406 14.8102 11.6694 14.82 11.3861C14.8299 11.1029 14.7243 10.8256 14.5216 10.6028L8.45219 3.9108C8.39594 3.84708 8.36128 3.77111 8.35206 3.69137C8.34284 3.61162 8.35943 3.53123 8.39998 3.45915C8.44053 3.38708 8.50345 3.32614 8.58173 3.28313C8.66001 3.24013 8.75057 3.21674 8.84333 3.21558Z" fill="#959291"/>
</svg>