<svg xmlns="http://www.w3.org/2000/svg" width="23" height="23" viewBox="0 0 23 23" fill="none">
  <path fill-rule="evenodd" clip-rule="evenodd" d="M12.8634 0.945763C12.0047 0.51808 10.9953 0.518079 10.1366 0.945763L1.58351 5.20581C0.472168 5.75932 0.472161 7.35428 1.58351 7.9078L10.1366 12.1678C10.9953 12.5956 12.0047 12.5956 12.8634 12.1679L21.4165 7.9078C22.5278 7.35429 22.5278 5.75933 21.4165 5.20581L12.8634 0.945763ZM1.63257 10.1245C1.76867 10.0567 1.92816 10.0567 2.06425 10.1245L10.1366 14.1451C10.9953 14.5728 12.0047 14.5728 12.8634 14.1451L20.9358 10.1245C21.0718 10.0567 21.2313 10.0567 21.3674 10.1245L21.4165 10.1489C22.5278 10.7024 22.5278 12.2974 21.4165 12.8509L12.8634 17.111C12.0047 17.5387 10.9953 17.5387 10.1366 17.111L1.58351 12.8509C0.472161 12.2974 0.472168 10.7024 1.58351 10.1489L1.63257 10.1245ZM2.06425 15.0678C1.92816 14.9999 1.76867 14.9999 1.63257 15.0678L1.58351 15.0922C0.472168 15.6457 0.472161 17.2407 1.58351 17.7942L10.1366 22.0542C10.9953 22.4819 12.0047 22.4819 12.8634 22.0542L21.4165 17.7942C22.5278 17.2407 22.5278 15.6457 21.4165 15.0922L21.3674 15.0678C21.2313 14.9999 21.0718 14.9999 20.9358 15.0678L12.8634 19.0883C12.0047 19.516 10.9953 19.516 10.1366 19.0883L2.06425 15.0678Z" fill="#959291"/>
</svg>