<svg width="24" height="24" viewBox="0 0 24 24" fill="none" xmlns="http://www.w3.org/2000/svg">
<rect x="0.5" y="0.5" width="23" height="23" rx="3.5" fill="white"/>
<rect x="0.5" y="0.5" width="23" height="23" rx="3.5" stroke="#FF0000"/>
<path d="M6 8H7.33333H18" stroke="#FF0000" stroke-linecap="round" stroke-linejoin="round"/>
<path d="M16.6663 7.99967V17.333C16.6663 17.6866 16.5259 18.0258 16.2758 18.2758C16.0258 18.5259 15.6866 18.6663 15.333 18.6663H8.66634C8.31272 18.6663 7.97358 18.5259 7.72353 18.2758C7.47348 18.0258 7.33301 17.6866 7.33301 17.333V7.99967M9.33301 7.99967V6.66634C9.33301 6.31272 9.47348 5.97358 9.72353 5.72353C9.97358 5.47348 10.3127 5.33301 10.6663 5.33301H13.333C13.6866 5.33301 14.0258 5.47348 14.2758 5.72353C14.5259 5.97358 14.6663 6.31272 14.6663 6.66634V7.99967" stroke="#FF0000" stroke-linecap="round" stroke-linejoin="round"/>
<path d="M10.667 11.333V15.333" stroke="#FF0000" stroke-linecap="round" stroke-linejoin="round"/>
<path d="M13.333 11.333V15.333" stroke="#FF0000" stroke-linecap="round" stroke-linejoin="round"/>
</svg>
