<svg xmlns="http://www.w3.org/2000/svg" width="30" height="30" viewBox="0 0 30 30" fill="none">
<path d="M15 0C23.2845 0 30 6.7155 30 15C30 23.2845 23.2845 30 15 30C6.7155 30 0 23.2845 0 15C0 6.7155 6.7155 0 15 0ZM15 19.5C14.6022 19.5 14.2206 19.658 13.9393 19.9393C13.658 20.2206 13.5 20.6022 13.5 21C13.5 21.3978 13.658 21.7794 13.9393 22.0607C14.2206 22.342 14.6022 22.5 15 22.5C15.3978 22.5 15.7794 22.342 16.0607 22.0607C16.342 21.7794 16.5 21.3978 16.5 21C16.5 20.6022 16.342 20.2206 16.0607 19.9393C15.7794 19.658 15.3978 19.5 15 19.5ZM15 6C14.6326 6.00005 14.278 6.13493 14.0034 6.37907C13.7289 6.62321 13.5535 6.95962 13.5105 7.3245L13.5 7.5V16.5C13.5004 16.8823 13.6468 17.25 13.9093 17.5281C14.1717 17.8061 14.5304 17.9734 14.9121 17.9958C15.2938 18.0182 15.6696 17.894 15.9627 17.6486C16.2559 17.4032 16.4443 17.0551 16.4895 16.6755L16.5 16.5V7.5C16.5 7.10218 16.342 6.72064 16.0607 6.43934C15.7794 6.15804 15.3978 6 15 6Z" fill="#EA5D5F"/>
</svg>