<svg xmlns="http://www.w3.org/2000/svg" width="22" height="22" viewBox="0 0 22 22" fill="none">
  <path d="M11.3351 7.66665C9.49413 7.66665 8.00171 9.15903 8.00171 11C8.00171 12.8409 9.49413 14.3333 11.3351 14.3333C13.176 14.3333 14.6684 12.8409 14.6684 11C14.6684 9.15903 13.176 7.66665 11.3351 7.66665ZM20.6911 8.62131L19.7886 9.36428C18.7591 10.2118 18.7591 11.7882 19.7886 12.6357L20.6911 13.3786C21.0109 13.6419 21.0935 14.0979 20.8864 14.4567L19.1043 17.5433C18.8971 17.9021 18.461 18.0585 18.0731 17.9132L16.9784 17.5031C15.7297 17.0353 14.3645 17.8235 14.1452 19.1388L13.9531 20.2919C13.885 20.7005 13.5314 21 13.1172 21H9.55294C9.1387 21 8.78514 20.7005 8.71705 20.2919L8.52485 19.1388C8.30565 17.8235 6.94044 17.0353 5.69175 17.5031L4.59709 17.9132C4.20912 18.0585 3.77298 17.9021 3.56582 17.5433L1.78374 14.4567C1.57663 14.0979 1.65921 13.6419 1.97904 13.3786L2.88158 12.6357C3.91103 11.7882 3.91103 10.2118 2.88158 9.36428L1.97904 8.62131C1.65921 8.35801 1.57663 7.90208 1.78374 7.5433L3.56582 4.45665C3.77298 4.09788 4.20912 3.94144 4.59709 4.08678L5.69175 4.49686C6.94044 4.96466 8.30565 4.17648 8.52485 2.86119L8.71705 1.70809C8.78514 1.29949 9.1387 1 9.55294 1H13.1172C13.5314 1 13.885 1.29949 13.9531 1.70809L14.1452 2.86119C14.3645 4.17648 15.7297 4.96466 16.9784 4.49686L18.0731 4.08678C18.461 3.94144 18.8971 4.09788 19.1043 4.45665L20.8864 7.5433C21.0935 7.90208 21.0109 8.35801 20.6911 8.62131Z" stroke="black" stroke-width="2" stroke-miterlimit="10" stroke-linecap="round" stroke-linejoin="round"/>
</svg>