<svg xmlns="http://www.w3.org/2000/svg" width="36" height="37" viewBox="0 0 36 37" fill="none">
<mask id="mask0_3395_2359" style="mask-type:luminance" maskUnits="userSpaceOnUse" x="3" y="3" width="30" height="31">
<path d="M18 33.5C19.9702 33.5026 21.9215 33.1157 23.7417 32.3617C25.5619 31.6078 27.2152 30.5015 28.6065 29.1065C30.0015 27.7152 31.1078 26.0619 31.8617 24.2417C32.6157 22.4215 33.0026 20.4702 33 18.5C33.0025 16.5298 32.6157 14.5785 31.8617 12.7583C31.1077 10.9381 30.0015 9.28484 28.6065 7.89351C27.2152 6.49853 25.5619 5.39226 23.7417 4.63828C21.9215 3.88429 19.9702 3.49746 18 3.50001C16.0298 3.4975 14.0785 3.88435 12.2583 4.63833C10.4381 5.39232 8.78484 6.49857 7.39351 7.89351C5.99857 9.28484 4.89232 10.9381 4.13833 12.7583C3.38435 14.5785 2.9975 16.5298 3.00001 18.5C2.99746 20.4702 3.38429 22.4215 4.13828 24.2417C4.89226 26.0619 5.99853 27.7152 7.39351 29.1065C8.78484 30.5015 10.4381 31.6077 12.2583 32.3617C14.0785 33.1157 16.0298 33.5025 18 33.5Z" fill="white"/>
<path d="M12 18.5L16.5 23L25.5 14" stroke="black" stroke-width="2" stroke-linecap="round" stroke-linejoin="round"/>
</mask>
<g mask="url(#mask0_3395_2359)">
<path d="M0 0.5H36V36.5H0V0.5Z" fill="#57BA00"/>
</g>
</svg>