<svg xmlns="http://www.w3.org/2000/svg" width="36" height="36" viewBox="0 0 36 36" fill="none">
<mask id="mask0_2270_2634" style="mask-type:luminance" maskUnits="userSpaceOnUse" x="3" y="3" width="30" height="30">
<path d="M18 33C19.9702 33.0026 21.9215 32.6157 23.7417 31.8617C25.5619 31.1078 27.2152 30.0015 28.6065 28.6065C30.0015 27.2152 31.1078 25.5619 31.8617 23.7417C32.6157 21.9215 33.0026 19.9702 33 18C33.0025 16.0298 32.6157 14.0785 31.8617 12.2583C31.1077 10.4381 30.0015 8.78484 28.6065 7.39351C27.2152 5.99853 25.5619 4.89226 23.7417 4.13828C21.9215 3.38429 19.9702 2.99746 18 3.00001C16.0298 2.9975 14.0785 3.38435 12.2583 4.13833C10.4381 4.89232 8.78484 5.99857 7.39351 7.39351C5.99857 8.78484 4.89232 10.4381 4.13833 12.2583C3.38435 14.0785 2.9975 16.0298 3.00001 18C2.99746 19.9702 3.38429 21.9215 4.13828 23.7417C4.89226 25.5619 5.99853 27.2152 7.39351 28.6065C8.78484 30.0015 10.4381 31.1077 12.2583 31.8617C14.0785 32.6157 16.0298 33.0025 18 33Z" fill="white"/>
<path d="M12 18L16.5 22.5L25.5 13.5" stroke="black" stroke-width="2" stroke-linecap="round" stroke-linejoin="round"/>
</mask>
<g mask="url(#mask0_2270_2634)">
<path d="M0 0H36V36H0V0Z" fill="#ACACAC"/>
</g>
</svg>