<svg xmlns="http://www.w3.org/2000/svg" width="34" height="30" viewBox="0 0 34 30" fill="none">
<path d="M32.2507 20.4812L21.1325 2.24393C20.1969 0.843259 18.642 0 17.0045 0C15.3671 0 13.8122 0.828966 12.8352 2.2868L1.77209 20.4526C0.368565 22.5393 0.107124 25.0405 1.08409 26.97C2.0473 28.8995 4.07003 30 6.60189 30H27.4071C29.9528 30 31.9617 28.8995 32.9249 26.97C33.8881 25.0405 33.6267 22.5536 32.2507 20.4812ZM15.6285 8.57551C15.6285 7.78942 16.2477 7.14626 17.0045 7.14626C17.7613 7.14626 18.3805 7.78942 18.3805 8.57551V17.151C18.3805 17.9371 17.7613 18.5803 17.0045 18.5803C16.2477 18.5803 15.6285 17.9371 15.6285 17.151V8.57551ZM17.0045 25.7265C15.8624 25.7265 14.9405 24.7689 14.9405 23.5827C14.9405 22.3964 15.8624 21.4388 17.0045 21.4388C18.1466 21.4388 19.0685 22.3964 19.0685 23.5827C19.0685 24.7689 18.1466 25.7265 17.0045 25.7265Z" fill="#FFB155"/>
</svg>